SplineFontDB: 3.2
FontName: SeriousShannsLight
FullName: Serious Shanns Light
FamilyName: Serious Shanns Light
Weight: Light
Copyright: https://github.com/kaBeech/serious-shanns/blob/main/LICENSE
Version: 6.0.0
ItalicAngle: 0
UnderlinePosition: 0
UnderlineWidth: 0
Ascent: 800
Descent: 200
InvalidEm: 0
sfntRevision: 0x00003333
LayerCount: 2
Layer: 0 0 "Back" 1
Layer: 1 0 "Fore" 0
XUID: [1021 329 -1817886000 12366394]
StyleMap: 0x0040
FSType: 4
OS2Version: 3
OS2_WeightWidthSlopeOnly: 0
OS2_UseTypoMetrics: 0
CreationTime: 1532631502
ModificationTime: 315532800
PfmFamily: 81
TTFWeight: 300
TTFWidth: 5
LineGap: 0
VLineGap: 0
Panose: 0 0 0 0 0 0 0 0 0 0
OS2TypoAscent: 613
OS2TypoAOffset: 0
OS2TypoDescent: -188
OS2TypoDOffset: 0
OS2TypoLinegap: 98
OS2WinAscent: 778
OS2WinAOffset: 0
OS2WinDescent: 308
OS2WinDOffset: 0
HheadAscent: 796
HheadAOffset: 0
HheadDescent: -317
HheadDOffset: 0
OS2SubXSize: 317
OS2SubYSize: 293
OS2SubXOff: 0
OS2SubYOff: 37
OS2SupXSize: 317
OS2SupYSize: 293
OS2SupXOff: 0
OS2SupYOff: 171
OS2StrikeYSize: 0
OS2StrikeYPos: 132
OS2CapHeight: 576
OS2XHeight: 485
OS2Vendor: 'NONE'
OS2CodePages: 00000001.00000000
OS2UnicodeRanges: 00000001.00000000.00000000.00000000
MarkAttachClasses: 1
DEI: 91125
LangName: 1033 "" "" "Normal" "FontForge 2.0 : Serious Shanns Light : 1-1-1980" "" "Version 0.2.0"
Encoding: UnicodeBmp
Compacted: 1
UnicodeInterp: none
NameList: AGL For New Fonts
DisplaySize: -48
AntiAlias: 1
FitToEm: 0
WinInfo: 48 16 4
BeginPrivate: 8
BlueValues 32 [-39 -8 492 523 690 718 765 769]
OtherBlues 11 [-297 -287]
BlueScale 9 0.0333333
BlueShift 2 17
StdHW 4 [67]
StdVW 4 [73]
StemSnapH 4 [67]
StemSnapV 7 [68 73]
EndPrivate
BeginChars: 65537 105

StartChar: .notdef
Encoding: 65536 -1 0
Width: 700
GlyphClass: 1
Flags: HMW
HStem: -258 34<180 521 180 555> 705 34<180 521 180 180>
VStem: 146 34<-224 -224 -224 705> 521 34<-224 705 705 705>
LayerCount: 2
Fore
SplineSet
146 739 m 1
 555 739 l 1
 555 -258 l 1
 146 -258 l 1
 146 739 l 1
180 -224 m 1
 521 -224 l 1
 521 705 l 1
 180 705 l 1
 180 -224 l 1
EndSplineSet
Validated: 1
EndChar

StartChar: exclam
Encoding: 33 33 2
Width: 700
GlyphClass: 2
Flags: HMW
HStem: -15.3799 135.375
VStem: 279 143.001 313 78.001 321 72
LayerCount: 2
Fore
SplineSet
399 738 m 0x90
 399 732 397.666992188 694.669921875 395 626.002929688 c 0
 393 557.3359375 392 507.668945312 392 477.001953125 c 0
 391.666015625 461.66796875 391.499023438 447.583984375 391.499023438 434.75 c 0
 391.499023438 421.916015625 391.666015625 410.33203125 392 399.998046875 c 0
 392.666992188 379.331054688 393 361.6640625 393 346.997070312 c 0x90
 393 332.330078125 392.666992188 322.663085938 392 317.99609375 c 0
 391.111328125 311.331054688 390.666992188 302.1484375 390.666992188 290.44921875 c 0
 390.666992188 284.594726562 390.778320312 278.110351562 391.000976562 270.99609375 c 0xa0
 389.66796875 259.663085938 385.000976562 250.663085938 377.000976562 243.99609375 c 0
 369.66796875 237.329101562 360.66796875 233.99609375 350.000976562 233.99609375 c 2
 347.000976562 233.99609375 l 2
 336.333984375 234.663085938 327.666992188 238.330078125 321 244.997070312 c 0x90
 315.666992188 250.997070312 313 259.330078125 313 269.997070312 c 0xa0
 313 276.6640625 314.333007812 287.997070312 317 303.997070312 c 0
 319 313.330078125 320.333007812 323.330078125 321 333.997070312 c 0
 321.666992188 344.6640625 322 367.331054688 322 401.998046875 c 0
 322 415.998046875 321.333007812 437.331054688 320 465.998046875 c 0
 318.666992188 497.331054688 318 531.6640625 318 568.997070312 c 0
 318.666992188 596.330078125 319.666992188 634.997070312 321 684.997070312 c 0
 321.666992188 710.330078125 322 726.997070312 322 734.997070312 c 0
 322.666992188 750.330078125 326.666992188 761.663085938 334 768.99609375 c 0
 341.333007812 776.329101562 350.666015625 779.99609375 361.999023438 779.99609375 c 2
 364.999023438 779.99609375 l 2
 374.999023438 779.99609375 382.999023438 776.99609375 388.999023438 770.99609375 c 0
 395.666015625 764.329101562 399 753.333007812 399 738 c 0x90
402.999023438 7.9990234375 m 0
 390.33203125 -4.66796875 373.33203125 -12.3349609375 351.999023438 -15.001953125 c 0
 349.33203125 -15.251953125 346.727539062 -15.376953125 344.185546875 -15.376953125 c 0
 326.39453125 -15.376953125 311.666015625 -9.251953125 300 2.998046875 c 0
 286 16.998046875 279 33.998046875 279 53.998046875 c 0
 279 71.3310546875 286.333007812 86.3310546875 301 98.998046875 c 0
 317.666992188 112.998046875 336.333984375 119.998046875 357.000976562 119.998046875 c 0
 375.66796875 119.998046875 391.000976562 113.998046875 403.000976562 101.998046875 c 0
 415.66796875 89.3310546875 422.000976562 73.6640625 422.000976562 54.9970703125 c 0xc0
 422.000976562 36.330078125 415.666015625 20.666015625 402.999023438 7.9990234375 c 0
EndSplineSet
Validated: 524289
EndChar

StartChar: quotedbl
Encoding: 34 34 3
Width: 700
GlyphClass: 2
Flags: HMW
HStem: 444.999 328.002
VStem: 228.001 84 387.003 86.998
LayerCount: 2
Fore
SplineSet
433.000976562 773.000976562 m 0
 443.000976562 773.000976562 452.000976562 770.66796875 460.000976562 766.000976562 c 0
 464.000976562 764.000976562 467.333984375 760.66796875 470.000976562 756.000976562 c 0
 472.66796875 750.66796875 474.000976562 744.66796875 474.000976562 738.000976562 c 2
 474.000976562 696.000976562 l 2
 474.000976562 676.66796875 473.333984375 641.000976562 472.000976562 589.000976562 c 0
 470.66796875 537.000976562 468.66796875 499.333984375 466.000976562 476.000976562 c 0
 464.66796875 466.000976562 460.334960938 458.33203125 453.001953125 452.999023438 c 0
 446.334960938 447.666015625 439.001953125 444.999023438 431.001953125 444.999023438 c 2
 428.001953125 444.999023438 l 2
 417.334960938 445.666015625 407.334960938 449.333007812 398.001953125 456 c 0
 391.334960938 460.666992188 388.001953125 467.333984375 388.001953125 476.000976562 c 0
 388.668945312 477.333984375 389.001953125 479.000976562 389.001953125 481.000976562 c 0
 390.334960938 506.333984375 391.001953125 537.3359375 391.001953125 574.002929688 c 2
 391.001953125 612.000976562 l 2
 389.668945312 665.333984375 388.3359375 709.333984375 387.002929688 744.000976562 c 2
 387.002929688 746.002929688 l 2
 387.002929688 751.3359375 388.334960938 756.000976562 391.001953125 760.000976562 c 0
 393.668945312 764.000976562 397.002929688 766.66796875 401.002929688 768.000976562 c 0
 410.3359375 772.000976562 419.002929688 774.002929688 427.002929688 774.002929688 c 0
 429.669921875 773.3359375 431.66796875 773.000976562 433.000976562 773.000976562 c 0
306 476.000976562 m 0
 304.666992188 465.333984375 300.334960938 457.666015625 293.001953125 452.999023438 c 0
 285.001953125 447.666015625 277.334960938 444.999023438 270.001953125 444.999023438 c 2
 268.001953125 444.999023438 l 2
 257.334960938 445.666015625 247.334960938 449.333007812 238.001953125 456 c 0
 231.334960938 460.666992188 228.001953125 467.333984375 228.001953125 476.000976562 c 2
 228.001953125 481.000976562 l 2
 230.001953125 507.66796875 231.001953125 540.000976562 231.001953125 578.000976562 c 0
 230.334960938 588.66796875 230.001953125 600.000976562 230.001953125 612.000976562 c 0
 228.668945312 665.333984375 227.668945312 709.333984375 227.001953125 744.000976562 c 2
 227.001953125 747.000976562 l 2
 227.001953125 751.66796875 228.001953125 756.000976562 230.001953125 760.000976562 c 0
 232.668945312 764.000976562 236.001953125 766.66796875 240.001953125 768.000976562 c 0
 249.14453125 771.4296875 258.532226562 773.14453125 268.1640625 773.14453125 c 0
 269.76953125 773.14453125 271.381835938 773.096679688 273.000976562 773.000976562 c 0
 283.000976562 773.000976562 292.000976562 770.66796875 300.000976562 766.000976562 c 0
 303.333984375 764.000976562 306.333984375 760.66796875 309.000976562 756.000976562 c 0
 311.66796875 750.66796875 313.000976562 744.334960938 313.000976562 737.001953125 c 0
 313.66796875 729.001953125 314.000976562 715.668945312 314.000976562 697.001953125 c 0
 314.000976562 678.334960938 313.333984375 642.66796875 312.000976562 590.000976562 c 0
 310.66796875 537.333984375 308.666992188 499.333984375 306 476.000976562 c 0
EndSplineSet
Validated: 524289
EndChar

StartChar: numbersign
Encoding: 35 35 4
Width: 700
GlyphClass: 2
Flags: HMW
HStem: 200 63.999 454.998 65.002 695.002 20G
LayerCount: 2
Fore
SplineSet
310.005859375 454.998046875 m 1
 271.000976562 263.999023438 l 1
 306.333984375 264.666015625 349.671875 264.998046875 401.004882812 264.998046875 c 2
 409.004882812 264.998046875 l 1
 421.004882812 324.998046875 432.671875 388.331054688 444.004882812 454.998046875 c 1
 310.005859375 454.998046875 l 1
267 200 m 1
 259 200 l 1
 243.666992188 122.666992188 233 70.6669921875 227 44 c 0
 223 32 214.666992188 22.3330078125 202 15 c 0
 194 10.3330078125 186.333007812 7.9990234375 179 7.9990234375 c 0
 175.666992188 7.33203125 172.333984375 7.6650390625 169.000976562 8.998046875 c 0
 159.66796875 10.998046875 152.66796875 17.666015625 148.000976562 28.9990234375 c 0
 145.333984375 35.666015625 144 42.3330078125 144 49 c 0
 144 55.6669921875 145.000976562 62.6669921875 147.000976562 70 c 0
 152.333984375 86.6669921875 162.666992188 129.666992188 178 199 c 1
 136 199 l 2
 120.666992188 199 109.666992188 201.666992188 103 207 c 0
 97 211.666992188 94 218 94 226 c 2
 94 228 l 2
 94.6669921875 236.666992188 97.6669921875 243.666992188 103 249 c 0
 109 255.666992188 119.333007812 259.333984375 134 260.000976562 c 0
 138.666992188 260.66796875 146.666992188 261.000976562 158 261.000976562 c 0
 169.333007812 261.000976562 180.333007812 261.333984375 191 262.000976562 c 1
 229 454.000976562 l 1
 217 454.000976562 l 1
 175 453.000976562 l 1
 172 453.000976562 l 2
 160 452.333984375 150.666992188 455.000976562 144 461.000976562 c 0
 137.333007812 466.333984375 134 473.333984375 134 482.000976562 c 2
 134 485.000976562 l 2
 134 493.000976562 137 500.000976562 143 506.000976562 c 0
 149.666992188 512.66796875 160.333007812 516.334960938 175 517.001953125 c 0
 187.666992188 517.668945312 207.000976562 518.001953125 233.000976562 518.001953125 c 2
 241.000976562 518.001953125 l 1
 271.000976562 680.001953125 l 2
 275.66796875 694.001953125 282.334960938 703.668945312 291.001953125 709.001953125 c 0
 297.668945312 713.001953125 304.3359375 715.001953125 311.002929688 715.001953125 c 0
 313.669921875 715.001953125 316.669921875 714.668945312 320.002929688 714.001953125 c 0
 332.002929688 711.334960938 341.002929688 705.66796875 347.002929688 697.000976562 c 0
 350.3359375 691.66796875 352.002929688 685.000976562 352.002929688 677.000976562 c 0
 352.669921875 672.333984375 352.336914062 667.666992188 351.00390625 663 c 2
 322.00390625 520 l 1
 455.00390625 520 l 1
 483.00390625 673 l 2
 487.670898438 687 494.337890625 696.666992188 503.004882812 702 c 0
 509.004882812 706 515.337890625 708 522.004882812 708 c 0
 525.337890625 707.333007812 529.004882812 706.666015625 533.004882812 705.999023438 c 0
 545.004882812 703.33203125 554.004882812 697.999023438 560.004882812 689.999023438 c 0
 563.337890625 685.33203125 565.004882812 679.33203125 565.004882812 671.999023438 c 0
 565.004882812 667.33203125 564.337890625 661.999023438 563.004882812 655.999023438 c 0
 555.671875 627.999023438 546.671875 582.999023438 536.004882812 520.999023438 c 1
 548.004882812 520.999023438 l 1
 559.004882812 520.999023438 l 2
 573.004882812 520.999023438 584.337890625 517.33203125 593.004882812 509.999023438 c 0
 601.671875 502.666015625 606.338867188 495.333007812 607.005859375 488 c 0
 606.338867188 479.333007812 603.005859375 471.666015625 597.005859375 464.999023438 c 0
 591.005859375 458.999023438 581.338867188 455.665039062 568.005859375 454.998046875 c 2
 523.005859375 454.998046875 l 1
 491.005859375 263.999023438 l 1
 544.004882812 263.999023438 l 2
 556.671875 263.999023438 565.005859375 261.666015625 569.005859375 256.999023438 c 0
 573.005859375 252.33203125 575.338867188 245.33203125 576.005859375 235.999023438 c 0
 576.005859375 225.33203125 574.005859375 217.33203125 570.005859375 211.999023438 c 0
 565.338867188 205.33203125 556.671875 201.999023438 544.004882812 201.999023438 c 2
 480.004882812 201.999023438 l 1
 466.004882812 121.33203125 456.004882812 67.33203125 450.004882812 39.9990234375 c 0
 445.337890625 28.666015625 437.337890625 19.9990234375 426.004882812 13.9990234375 c 0
 418.671875 9.9990234375 411.338867188 7.9990234375 404.005859375 7.9990234375 c 0
 400.672851562 7.33203125 397.005859375 7.6650390625 393.005859375 8.998046875 c 0
 383.005859375 11.6650390625 375.672851562 17.998046875 371.005859375 27.998046875 c 0
 368.338867188 33.998046875 367.005859375 39.998046875 367.005859375 45.998046875 c 0
 367.005859375 51.998046875 368.005859375 58.6650390625 370.005859375 65.998046875 c 0
 376.672851562 92.6650390625 386.005859375 137.665039062 398.005859375 200.998046875 c 1
 386.005859375 200.998046875 l 1
 267 200 l 1
EndSplineSet
Validated: 524289
EndChar

StartChar: dollar
Encoding: 36 36 5
Width: 700
GlyphClass: 2
Flags: HMW
HStem: -18.9971 64.9971 368 63.0029 653 59<384.996 393.998 384.996 393.998>
VStem: 142.999 72.999 322.998 58 322.998 63.002 501.997 73.999
LayerCount: 2
Fore
SplineSet
497.498046875 245.50390625 m 0xfa
 494.498046875 257.170898438 488.998046875 269.337890625 480.998046875 282.004882812 c 0
 472.998046875 294.671875 461.331054688 306.338867188 445.998046875 317.005859375 c 0
 430.665039062 327.005859375 412.665039062 336.005859375 391.998046875 344.005859375 c 2
 380.998046875 349.005859375 l 1
 380.998046875 335.005859375 l 1
 379.997070312 187.005859375 l 2
 379.330078125 132.338867188 378.663085938 89.671875 377.99609375 59.0048828125 c 1
 390.997070312 65 l 2
 421.6640625 79 447.6640625 98.337890625 468.997070312 123.004882812 c 0
 490.997070312 147.671875 501.997070312 176.004882812 501.997070312 208.004882812 c 0
 501.997070312 221.337890625 500.498046875 233.836914062 497.498046875 245.50390625 c 0xfa
243.99609375 469.002929688 m 0
 260.663085938 451.669921875 283.330078125 439.002929688 311.997070312 431.002929688 c 2
 322.998046875 429.002929688 l 1xf6
 323.665039062 483.002929688 323.997070312 551.002929688 323.997070312 633.002929688 c 2
 323.997070312 646.002929688 l 1
 311.997070312 643.002929688 l 2
 284.6640625 633.669921875 262.331054688 619.336914062 244.998046875 600.00390625 c 0
 225.665039062 581.336914062 215.998046875 558.336914062 215.998046875 531.00390625 c 0
 215.998046875 507.00390625 225.329101562 486.3359375 243.99609375 469.002929688 c 0
246.998046875 -11 m 0
 226.998046875 -5.6669921875 210 2 196 12 c 0
 167.333007812 30.6669921875 146.333007812 52.333984375 133 77.0009765625 c 0
 127.666992188 89.0009765625 125 99.333984375 125 108.000976562 c 0
 125 119.333984375 130.333007812 127.666992188 141 133 c 0
 148.333007812 136.333007812 153.666015625 138.333007812 156.999023438 139 c 0
 160.33203125 139.666992188 162.999023438 140 164.999023438 140 c 2
 170.999023438 140 l 2
 174.999023438 140 179.166015625 138.166992188 183.499023438 134.5 c 0
 187.83203125 130.833007812 192.665039062 125 197.998046875 117 c 0
 211.998046875 95 228.331054688 77.6669921875 246.998046875 65 c 0
 263.665039062 52.3330078125 284.6640625 46 309.997070312 46 c 2
 311.997070312 46 l 1
 320.998046875 46 l 1
 322.331054688 164 322.998046875 266.666992188 322.998046875 354 c 2
 322.998046875 363 l 1
 314.331054688 363.666992188 306.498046875 364.5 299.498046875 365.5 c 2
 281.998046875 368 l 2
 261.331054688 370.666992188 241.998046875 376.666992188 223.998046875 386 c 0
 205.331054688 395.333007812 190.331054688 406.666015625 178.998046875 419.999023438 c 0
 167.665039062 433.33203125 158.83203125 447.499023438 152.499023438 462.499023438 c 0
 146.166015625 477.499023438 142.999023438 491.999023438 142.999023438 505.999023438 c 0
 142.999023438 528.666015625 146.666015625 550.499023438 153.999023438 571.499023438 c 0
 161.33203125 592.499023438 171.999023438 611.999023438 185.999023438 629.999023438 c 0
 199.999023438 647.999023438 218.666015625 663.666015625 241.999023438 676.999023438 c 0
 263.999023438 690.33203125 288.997070312 699.665039062 316.997070312 704.998046875 c 2
 322.998046875 705.998046875 l 1xfa
 324.331054688 727.331054688 324.999023438 749.331054688 324.999023438 771.998046875 c 0
 325.666015625 786.665039062 328.166015625 797.83203125 332.499023438 805.499023438 c 0
 336.83203125 813.166015625 343.999023438 816.999023438 353.999023438 816.999023438 c 2
 355.999023438 816.999023438 l 2
 366.666015625 817.666015625 374.333007812 813.999023438 379 805.999023438 c 0
 383.666992188 798.666015625 386 788.333007812 386 775 c 2
 386 713 l 1xf6
 393.998046875 712 l 2
 407.331054688 711.333007812 425.666015625 708 448.999023438 702 c 0
 474.33203125 696 493.33203125 690.666992188 505.999023438 686 c 0
 515.999023438 682.666992188 523.331054688 677 527.998046875 669 c 0
 531.998046875 662.333007812 533.999023438 655.666015625 533.999023438 648.999023438 c 0
 533.999023438 646.999023438 533.666015625 644.666015625 532.999023438 641.999023438 c 0
 532.33203125 635.999023438 530.665039062 631.666015625 527.998046875 628.999023438 c 0
 524.665039062 626.33203125 521.1640625 624.83203125 517.497070312 624.499023438 c 0
 513.830078125 624.166015625 510.331054688 623.999023438 506.998046875 623.999023438 c 0
 493.665039062 623.999023438 478.998046875 627.666015625 462.998046875 634.999023438 c 0
 454.331054688 638.999023438 444.498046875 642.83203125 433.498046875 646.499023438 c 0
 422.498046875 650.166015625 409.331054688 652.333007812 393.998046875 653 c 2
 384.99609375 653 l 1
 380.998046875 423 l 1xfa
 388.998046875 421 l 2
 416.331054688 417.666992188 440.6640625 411 461.997070312 401 c 0
 485.330078125 391 503.830078125 379.666992188 517.497070312 367 c 0
 531.1640625 354.333007812 542.6640625 339.833007812 551.997070312 323.5 c 0
 561.330078125 307.166992188 567.663085938 291 570.99609375 275 c 0
 574.329101562 259 575.99609375 242.333007812 575.99609375 225 c 0
 575.99609375 195.666992188 570.829101562 167.833984375 560.49609375 141.500976562 c 0
 550.163085938 115.16796875 536.163085938 92.3349609375 518.49609375 73.001953125 c 0
 500.829101562 53.6689453125 479.99609375 37.001953125 455.99609375 23.001953125 c 0
 434.663085938 9.001953125 410.99609375 -1.6650390625 384.99609375 -8.998046875 c 2
 377.99609375 -11 l 1
 377.99609375 -17.998046875 l 2
 378.663085938 -57.3310546875 379.330078125 -83.998046875 379.997070312 -97.998046875 c 0
 378.6640625 -109.998046875 374.497070312 -119.165039062 367.497070312 -125.498046875 c 0
 360.497070312 -131.831054688 351.997070312 -134.998046875 341.997070312 -134.998046875 c 2
 340.997070312 -134.998046875 l 1
 339.997070312 -134.998046875 l 2
 331.997070312 -134.998046875 325.997070312 -131.998046875 321.997070312 -125.998046875 c 0
 318.6640625 -120.665039062 316.997070312 -112.998046875 316.997070312 -102.998046875 c 2
 316.997070312 -93.998046875 l 2
 318.330078125 -79.3310546875 318.997070312 -57.6640625 318.997070312 -28.9970703125 c 2
 318.997070312 -18.9970703125 l 1
 309.997070312 -18.9970703125 l 1
 305.997070312 -18.9970703125 l 2
 285.330078125 -18.9970703125 265.665039062 -16.3330078125 246.998046875 -11 c 0
EndSplineSet
Validated: 524289
EndChar

StartChar: percent
Encoding: 37 37 6
Width: 700
GlyphClass: 2
Flags: HMW
HStem: -18.001 57 180.998 54.0323 442 54.999 642.043 52.9575
VStem: 111.001 53.001 127.504 68.499 287.002 45.998 368.003 49.002 478.001 70.001 538.075 51.9275
LayerCount: 2
Fore
SplineSet
428.00390625 58.9990234375 m 0xf340
 436.670898438 46.9990234375 452.337890625 40.33203125 475.004882812 38.9990234375 c 2
 478.000976562 38.9990234375 l 2xf380
 496.000976562 38.9990234375 510.171875 45.166015625 520.504882812 57.4990234375 c 0
 530.837890625 69.83203125 536.670898438 85.6650390625 538.00390625 104.998046875 c 2
 538.00390625 105.998046875 l 1
 538.00390625 108.998046875 l 2
 538.051757812 110.474609375 538.075195312 111.9296875 538.075195312 113.362304688 c 0
 538.075195312 131.977539062 534.051757812 146.85546875 526.00390625 157.998046875 c 0
 514.670898438 173.331054688 497.337890625 180.998046875 474.004882812 180.998046875 c 0
 456.004882812 180.998046875 442.004882812 173.998046875 432.004882812 159.998046875 c 0
 422.671875 145.998046875 417.671875 128.331054688 417.004882812 106.998046875 c 2
 417.004882812 102.998046875 l 2
 416.953125 101.561523438 416.927734375 100.1484375 416.927734375 98.7587890625 c 0
 416.927734375 82.0966796875 420.619140625 68.8447265625 428.00390625 58.9990234375 c 0xf340
413.001953125 -0.5009765625 m 0
 397.668945312 11.166015625 386.334960938 25.9990234375 379.001953125 43.9990234375 c 0
 371.668945312 61.9990234375 368.00390625 81.33203125 368.00390625 101.999023438 c 2
 368.00390625 103.999023438 l 2
 368.00390625 142.666015625 377.670898438 174.166015625 397.00390625 198.499023438 c 0
 416.336914062 222.83203125 444.336914062 234.999023438 481.00390625 234.999023438 c 0
 482.00390625 235.01953125 482.999023438 235.030273438 483.98828125 235.030273438 c 0
 514.64453125 235.030273438 539.982421875 225.01953125 560.002929688 204.999023438 c 0
 570.002929688 194.33203125 577.669921875 179.999023438 583.002929688 161.999023438 c 0
 587.669921875 147.999023438 590.002929688 132.33203125 590.002929688 114.999023438 c 0xf340
 590.002929688 110.999023438 589.669921875 104.999023438 589.002929688 96.9990234375 c 0
 587.002929688 58.33203125 576.3359375 29.33203125 557.002929688 9.9990234375 c 0
 537.669921875 -8.66796875 508.336914062 -18.0009765625 469.00390625 -18.0009765625 c 2
 466.00390625 -18.0009765625 l 2
 446.00390625 -18.0009765625 428.334960938 -12.16796875 413.001953125 -0.5009765625 c 0
176.004882812 517.999023438 m 0
 185.337890625 505.999023438 202.670898438 498.999023438 228.00390625 496.999023438 c 2
 229.00390625 496.999023438 l 2
 247.00390625 496.999023438 260.670898438 503.33203125 270.00390625 515.999023438 c 0
 279.336914062 528.666015625 284.669921875 544.999023438 286.002929688 564.999023438 c 0
 286.669921875 566.33203125 287.002929688 567.999023438 287.002929688 569.999023438 c 0
 286.3359375 593.33203125 281.002929688 610.999023438 271.002929688 622.999023438 c 0
 260.3359375 635.666015625 245.3359375 641.999023438 226.002929688 641.999023438 c 0
 225.162109375 642.028320312 224.329101562 642.04296875 223.504882812 642.04296875 c 0
 205.373046875 642.04296875 191.206054688 635.028320312 181.002929688 620.999023438 c 0
 171.669921875 607.666015625 166.002929688 589.999023438 164.002929688 567.999023438 c 2
 164.002929688 562.999023438 l 2xfb
 163.955078125 561.618164062 163.931640625 560.259765625 163.931640625 558.922851562 c 0
 163.931640625 541.545898438 167.95703125 527.904296875 176.004882812 517.999023438 c 0
234.001953125 195 m 2
 379.001953125 472 l 2
 427.668945312 565.333007812 460.668945312 632.333007812 478.001953125 673 c 0
 486.001953125 685 497.334960938 691 512.001953125 691 c 0
 518.668945312 691 525.3359375 689.333007812 532.002929688 686 c 0
 542.669921875 680.666992188 548.002929688 673.666992188 548.002929688 665 c 0
 548.002929688 657.666992188 544.671875 648.666992188 538.004882812 638 c 0
 512.671875 597.333007812 456.336914062 493.666015625 369.00390625 326.999023438 c 0
 283.00390625 160.33203125 225.336914062 47.33203125 196.00390625 -12.0009765625 c 0
 184.670898438 -32.0009765625 173.00390625 -42.0009765625 161.00390625 -42.0009765625 c 0
 157.00390625 -42.0009765625 152.170898438 -40.66796875 146.50390625 -38.0009765625 c 0
 140.836914062 -35.333984375 136.336914062 -31.833984375 133.00390625 -27.5009765625 c 0
 129.670898438 -23.16796875 127.837890625 -17.5009765625 127.504882812 -10.5009765625 c 0xf780
 127.485351562 -10.08984375 127.475585938 -9.6728515625 127.475585938 -9.2509765625 c 0
 127.475585938 -2.49609375 129.985351562 5.5869140625 135.004882812 14.9990234375 c 0
 149.004882812 43.666015625 182.001953125 103.666992188 234.001953125 195 c 2
160.500976562 459.5 m 0
 144.16796875 471.166992188 131.834960938 486 123.501953125 504 c 0
 115.168945312 522 111.001953125 541.333007812 111.001953125 562 c 2
 111.001953125 564 l 2xfb
 111.001953125 602.666992188 121.668945312 634.166992188 143.001953125 658.5 c 0
 164.334960938 682.833007812 194.334960938 695 233.001953125 695 c 0
 233.918945312 695.020507812 234.831054688 695.03125 235.73828125 695.03125 c 0
 263.8515625 695.03125 287.272460938 685.020507812 306.000976562 665 c 0
 315.333984375 654.333007812 322.333984375 640 327.000976562 622 c 0
 331.000976562 608 333.000976562 591.666992188 333.000976562 573 c 0
 333.000976562 526.333007812 323.000976562 492.333007812 303.000976562 471 c 0
 285.000976562 451.666992188 257.000976562 442 219.000976562 442 c 2
 217.000976562 442 l 2
 195.66796875 442 176.833984375 447.833007812 160.500976562 459.5 c 0
EndSplineSet
Validated: 524289
EndChar

StartChar: ampersand
Encoding: 38 38 7
Width: 700
GlyphClass: 2
Flags: HMW
HStem: -32 74.001 655.001 59.1001
VStem: 102.003 80.0029 188.003 76.002 423.005 63.1093
LayerCount: 2
Fore
SplineSet
585 11 m 2
 585 3 l 2
 583 -13 578.333007812 -23 571 -27 c 0
 567 -29.6669921875 562.333007812 -31 557 -31 c 0
 552.333007812 -31 546.666015625 -29.3330078125 539.999023438 -26 c 0
 526.666015625 -19.3330078125 514.999023438 -7.3330078125 504.999023438 10 c 0
 502.999023438 13.3330078125 498.999023438 23 492.999023438 39 c 0
 486.999023438 55 481.999023438 67 477.999023438 75 c 2
 470.999023438 90 l 1
 450.33203125 61.3330078125 438.33203125 45 434.999023438 41 c 0
 431.666015625 37.6669921875 426.333007812 32 419 24 c 0
 411.666992188 16 405.333984375 10 400.000976562 6 c 0
 394.66796875 2.6669921875 387.66796875 -2 379.000976562 -8 c 0
 371.000976562 -14 363.000976562 -18.3330078125 355.000976562 -21 c 0
 347.000976562 -23.6669921875 337.66796875 -26 327.000976562 -28 c 0
 315.66796875 -30.6669921875 304.334960938 -32 293.001953125 -32 c 0
 257.668945312 -32 225.3359375 -23 196.002929688 -5 c 0
 166.669921875 13 143.669921875 37 127.002929688 67 c 0
 110.3359375 97.6669921875 102.002929688 130.333984375 102.002929688 165.000976562 c 0
 102.002929688 219.000976562 112.002929688 265.333984375 132.002929688 304.000976562 c 0
 156.002929688 352.000976562 196.002929688 388.333984375 252.002929688 413.000976562 c 2
 262.002929688 418.000976562 l 1
 252.002929688 434.000976562 242.669921875 449.000976562 234.002929688 463.000976562 c 0
 225.3359375 476.333984375 219.3359375 486.000976562 216.002929688 492.000976562 c 0
 212.669921875 498.000976562 208.669921875 505.333984375 204.002929688 514.000976562 c 0
 199.3359375 522.66796875 196.3359375 530.000976562 195.002929688 536.000976562 c 0
 190.3359375 554.000976562 188.002929688 571.66796875 188.002929688 589.000976562 c 0
 188.002929688 600.333984375 189.669921875 611.333984375 193.002929688 622.000976562 c 0
 195.669921875 632.66796875 200.669921875 643.66796875 208.002929688 655.000976562 c 0
 215.3359375 666.333984375 224.3359375 676.333984375 235.002929688 685.000976562 c 0
 245.669921875 693.66796875 260.002929688 700.66796875 278.002929688 706.000976562 c 0
 295.3359375 711.333984375 315.3359375 714.000976562 338.002929688 714.000976562 c 0
 339.870117188 714.067382812 341.73046875 714.100585938 343.583984375 714.100585938 c 0
 360.263671875 714.100585938 376.403320312 711.400390625 392.002929688 706.000976562 c 0
 410.002929688 700.000976562 426.002929688 691.66796875 440.002929688 681.000976562 c 0
 454.002929688 669.66796875 465.3359375 655.334960938 474.002929688 638.001953125 c 0
 482.002929688 620.668945312 486.002929688 601.3359375 486.002929688 580.002929688 c 0
 486.077148438 577.631835938 486.114257812 575.28515625 486.114257812 572.962890625 c 0
 486.114257812 554.396484375 483.744140625 537.41015625 479.00390625 522.00390625 c 0
 473.670898438 504.00390625 467.00390625 489.336914062 459.00390625 478.00390625 c 0
 451.00390625 466.670898438 441.00390625 455.670898438 429.00390625 445.00390625 c 0
 417.00390625 434.336914062 406.00390625 425.669921875 396.00390625 419.002929688 c 0
 385.336914062 412.3359375 373.00390625 405.668945312 359.00390625 399.001953125 c 2
 350.00390625 395.001953125 l 1
 355.00390625 386.001953125 l 2
 367.670898438 364.668945312 388.337890625 333.668945312 417.004882812 293.001953125 c 0
 445.671875 252.334960938 464.004882812 225.66796875 472.004882812 213.000976562 c 2
 481.004882812 198.000976562 l 1
 491.004882812 217.333984375 498.671875 233.333984375 504.004882812 246.000976562 c 0
 510.004882812 258.66796875 514.671875 268.66796875 518.004882812 276.000976562 c 0
 521.337890625 283.333984375 524.004882812 288.666992188 526.004882812 292 c 0
 536.671875 308 546.338867188 317.666992188 555.005859375 321 c 0
 557.672851562 321.666992188 560.672851562 322 564.005859375 322 c 0
 570.005859375 322 576.338867188 320.333007812 583.005859375 317 c 0
 591.005859375 313.666992188 596.005859375 306.333984375 598.005859375 295.000976562 c 0
 598.672851562 291.66796875 599.005859375 288.66796875 599.005859375 286.000976562 c 0
 599.005859375 276.000976562 596.005859375 264.66796875 590.005859375 252.000976562 c 0
 587.338867188 246.66796875 577.671875 233.66796875 561.004882812 213.000976562 c 0
 544.337890625 192.333984375 530.337890625 173.333984375 519.004882812 156.000976562 c 2
 516.004882812 151.000976562 l 1
 526.671875 133.000976562 546.004882812 99.333984375 574.004882812 50.0009765625 c 0
 581.337890625 38.0009765625 585 25 585 11 c 2
264.004882812 572.000976562 m 0
 264.004882812 554.000976562 268.671875 534.333984375 278.004882812 513.000976562 c 0
 288.004882812 492.333984375 299.671875 474.000976562 313.004882812 458.000976562 c 2
 317.004882812 453.000976562 l 1
 323.004882812 455.000976562 l 2
 338.337890625 459.66796875 351.337890625 464.66796875 362.004882812 470.000976562 c 0
 372.671875 475.333984375 383.004882812 482.333984375 393.004882812 491.000976562 c 0
 403.004882812 499.66796875 410.337890625 510.66796875 415.004882812 524.000976562 c 0
 420.337890625 536.66796875 423.004882812 551.66796875 423.004882812 569.000976562 c 0
 423.004882812 597.000976562 414.337890625 618.333984375 397.004882812 633.000976562 c 0
 379.671875 647.66796875 359.338867188 655.000976562 336.005859375 655.000976562 c 0
 309.338867188 655.000976562 290.005859375 646.000976562 278.005859375 628.000976562 c 0
 268.672851562 614.000976562 264.004882812 595.333984375 264.004882812 572.000976562 c 0
182.005859375 174.000976562 m 0
 182.005859375 136.66796875 192.338867188 105.66796875 213.005859375 81.0009765625 c 0
 233.672851562 55.0009765625 260.672851562 42.0009765625 294.005859375 42.0009765625 c 0
 311.338867188 42.66796875 329.338867188 46.0009765625 348.005859375 52.0009765625 c 0
 354.672851562 54.0009765625 361.672851562 57.66796875 369.005859375 63.0009765625 c 0
 377.005859375 67.66796875 383.005859375 71.66796875 387.005859375 75.0009765625 c 0
 391.005859375 78.333984375 396.005859375 83.333984375 402.005859375 90.0009765625 c 0
 408.005859375 96.66796875 412.005859375 101.334960938 414.005859375 104.001953125 c 0
 416.672851562 106.001953125 420.33984375 110.668945312 425.006835938 118.001953125 c 0
 429.673828125 125.334960938 433.673828125 131.001953125 437.006835938 135.001953125 c 1
 423.006835938 165.001953125 412.006835938 187.334960938 404.006835938 202.001953125 c 0
 395.33984375 218.001953125 379.006835938 243.334960938 355.006835938 278.001953125 c 0
 331.006835938 312.668945312 312.33984375 340.668945312 299.006835938 362.001953125 c 1
 291.006835938 359.001953125 l 2
 270.33984375 349.001953125 252.672851562 337.334960938 238.005859375 324.001953125 c 0
 222.672851562 310.668945312 211.005859375 295.668945312 203.005859375 279.001953125 c 0
 195.672851562 262.334960938 190.33984375 245.66796875 187.006835938 229.000976562 c 0
 183.673828125 212.333984375 182.005859375 194.000976562 182.005859375 174.000976562 c 0
EndSplineSet
Validated: 524289
EndChar

StartChar: quotesingle
Encoding: 39 39 8
Width: 700
GlyphClass: 2
Flags: HMW
HStem: 456 307.126
VStem: 308.001 84
LayerCount: 2
Fore
SplineSet
386 487 m 0
 384.666992188 476.333007812 380.334960938 468.333007812 373.001953125 463 c 0
 365.668945312 458.333007812 358.001953125 456 350.001953125 456 c 2
 348.001953125 456 l 2
 336.668945312 456.666992188 326.668945312 460.333984375 318.001953125 467.000976562 c 0
 311.334960938 472.333984375 308.001953125 479.333984375 308.001953125 488.000976562 c 2
 308.001953125 491.000976562 l 1
 308.001953125 492.000976562 l 2
 309.848632812 519.694335938 310.771484375 551.71875 310.771484375 588.075195312 c 0
 310.771484375 630.48828125 309.514648438 678.796875 307.001953125 733.000976562 c 2
 307.001953125 735.000976562 l 2
 307.001953125 740.333984375 308.001953125 745.000976562 310.001953125 749.000976562 c 0
 312.668945312 753.000976562 316.001953125 755.66796875 320.001953125 757.000976562 c 0
 329.334960938 761.083984375 338.922851562 763.125976562 348.765625 763.125976562 c 0
 350.171875 763.125976562 351.583984375 763.083984375 353.000976562 763.000976562 c 0
 363.000976562 762.333984375 372.000976562 759.666992188 380.000976562 755 c 0
 384.000976562 753 387.333984375 749.666992188 390.000976562 745 c 0
 392.000976562 740.333007812 393.000976562 734 393.000976562 726 c 0
 393.66796875 718 394.000976562 705 394.000976562 687 c 0
 394.000976562 669 393.333984375 637 392.000976562 591 c 0
 390.66796875 545 388.666992188 510.333007812 386 487 c 0
EndSplineSet
Validated: 524289
EndChar

StartChar: parenleft
Encoding: 40 40 9
Width: 700
GlyphClass: 2
Flags: HMW
HStem: -122 64.999 743 61<449.667 463>
VStem: 210.856 78.1449
LayerCount: 2
Fore
SplineSet
489 -93 m 0
 489 -101 485.666992188 -107.666992188 479 -113 c 0
 473 -119 466.333007812 -122 459 -122 c 0
 416.333007812 -121.333007812 377.666015625 -105.666015625 342.999023438 -74.9990234375 c 0
 308.33203125 -44.33203125 279.999023438 -1.33203125 257.999023438 54.0009765625 c 0
 235.999023438 110.000976562 221.33203125 174.333984375 213.999023438 247.000976562 c 0
 211.999023438 267.000976562 210.999023438 292.000976562 210.999023438 322.000976562 c 0
 210.903320312 326.288085938 210.85546875 330.731445312 210.85546875 335.331054688 c 0
 210.85546875 362.921875 212.5703125 396.145507812 215.999023438 435.000976562 c 0
 223.33203125 512.333984375 236.33203125 575.666992188 254.999023438 625 c 0
 262.999023438 647 273.999023438 668.333007812 287.999023438 689 c 0
 301.999023438 709.666992188 317.999023438 728.666992188 335.999023438 746 c 0
 353.33203125 763.333007812 372.999023438 777.333007812 394.999023438 788 c 0
 417.666015625 798.666992188 439.333007812 804 460 804 c 0
 470 804 477.333007812 802 482 798 c 0
 487.333007812 793.333007812 490 785.333007812 490 774 c 0
 490 762.666992188 487.333007812 754.666992188 482 750 c 0
 476 745.333007812 468 743 458 743 c 0
 438.666992188 743 420.666992188 737.333007812 404 726 c 0
 388 715.333007812 374 700.666015625 362 681.999023438 c 0
 338.666992188 647.33203125 321.333984375 604.999023438 310.000976562 554.999023438 c 0
 301.333984375 520.33203125 295.333984375 472.33203125 292.000976562 410.999023438 c 0
 290.000976562 379.666015625 289.000976562 351.666015625 289.000976562 326.999023438 c 0
 289.66796875 301.666015625 290.66796875 279.666015625 292.000976562 260.999023438 c 0
 295.333984375 220.33203125 302.666992188 180.33203125 314 140.999023438 c 0
 324.666992188 101.666015625 337.666992188 67.9990234375 353 39.9990234375 c 0
 367.666992188 11.33203125 384.333984375 -12.0009765625 403.000976562 -30.0009765625 c 0
 422.333984375 -48.0009765625 441.000976562 -57.0009765625 459.000976562 -57.0009765625 c 0
 469.000976562 -57.0009765625 476.66796875 -59.333984375 482.000976562 -64.0009765625 c 0
 486.66796875 -68.66796875 489 -78.3330078125 489 -93 c 0
EndSplineSet
Validated: 524289
EndChar

StartChar: parenright
Encoding: 41 41 10
Width: 700
GlyphClass: 2
Flags: HMW
HStem: -122 65.001 743.001 61
VStem: 411.999 78
LayerCount: 2
Fore
SplineSet
487 247 m 0
 479.666992188 174.333007812 465 110 443 54 c 0
 421 -1.3330078125 392.666992188 -44.3330078125 358 -75 c 0
 322.666992188 -106.333007812 284 -122 242 -122 c 0
 235.333007812 -121.333007812 228.666015625 -118.333007812 221.999023438 -113 c 0
 214.666015625 -107.666992188 210.999023438 -101 210.999023438 -93 c 0
 210.999023438 -78.3330078125 213.666015625 -68.666015625 218.999023438 -63.9990234375 c 0
 223.666015625 -59.33203125 231.333007812 -56.9990234375 242 -56.9990234375 c 0
 260 -56.9990234375 278.333007812 -47.9990234375 297 -29.9990234375 c 0
 315.666992188 -11.33203125 332.666992188 12.0009765625 348 40.0009765625 c 0
 362.666992188 68.0009765625 375.666992188 101.66796875 387 141.000976562 c 0
 398.333007812 180.333984375 405.666015625 220.333984375 408.999023438 261.000976562 c 0
 410.999023438 281.000976562 411.999023438 303.333984375 411.999023438 328.000976562 c 0
 411.999023438 352.66796875 410.999023438 380.334960938 408.999023438 411.001953125 c 0
 405.666015625 471.668945312 399.666015625 519.668945312 390.999023438 555.001953125 c 0
 378.999023438 605.001953125 361.666015625 647.668945312 338.999023438 683.001953125 c 0
 327.666015625 700.334960938 313.666015625 714.66796875 296.999023438 726.000976562 c 0
 280.33203125 737.333984375 262.665039062 743.000976562 243.998046875 743.000976562 c 0
 233.998046875 743.000976562 225.665039062 745.333984375 218.998046875 750.000976562 c 0
 213.665039062 754.000976562 210.998046875 761.66796875 210.998046875 773.000976562 c 0
 210.331054688 780.333984375 210.998046875 786.000976562 212.998046875 790.000976562 c 0
 214.998046875 794.66796875 217.331054688 797.66796875 219.998046875 799.000976562 c 0
 225.998046875 802.333984375 232.998046875 804.000976562 240.998046875 804.000976562 c 0
 262.998046875 804.000976562 284.665039062 798.66796875 305.998046875 788.000976562 c 0
 327.331054688 777.333984375 346.998046875 763.333984375 364.998046875 746.000976562 c 0
 382.998046875 728.66796875 398.998046875 709.66796875 412.998046875 689.000976562 c 0
 426.998046875 667.66796875 437.998046875 646.334960938 445.998046875 625.001953125 c 0
 464.665039062 575.668945312 477.33203125 512.3359375 483.999023438 435.002929688 c 0
 487.999023438 389.669921875 489.999023438 352.002929688 489.999023438 322.002929688 c 0
 489.999023438 292.002929688 489 267 487 247 c 0
EndSplineSet
Validated: 524289
EndChar

StartChar: asterisk
Encoding: 42 42 11
Width: 700
GlyphClass: 2
Flags: HMW
HStem: 303 84<144.332 147 144 163.999> 315.998 56.999 315.998 69.999
VStem: 417 71.9951
LayerCount: 2
Fore
SplineSet
479 132 m 0x50
 473 128 465.33203125 126.333007812 455.999023438 127 c 0
 447.33203125 127 439.33203125 128.666992188 431.999023438 132 c 0
 424.666015625 135.333007812 419.666015625 140.666015625 416.999023438 147.999023438 c 0
 408.33203125 175.999023438 390.665039062 215.33203125 363.998046875 265.999023438 c 2
 354.998046875 282.999023438 l 1
 346.998046875 265.999023438 l 2
 314.998046875 203.33203125 295.331054688 161.999023438 287.998046875 141.999023438 c 0
 285.998046875 136.666015625 282.665039062 132.333007812 277.998046875 129 c 0
 273.331054688 126.333007812 267.998046875 124.666015625 261.998046875 123.999023438 c 2
 256.998046875 123.999023438 l 2
 244.998046875 123.999023438 234.998046875 126.33203125 226.998046875 130.999023438 c 0
 222.998046875 132.999023438 219.331054688 136.666015625 215.998046875 141.999023438 c 0
 212.665039062 147.999023438 210.33203125 154.666015625 208.999023438 161.999023438 c 2
 208.999023438 164.999023438 l 2
 208.999023438 171.666015625 210.666015625 178.333007812 213.999023438 185 c 2
 289.999023438 309 l 1
 223.33203125 305 176.999023438 303 150.999023438 303 c 0
 137.666015625 303 127.333007812 307.333007812 120 316 c 0
 112.666992188 324 109 333 109 343 c 2
 109 346 l 2
 109 356 111.666992188 365.333007812 117 374 c 0
 119.666992188 378.666992188 123.333984375 382 128.000976562 384 c 0
 133.333984375 386 138.666992188 387 144 387 c 2
 147 387 l 2x90
 177.666992188 384.333007812 229 380.666015625 301 375.999023438 c 1
 292 391.999023438 l 2
 263.333007812 440.666015625 239.666015625 477.999023438 220.999023438 503.999023438 c 0
 214.33203125 515.33203125 210.999023438 526.33203125 210.999023438 536.999023438 c 2
 210.999023438 542.999023438 l 2
 212.33203125 553.666015625 216.665039062 560.666015625 223.998046875 563.999023438 c 1
 223.998046875 564.999023438 l 1
 229.331054688 568.33203125 235.6640625 569.999023438 242.997070312 569.999023438 c 0
 250.330078125 570.666015625 257.997070312 568.666015625 265.997070312 563.999023438 c 0
 273.997070312 559.33203125 279.997070312 552.665039062 283.997070312 543.998046875 c 0
 291.330078125 527.331054688 313.663085938 483.6640625 350.99609375 412.997070312 c 1
 358.99609375 427.997070312 l 2
 385.663085938 473.997070312 405.99609375 512.330078125 419.99609375 542.997070312 c 0
 423.99609375 550.997070312 429.663085938 557.330078125 436.99609375 561.997070312 c 0
 443.928710938 566.50390625 450.681640625 568.756835938 457.254882812 568.756835938 c 0
 463.322265625 568.756835938 469.236328125 566.836914062 474.99609375 562.997070312 c 0
 479.663085938 560.330078125 483.663085938 556.330078125 486.99609375 550.997070312 c 0
 490.329101562 545.6640625 491.99609375 538.6640625 491.99609375 529.997070312 c 0
 491.99609375 521.330078125 489.329101562 512.997070312 483.99609375 504.997070312 c 0
 462.663085938 473.6640625 438.99609375 434.6640625 412.99609375 387.997070312 c 2
 404.99609375 372.997070312 l 1
 421.99609375 372.997070312 l 2x50
 481.329101562 372.997070312 523.662109375 376.6640625 548.995117188 383.997070312 c 0
 552.328125 385.330078125 555.661132812 385.997070312 558.994140625 385.997070312 c 0
 566.327148438 385.997070312 572.66015625 383.6640625 577.993164062 378.997070312 c 0
 586.66015625 370.997070312 591.327148438 362.6640625 591.994140625 353.997070312 c 0
 591.994140625 348.6640625 591.327148438 343.331054688 589.994140625 337.998046875 c 0
 586.661132812 325.331054688 581.328125 316.998046875 573.995117188 312.998046875 c 0
 571.328125 311.665039062 568.661132812 310.998046875 565.994140625 310.998046875 c 0
 562.661132812 310.331054688 559.994140625 310.331054688 557.994140625 310.998046875 c 0
 540.661132812 314.331054688 509.994140625 315.998046875 465.994140625 315.998046875 c 0x30
 459.328125 316.33203125 450.995117188 316.499023438 440.995117188 316.499023438 c 0
 430.995117188 316.499023438 419.328125 316.33203125 405.995117188 315.998046875 c 1
 481.995117188 185.998046875 l 2
 487.328125 174.665039062 489.995117188 164.665039062 489.995117188 155.998046875 c 0
 489.328125 154.665039062 488.995117188 152.998046875 488.995117188 150.998046875 c 0
 488.328125 141.665039062 485 135.333007812 479 132 c 0x50
EndSplineSet
Validated: 524289
EndChar

StartChar: plus
Encoding: 43 43 12
Width: 700
GlyphClass: 2
Flags: HMW
HStem: 367.001 63.999
VStem: 317.997 62.0029
LayerCount: 2
Fore
SplineSet
208 366 m 2
 194 366 184 369.333007812 178 376 c 0
 171.333007812 382 168 389.666992188 168 399 c 2
 168 402 l 2
 168.666992188 410.666992188 171.666992188 418 177 424 c 0
 183 430 192 433 204 433 c 2
 207 433 l 2
 254.333007812 431.666992188 288.330078125 431 308.997070312 431 c 2
 317.997070312 431 l 1
 317.997070312 441 l 2
 317.997070312 474.333007812 317.333007812 510.333007812 316 549 c 2
 316 553 l 2
 316 563.666992188 319 571.333984375 325 576.000976562 c 0
 330.333007812 580.000976562 338.333007812 582.000976562 349 582.000976562 c 2
 353 582.000976562 l 2
 362.333007812 582.000976562 370 580.000976562 376 576.000976562 c 0
 380.666992188 572.66796875 383 565.66796875 383 555.000976562 c 2
 383 550.000976562 l 2
 381 511.333984375 380 474.333984375 380 439.000976562 c 2
 380 430.000976562 l 1
 500 430.000976562 l 2
 512.666992188 430.000976562 521 427.66796875 525 423.000976562 c 0
 529.666992188 417.66796875 532.333984375 410.666992188 533.000976562 402 c 0
 532.333984375 396.666992188 531.666992188 392.000976562 531 388.000976562 c 0
 530.333007812 384.000976562 528.666015625 380 525.999023438 376 c 0
 522.666015625 370.666992188 515.666015625 368.000976562 504.999023438 368.000976562 c 2
 500.999023438 368.000976562 l 2
 489.666015625 369.333984375 473.666015625 370.000976562 452.999023438 370.000976562 c 0
 432.999023438 370.000976562 408.33203125 369.66796875 378.999023438 369.000976562 c 1
 378.999023438 359.000976562 l 1
 378.999023438 295.000976562 l 2
 379.666015625 270.333984375 380 255.333984375 380 250.000976562 c 0
 379.333007812 238.000976562 376.665039062 229.66796875 371.998046875 225.000976562 c 0
 367.331054688 220.333984375 360.6640625 217.666992188 351.997070312 217 c 0
 341.330078125 217.666992188 333.330078125 220 327.997070312 224 c 0
 321.330078125 228.666992188 317.997070312 237.333984375 317.997070312 250.000976562 c 2
 317.997070312 367.000976562 l 1
 308.997070312 367.000976562 l 1
 208 366 l 2
EndSplineSet
Validated: 524289
EndChar

StartChar: comma
Encoding: 44 44 13
Width: 700
GlyphClass: 2
Flags: HMW
VStem: 258 185.998
LayerCount: 2
Fore
SplineSet
294 -207 m 0
 282 -207 272.333007812 -203.333007812 265 -196 c 0
 261 -191.333007812 258.666992188 -185.666015625 258 -178.999023438 c 0
 257.333007812 -177.666015625 257 -176.666015625 257 -175.999023438 c 0
 257.666992188 -171.999023438 260 -165.999023438 264 -157.999023438 c 0
 278 -137.999023438 297.333007812 -93.666015625 322 -24.9990234375 c 0
 347.333007812 43.66796875 362.666015625 91.66796875 367.999023438 119.000976562 c 0
 369.33203125 125.66796875 372.665039062 131.000976562 377.998046875 135.000976562 c 0
 383.998046875 139.000976562 389.998046875 141.000976562 395.998046875 141.000976562 c 2
 397.998046875 141.000976562 l 2
 404.665039062 141.000976562 410.998046875 140.333984375 416.998046875 139.000976562 c 0
 425.665039062 136.333984375 432.665039062 131.333984375 437.998046875 124.000976562 c 0
 441.998046875 119.333984375 443.998046875 113.333984375 443.998046875 106.000976562 c 0
 443.998046875 104.66796875 443.665039062 102.000976562 442.998046875 98.0009765625 c 0
 436.331054688 65.333984375 421.998046875 15.333984375 399.998046875 -51.9990234375 c 0
 387.998046875 -89.33203125 377.998046875 -117.665039062 369.998046875 -136.998046875 c 0
 361.331054688 -155.665039062 354.6640625 -168.33203125 349.997070312 -174.999023438 c 0
 340.6640625 -187.666015625 328.6640625 -196.666015625 313.997070312 -201.999023438 c 0
 305.997070312 -205.33203125 299.333007812 -207 294 -207 c 0
EndSplineSet
Validated: 524289
EndChar

StartChar: hyphen
Encoding: 45 45 14
Width: 700
GlyphClass: 2
Flags: HMW
HStem: 252 68<238.998 250.665> 259 61
VStem: 205.998 289.002
LayerCount: 2
Fore
SplineSet
206 290 m 2x60
 206 301.333007812 209 309.333007812 215 314 c 0
 219.666992188 318 227 320 237 320 c 0
 275 320 320.333007812 320.333007812 373 321 c 0
 425.666992188 322.333007812 455.666992188 323 463 323 c 0
 475.666992188 323 484 320.666992188 488 316 c 0
 492 310.666992188 494.333007812 303.666992188 495 295 c 0
 495 284.333007812 493 276.333007812 489 271 c 0
 484.333007812 264.333007812 475.666015625 261 462.999023438 261 c 0
 454.33203125 261 420.665039062 259.666992188 361.998046875 257 c 0
 303.331054688 253.666992188 262.331054688 252 238.998046875 252 c 0xa0
 228.331054688 252.666992188 220.331054688 255 214.998046875 259 c 0
 208.998046875 264.333007812 205.998046875 273.333007812 205.998046875 286 c 2
 206 290 l 2x60
EndSplineSet
Validated: 524289
EndChar

StartChar: period
Encoding: 46 46 15
Width: 700
GlyphClass: 2
Flags: HMW
HStem: -4 134.053
VStem: 279.001 143.001
LayerCount: 2
Fore
SplineSet
352 -4 m 2
 343 -4 l 2
 342.086914062 -4.03515625 341.182617188 -4.052734375 340.287109375 -4.052734375 c 0
 324.166015625 -4.052734375 310.737304688 1.6318359375 300.000976562 13 c 0
 286.000976562 27.6669921875 279.000976562 44.6669921875 279.000976562 64 c 0
 279.000976562 81.3330078125 286.333984375 96.3330078125 301.000976562 109 c 0
 317.66796875 123 336.334960938 130 357.001953125 130 c 0
 357.984375 130.03515625 358.958007812 130.052734375 359.922851562 130.052734375 c 0
 377.274414062 130.052734375 391.633789062 124.368164062 403.001953125 113 c 0
 415.668945312 100.333007812 422.001953125 84.666015625 422.001953125 65.9990234375 c 0
 422.001953125 47.33203125 415.668945312 31.6650390625 403.001953125 18.998046875 c 0
 391.001953125 6.3310546875 374 -1.3330078125 352 -4 c 2
EndSplineSet
Validated: 524289
EndChar

StartChar: slash
Encoding: 47 47 16
Width: 700
GlyphClass: 2
Flags: W
LayerCount: 2
Fore
SplineSet
110 -9 m 0
 110 5 113.666992188 17.6669921875 121 29 c 0
 218.333007812 189 301.666015625 331.333007812 370.999023438 456 c 0
 414.999023438 532.666992188 461.33203125 619.666992188 509.999023438 717 c 0
 514.666015625 725.666992188 520.666015625 732.333984375 527.999023438 737.000976562 c 0
 535.33203125 741.66796875 542.33203125 744.000976562 548.999023438 744.000976562 c 0
 556.33203125 744.000976562 563.999023438 742.333984375 571.999023438 739.000976562 c 0
 580.666015625 733.66796875 586.333007812 726.334960938 589 717.001953125 c 0
 589.666992188 715.001953125 590 712.334960938 590 709.001953125 c 0
 590 704.334960938 587.666992188 695.001953125 583 681.001953125 c 0
 565.666992188 646.334960938 517 562.66796875 437 430.000976562 c 0
 357 297.333984375 308.333007812 214.666992188 291 182 c 0
 283 166.666992188 265.666992188 131.666992188 239 77 c 0
 215 28.3330078125 200 -1.333984375 194 -12.0009765625 c 0
 184.666992188 -28.66796875 172.666992188 -40.3349609375 158 -47.001953125 c 0
 151.333007812 -50.3349609375 145.333007812 -52.001953125 140 -52.001953125 c 0
 134 -52.001953125 128.666992188 -50.3349609375 124 -47.001953125 c 0
 116.666992188 -43.001953125 112.333984375 -33.3349609375 111.000976562 -18.001953125 c 0
 110.333984375 -14.6689453125 110 -11.6669921875 110 -9 c 0
EndSplineSet
Validated: 524289
EndChar

StartChar: zero
Encoding: 48 48 17
Width: 700
GlyphClass: 2
Flags: HMW
HStem: -14.998 65.001 646.003 61.999
VStem: 135.003 79 491.004 74.998
LayerCount: 2
Fore
SplineSet
136 391 m 0
 136.666992188 418.333007812 138.333984375 441.83203125 141.000976562 461.499023438 c 0
 143.66796875 481.166015625 147.334960938 502.333007812 152.001953125 525 c 0
 156.668945312 547.666992188 162.001953125 567.666992188 168.001953125 585 c 0
 183.334960938 625.666992188 209.334960938 656.333984375 246.001953125 677.000976562 c 0
 279.334960938 697.66796875 320.001953125 708.000976562 368.001953125 708.000976562 c 0
 391.334960938 708.000976562 413.334960938 703.66796875 434.001953125 695.000976562 c 0
 456.001953125 686.333984375 476.001953125 673.500976562 494.001953125 656.500976562 c 0
 512.001953125 639.500976562 527.001953125 617.000976562 539.001953125 589.000976562 c 0
 551.001953125 561.000976562 558.668945312 529.000976562 562.001953125 493.000976562 c 0
 564.668945312 453.000976562 566.001953125 409.333984375 566.001953125 362.000976562 c 0
 566.001953125 326.000976562 564.834960938 288.16796875 562.501953125 248.500976562 c 0
 560.168945312 208.833984375 556.001953125 178.000976562 550.001953125 156.000976562 c 0
 538.668945312 114.000976562 524.668945312 80.333984375 508.001953125 55.0009765625 c 0
 500.001953125 43.0009765625 491.001953125 33.0009765625 481.001953125 25.0009765625 c 0
 471.001953125 17.0009765625 460.668945312 10.333984375 450.001953125 5.0009765625 c 0
 440.668945312 -0.33203125 429.3359375 -4.4990234375 416.002929688 -7.4990234375 c 0
 402.669921875 -10.4990234375 389.669921875 -12.4990234375 377.002929688 -13.4990234375 c 0
 364.3359375 -14.4990234375 349.002929688 -14.9990234375 331.002929688 -14.9990234375 c 0
 303.669921875 -14.33203125 278.669921875 -8.6650390625 256.002929688 2.001953125 c 0
 230.669921875 12.6689453125 209.002929688 27.501953125 191.002929688 46.501953125 c 0
 173.002929688 65.501953125 159.169921875 89.001953125 149.502929688 117.001953125 c 0
 139.8359375 145.001953125 135.002929688 175.334960938 135.002929688 208.001953125 c 2
 135.002929688 214.001953125 l 1
 135.002929688 309.001953125 l 2
 134.780273438 316.125976562 134.668945312 323.918945312 134.668945312 332.380859375 c 0
 134.668945312 349.258789062 135.112304688 368.797851562 136 391 c 0
270.001953125 613.000976562 m 0
 248.668945312 591.000976562 232.334960938 555.998046875 221.001953125 507.998046875 c 0
 217.001953125 490.665039062 214.001953125 470.665039062 212.001953125 447.998046875 c 0
 210.3359375 428.33203125 209.502929688 402.166015625 209.502929688 369.5 c 0
 209.502929688 336.833984375 210.3359375 297.66796875 212.002929688 252.001953125 c 0
 212.669921875 234.001953125 213.169921875 222.501953125 213.502929688 217.501953125 c 0
 213.8359375 212.501953125 214.002929688 209.001953125 214.002929688 207.001953125 c 2
 214.002929688 177.001953125 l 1
 232.002929688 201.001953125 l 1
 314.669921875 323.001953125 389.002929688 448.668945312 455.002929688 578.001953125 c 2
 458.002929688 584.001953125 l 1
 454.002929688 589.001953125 l 2
 442.002929688 607.001953125 427.502929688 621.001953125 410.502929688 631.001953125 c 0
 393.502929688 641.001953125 374.669921875 646.001953125 354.002929688 646.001953125 c 0
 318.002929688 646.001953125 290.001953125 635.000976562 270.001953125 613.000976562 c 0
376.501953125 54.9990234375 m 0
 390.168945312 58.33203125 403.3359375 63.9990234375 416.002929688 71.9990234375 c 0
 441.3359375 88.666015625 461.002929688 119.666015625 475.002929688 164.999023438 c 0
 477.669921875 173.666015625 480.502929688 196.166015625 483.502929688 232.499023438 c 0
 486.502929688 268.83203125 488.669921875 310.33203125 490.002929688 356.999023438 c 0
 490.669921875 369.666015625 491.002929688 381.999023438 491.002929688 393.999023438 c 0
 491.002929688 427.999023438 489.669921875 460.666015625 487.002929688 491.999023438 c 2
 484.002929688 526.999023438 l 1
 468.002929688 494.999023438 l 1
 402.002929688 349.666015625 324.669921875 227.666015625 236.002929688 128.999023438 c 1
 232.002929688 123.999023438 l 1
 234.002929688 117.999023438 l 2
 245.3359375 93.33203125 260.3359375 75.33203125 279.002929688 63.9990234375 c 0
 293.669921875 54.666015625 311.002929688 49.9990234375 331.002929688 49.9990234375 c 0
 347.669921875 49.9990234375 362.834960938 51.666015625 376.501953125 54.9990234375 c 0
EndSplineSet
Validated: 524289
EndChar

StartChar: one
Encoding: 49 49 18
Width: 700
GlyphClass: 2
Flags: HMW
HStem: 1 64.9961<531.999 533.999 531.666 540.333> 520.999 21G
VStem: 317.998 70 328.998 61
LayerCount: 2
Fore
SplineSet
565 59 m 0xe0
 571 53 574 45 574 35 c 0
 574 25 571.166992188 16.8330078125 565.5 10.5 c 0
 559.833007812 4.1669921875 548.666015625 1 531.999023438 1 c 0
 308.666015625 3 184.666015625 4 159.999023438 4 c 0
 147.999023438 4 139.499023438 7.1669921875 134.499023438 13.5 c 0
 129.499023438 19.8330078125 126.999023438 28 126.999023438 38 c 2
 126.999023438 41 l 2
 126.999023438 50.3330078125 129.499023438 58.3330078125 134.499023438 65 c 0
 139.499023438 71.6669921875 148.33203125 75 160.999023438 75 c 0
 190.33203125 75 242.665039062 74.3330078125 317.998046875 73 c 1
 317.998046875 83 l 2xe0
 317.998046875 109 317.665039062 127.666992188 316.998046875 139 c 0
 316.331054688 150.333007812 315.998046875 160.666015625 315.998046875 169.999023438 c 0
 315.998046875 180.666015625 316.331054688 212.333007812 316.998046875 265 c 0
 316.998046875 278.333007812 318.498046875 328.666015625 321.498046875 415.999023438 c 0
 324.498046875 503.33203125 326.998046875 567.999023438 328.998046875 609.999023438 c 1
 312.998046875 595.999023438 l 2
 268.998046875 555.999023438 235.998046875 531.666015625 213.998046875 522.999023438 c 0
 210.665039062 521.666015625 207.665039062 520.999023438 204.998046875 520.999023438 c 0
 198.998046875 520.999023438 191.998046875 524.33203125 183.998046875 530.999023438 c 0
 173.331054688 540.33203125 167.998046875 549.33203125 167.998046875 557.999023438 c 2
 167.998046875 558.999023438 l 1
 167.998046875 559.999023438 l 2
 167.998046875 568.666015625 169.998046875 576.666015625 173.998046875 583.999023438 c 0
 177.998046875 591.33203125 185.331054688 598.999023438 195.998046875 606.999023438 c 0
 215.998046875 622.33203125 236.331054688 638.665039062 256.998046875 655.998046875 c 2
 298.998046875 693.998046875 l 2
 306.998046875 701.331054688 315.165039062 707.6640625 323.498046875 712.997070312 c 0
 331.831054688 718.330078125 338.6640625 720.997070312 343.997070312 720.997070312 c 0
 355.330078125 720.997070312 366.997070312 715.6640625 378.997070312 704.997070312 c 0
 385.6640625 698.997070312 390.331054688 693.6640625 392.998046875 688.997070312 c 0
 394.998046875 686.330078125 395.998046875 683.997070312 395.998046875 681.997070312 c 0
 395.331054688 665.997070312 393.331054688 611.330078125 389.998046875 517.997070312 c 0xd0
 386.665039062 424.6640625 384.998046875 369.997070312 384.998046875 353.997070312 c 0
 384.998046875 237.330078125 385.998046875 142.663085938 387.998046875 69.99609375 c 1
 431.331054688 68.6630859375 465.331054688 67.6630859375 489.998046875 66.99609375 c 0
 514.665039062 66.3291015625 529.33203125 65.99609375 533.999023438 65.99609375 c 0
 535.705078125 66.0703125 537.349609375 66.107421875 538.931640625 66.107421875 c 0
 551.5703125 66.107421875 560.260742188 63.7392578125 565 59 c 0xe0
EndSplineSet
Validated: 524289
EndChar

StartChar: two
Encoding: 50 50 19
Width: 700
GlyphClass: 2
Flags: HMW
HStem: -8 64.0029 -1.99512 68.998 647.002 64.998
VStem: 136 81.0029 470.001 80.002
LayerCount: 2
Fore
SplineSet
336 -8 m 0xb8
 306.666992188 -9.3330078125 277 -10 247 -10 c 0
 213.666992188 -9.3330078125 187.666992188 -8 169 -6 c 0
 163 -5.3330078125 158 -3.166015625 154 0.5009765625 c 0
 150 4.16796875 147 9.0009765625 145 15.0009765625 c 0
 139 30.333984375 136 52.5009765625 136 81.5009765625 c 0
 136 110.500976562 142 140.16796875 154 170.500976562 c 0
 166 200.833984375 183.833007812 230.000976562 207.5 258.000976562 c 0
 231.166992188 286.000976562 257.333984375 308.66796875 286.000976562 326.000976562 c 0
 351.333984375 366.66796875 393.333984375 395.000976562 412.000976562 411.000976562 c 0
 438.66796875 433.66796875 456.000976562 458.334960938 464.000976562 485.001953125 c 0
 468.000976562 499.668945312 470.000976562 517.668945312 470.000976562 539.001953125 c 0
 470.000976562 577.001953125 459.000976562 604.668945312 437.000976562 622.001953125 c 0
 417.000976562 638.668945312 389.000976562 647.001953125 353.000976562 647.001953125 c 0
 327.66796875 647.001953125 303.66796875 638.668945312 281.000976562 622.001953125 c 0
 258.333984375 605.334960938 240.000976562 586.66796875 226.000976562 566.000976562 c 0
 220.000976562 558.000976562 215.000976562 552.16796875 211.000976562 548.500976562 c 0
 207.000976562 544.833984375 203.000976562 542.666992188 199.000976562 542 c 2
 193.500976562 542 l 2
 191.16796875 542 188.334960938 542.333007812 185.001953125 543 c 0
 181.668945312 543.666992188 176.3359375 545.666992188 169.002929688 549 c 0
 160.3359375 553.666992188 155.002929688 560 153.002929688 568 c 2
 153.002929688 575 l 2
 152.936523438 575.799804688 152.903320312 576.623046875 152.903320312 577.469726562 c 0
 152.903320312 585.08984375 155.603515625 594.599609375 161.002929688 606 c 0
 167.002929688 617.333007812 176.3359375 629.166015625 189.002929688 641.499023438 c 0
 201.669921875 653.83203125 216.336914062 665.33203125 233.00390625 675.999023438 c 0
 249.670898438 686.666015625 268.00390625 695.333007812 288.00390625 702 c 0
 308.00390625 708.666992188 328.336914062 712 349.00390625 712 c 0
 412.336914062 712 461.669921875 696.333007812 497.002929688 665 c 0
 532.3359375 633.666992188 550.002929688 586 550.002929688 522 c 0
 550.002929688 469.333007812 536.669921875 427 510.002929688 395 c 0
 489.3359375 371.666992188 454.3359375 345.333984375 405.002929688 316.000976562 c 0
 389.669921875 306.000976562 369.002929688 293.333984375 343.002929688 278.000976562 c 0
 315.669921875 262.66796875 293.002929688 243.334960938 275.002929688 220.001953125 c 0
 256.3359375 196.668945312 242.502929688 172.8359375 233.502929688 148.502929688 c 0
 224.502929688 124.169921875 219.002929688 98.0029296875 217.002929688 70.0029296875 c 2
 217.002929688 60.0029296875 l 1
 262.3359375 57.3359375 303.002929688 56.0029296875 339.002929688 56.0029296875 c 0xb8
 365.002929688 56.0029296875 386.3359375 56.669921875 403.002929688 58.0029296875 c 0
 419.669921875 59.3359375 441.669921875 61.0029296875 469.002929688 63.0029296875 c 0
 497.669921875 65.0029296875 516.002929688 66.3359375 524.002929688 67.0029296875 c 2
 534.002929688 67.0029296875 l 2
 537.115234375 67.2255859375 539.8203125 67.3369140625 542.1171875 67.3369140625 c 0
 546.708007812 67.3369140625 549.669921875 66.892578125 551.002929688 66.00390625 c 0
 553.002929688 65.3369140625 555.3359375 64.00390625 558.002929688 62.00390625 c 0
 560.002929688 60.6708984375 561.3359375 59.337890625 562.002929688 58.0048828125 c 0
 564.002929688 54.0048828125 565.002929688 48.337890625 565.002929688 41.0048828125 c 0
 565.002929688 26.337890625 561.3359375 14.337890625 554.002929688 5.0048828125 c 0
 550.669921875 0.337890625 546.336914062 -1.9951171875 541.00390625 -1.9951171875 c 0x78
 493.00390625 -1.9951171875 424.666992188 -4 336 -8 c 0xb8
EndSplineSet
Validated: 524289
EndChar

StartChar: three
Encoding: 51 51 20
Width: 700
GlyphClass: 2
Flags: HMW
HStem: -14.998 64.998 328.002 81.002 647.004 65.001
VStem: 455.997 81 478.996 80.002
LayerCount: 2
Fore
SplineSet
536 532 m 0xf0
 536.666992188 530.666992188 536.997070312 529.333984375 536.997070312 528.000976562 c 0xf0
 536.997070312 511.333984375 534.5 495.833984375 529.5 481.500976562 c 0
 524.5 467.16796875 518 455.16796875 510 445.500976562 c 0
 502 435.833984375 492.166992188 427.000976562 480.5 419.000976562 c 0
 468.833007812 411.000976562 456.666015625 404.66796875 443.999023438 400.000976562 c 0
 432.666015625 395.333984375 420.666015625 391.666992188 407.999023438 389 c 2
 365.999023438 380 l 1
 407.999023438 370 l 2
 431.999023438 364.666992188 453.166015625 357.833984375 471.499023438 349.500976562 c 0
 489.83203125 341.16796875 505.665039062 330.500976562 518.998046875 317.500976562 c 0
 532.331054688 304.500976562 542.331054688 288.333984375 548.998046875 269.000976562 c 0
 555.665039062 249.66796875 558.998046875 226.334960938 558.998046875 199.001953125 c 0
 558.998046875 133.668945312 538.665039062 81.6689453125 497.998046875 43.001953125 c 0
 457.998046875 4.3349609375 404.998046875 -14.998046875 338.998046875 -14.998046875 c 0
 318.998046875 -14.998046875 298.998046875 -11.6650390625 278.998046875 -4.998046875 c 0
 257.665039062 2.3349609375 238.498046875 11.16796875 221.498046875 21.5009765625 c 0
 204.498046875 31.833984375 189.831054688 43.1669921875 177.498046875 55.5 c 0
 165.165039062 67.8330078125 155.998046875 80 149.998046875 92 c 0
 144.665039062 102 141.998046875 111.333007812 141.998046875 120 c 0
 141.998046875 122.666992188 142.331054688 125.333984375 142.998046875 128.000976562 c 0
 144.998046875 137.333984375 149.998046875 144.000976562 157.998046875 148.000976562 c 0
 165.331054688 152.000976562 172.331054688 154.000976562 178.998046875 154.000976562 c 0
 181.665039062 154.000976562 184.33203125 153.66796875 186.999023438 153.000976562 c 0
 196.33203125 150.333984375 205.665039062 143.000976562 214.998046875 131.000976562 c 0
 230.331054688 110.333984375 249.6640625 91.6669921875 272.997070312 75 c 0
 294.330078125 58.3330078125 317.663085938 50 342.99609375 50 c 0
 380.99609375 50 412.329101562 62.3330078125 436.99609375 87 c 0
 464.99609375 111.666992188 478.99609375 143.333984375 478.99609375 182.000976562 c 0xe8
 478.99609375 204.66796875 475.329101562 224.834960938 467.99609375 242.501953125 c 0
 460.663085938 260.168945312 449.330078125 275.668945312 433.997070312 289.001953125 c 0
 405.997070312 315.001953125 358.997070312 328.001953125 292.997070312 328.001953125 c 0
 282.997070312 328.001953125 274.330078125 332.334960938 266.997070312 341.001953125 c 0
 259.6640625 349.668945312 255.997070312 359.8359375 255.997070312 371.502929688 c 0
 255.997070312 383.169921875 258.6640625 392.336914062 263.997070312 399.00390625 c 0
 268.6640625 405.670898438 275.997070312 409.00390625 285.997070312 409.00390625 c 0
 337.997070312 409.00390625 378.997070312 420.670898438 408.997070312 444.00390625 c 0
 440.330078125 467.336914062 455.997070312 501.00390625 455.997070312 545.00390625 c 2
 455.997070312 549.00390625 l 1
 455.997070312 553.00390625 l 2
 456.016601562 553.899414062 456.026367188 554.7890625 456.026367188 555.671875 c 0
 456.026367188 585.68359375 445.016601562 608.4609375 422.997070312 624.00390625 c 0
 401.6640625 639.336914062 371.6640625 647.00390625 332.997070312 647.00390625 c 0
 320.330078125 647.00390625 306.997070312 644.670898438 292.997070312 640.00390625 c 0
 288.330078125 638.00390625 283.330078125 634.670898438 277.997070312 630.00390625 c 0
 272.6640625 625.336914062 268.331054688 621.669921875 264.998046875 619.002929688 c 0
 261.665039062 616.3359375 257.498046875 611.8359375 252.498046875 605.502929688 c 0
 247.498046875 599.169921875 243.998046875 594.836914062 241.998046875 592.50390625 c 0
 239.998046875 590.170898438 236.665039062 585.337890625 231.998046875 578.004882812 c 0
 222.665039062 565.337890625 213.665039062 558.004882812 204.998046875 556.004882812 c 0
 202.331054688 555.337890625 199.6640625 555.004882812 196.997070312 555.004882812 c 0
 190.330078125 555.004882812 182.997070312 557.004882812 174.997070312 561.004882812 c 0
 166.997070312 565.004882812 161.997070312 571.671875 159.997070312 581.004882812 c 0
 159.330078125 583.004882812 158.997070312 585.337890625 158.997070312 588.004882812 c 0
 158.997070312 596.671875 161.6640625 606.338867188 166.997070312 617.005859375 c 0
 179.6640625 642.338867188 198.997070312 664.005859375 224.997070312 682.005859375 c 0
 238.330078125 691.338867188 254.330078125 698.671875 272.997070312 704.004882812 c 0
 290.330078125 709.337890625 308.997070312 712.004882812 328.997070312 712.004882812 c 0
 467.6640625 712.004882812 536.997070312 653.337890625 536.997070312 536.004882812 c 0
 536.330078125 534.671875 536 533.333007812 536 532 c 0xf0
EndSplineSet
Validated: 524289
EndChar

StartChar: four
Encoding: 52 52 21
Width: 700
GlyphClass: 2
Flags: HMW
HStem: -13.998 21G 234 61.002 696.001 20G
VStem: 420.002 65.499 427 67.001 427 75.001
LayerCount: 2
Fore
SplineSet
442 -1 m 0xf0
 432.666992188 7 427.666992188 14.6669921875 427 22 c 2
 427 60 l 1xe4
 427 233 l 1xe8
 405.666992188 233.666992188 388 234 374 234 c 0
 286 233.333007812 221.333007812 228.666015625 180 219.999023438 c 0
 176 219.33203125 172 218.999023438 168 218.999023438 c 0
 164 218.999023438 160 219.666015625 156 220.999023438 c 0
 150 223.666015625 145 227.333007812 141 232 c 0
 131.666992188 244 127 258.333007812 127 275 c 0
 127 283 128.333007812 291 131 299 c 0
 137.666992188 317.666992188 155.333984375 347.833984375 184.000976562 389.500976562 c 0
 212.66796875 431.16796875 248.66796875 483.000976562 292.000976562 545.000976562 c 0
 334.66796875 607.000976562 365.000976562 652.333984375 383.000976562 681.000976562 c 0
 390.333984375 692.333984375 398.333984375 700.833984375 407.000976562 706.500976562 c 0
 415.66796875 712.16796875 423.66796875 715.000976562 431.000976562 715.000976562 c 0
 433.000976562 715.66796875 435.000976562 716.000976562 437.000976562 716.000976562 c 0
 445.000976562 716.000976562 453.000976562 713.66796875 461.000976562 709.000976562 c 0
 469.000976562 704.333984375 474.000976562 696.333984375 476.000976562 685.000976562 c 0
 480.000976562 662.333984375 483.16796875 626.833984375 485.500976562 578.500976562 c 0xf0
 487.833984375 530.16796875 489.333984375 489.334960938 490.000976562 456.001953125 c 2
 493.000976562 294.001953125 l 1
 510.333984375 292.668945312 525.833984375 292.001953125 539.500976562 292.001953125 c 0
 553.16796875 292.001953125 562.16796875 289.501953125 566.500976562 284.501953125 c 0
 570.833984375 279.501953125 573.333984375 272.668945312 574.000976562 264.001953125 c 0
 574.000976562 253.334960938 572.000976562 245.334960938 568.000976562 240.001953125 c 0
 562.66796875 233.334960938 553.500976562 230.001953125 540.500976562 230.001953125 c 0
 527.500976562 230.001953125 512.000976562 230.668945312 494.000976562 232.001953125 c 1xe8
 494.66796875 126.668945312 496.66796875 67.001953125 500.000976562 53.001953125 c 0
 501.333984375 45.6689453125 502.000976562 39.001953125 502.000976562 33.001953125 c 0xe4
 502.66796875 22.3349609375 500.66796875 12.66796875 496.000976562 4.0009765625 c 0
 493.333984375 -1.33203125 489.833984375 -5.6650390625 485.500976562 -8.998046875 c 0
 481.16796875 -12.3310546875 476.000976562 -13.998046875 470.000976562 -13.998046875 c 0
 460.66796875 -13.3310546875 451.333007812 -9 442 -1 c 0xf0
420.001953125 603.001953125 m 2xf0
 419.001953125 629.001953125 l 1
 404.001953125 608.001953125 l 2
 313.334960938 478.001953125 251.001953125 377.001953125 217.001953125 305.001953125 c 2
 210.001953125 290.001953125 l 1
 226.001953125 291.001953125 l 2
 261.334960938 293.668945312 304.001953125 295.001953125 354.001953125 295.001953125 c 0
 374.001953125 295.001953125 398.334960938 294.668945312 427.001953125 294.001953125 c 1
 427.001953125 304.001953125 l 2
 427.001953125 429.334960938 424.668945312 529.001953125 420.001953125 603.001953125 c 2xf0
EndSplineSet
Validated: 524289
EndChar

StartChar: five
Encoding: 53 53 22
Width: 700
GlyphClass: 2
Flags: HMW
HStem: -7.99902 64.999 430 69.9971 628.997 69.002 639.996 60.0029
VStem: 142 73.999 150 67.999 488.999 80
LayerCount: 2
Fore
SplineSet
551 166 m 0xd6
 539 127.333007812 522.166992188 95.3330078125 500.5 70 c 0
 478.833007812 44.6669921875 454 25.333984375 426 12.0009765625 c 0
 398.666992188 -1.33203125 368.666992188 -7.9990234375 336 -7.9990234375 c 0
 310.666992188 -7.9990234375 287 -4.9990234375 265 1.0009765625 c 0
 241.666992188 7.0009765625 222 14.833984375 206 24.5009765625 c 0
 190 34.16796875 176.666992188 44.66796875 166 56.0009765625 c 0
 155.333007812 67.333984375 146.666015625 79.0009765625 139.999023438 91.0009765625 c 0
 134.666015625 103.66796875 131.999023438 114.000976562 131.999023438 122.000976562 c 0
 131.999023438 133.333984375 137.666015625 141.666992188 148.999023438 147 c 0
 160.33203125 152.333007812 168.33203125 155 172.999023438 155 c 0
 174.999023438 154.333007812 176.666015625 154 177.999023438 154 c 0
 181.999023438 154 185.999023438 152 189.999023438 148 c 0
 193.999023438 144 198.999023438 138 204.999023438 130 c 0
 237.666015625 81.3330078125 278.666015625 57 327.999023438 57 c 0
 375.999023438 57 414.33203125 78 442.999023438 120 c 0
 473.666015625 161.333007812 488.999023438 216.333007812 488.999023438 285 c 0
 488.999023438 328.333007812 478.999023438 363 458.999023438 389 c 0
 439.666015625 416.333007812 411.333007812 430 374 430 c 0
 358 430 341.333007812 428 324 424 c 0
 314.666992188 421.333007812 302.333984375 415.666015625 287.000976562 406.999023438 c 0
 283.000976562 404.999023438 277.833984375 401.166015625 271.500976562 395.499023438 c 0
 265.16796875 389.83203125 261.000976562 385.999023438 259.000976562 383.999023438 c 0
 249.000976562 374.666015625 240.66796875 366.666015625 234.000976562 359.999023438 c 0
 223.333984375 350.666015625 210.333984375 345.333007812 195.000976562 344 c 2
 191.000976562 344 l 2
 184.333984375 344 178.000976562 345.333007812 172.000976562 348 c 0
 163.333984375 351.333007812 156.666992188 359.666015625 152 372.999023438 c 0
 146.666992188 388.33203125 143.666992188 407.33203125 143 429.999023438 c 0
 142.333007812 440.666015625 142 450.999023438 142 460.999023438 c 0xda
 142 485.666015625 143.666992188 520.666015625 147 565.999023438 c 0
 149 590.666015625 150 607.999023438 150 617.999023438 c 2
 150 620.999023438 l 1
 148 622.999023438 l 2
 142 632.999023438 139 644.999023438 139 658.999023438 c 0
 139 674.33203125 143.333007812 686.33203125 152 694.999023438 c 0
 157.333007812 700.33203125 163.333007812 702.999023438 170 702.999023438 c 0
 194.666992188 702.33203125 250 701.33203125 336 699.999023438 c 0xd6
 420.666992188 698.666015625 487 697.999023438 535 697.999023438 c 0
 539.666992188 697.999023438 544 695.666015625 548 690.999023438 c 0
 552.666992188 684.999023438 555.666992188 677.83203125 557 669.499023438 c 0
 558.333007812 661.166015625 558.666015625 653.666015625 557.999023438 646.999023438 c 0
 557.33203125 640.33203125 555.499023438 636.165039062 552.499023438 634.498046875 c 0
 549.499023438 632.831054688 547.166015625 631.6640625 545.499023438 630.997070312 c 0
 543.83203125 630.330078125 540.999023438 629.830078125 536.999023438 629.497070312 c 0
 532.999023438 629.1640625 530.166015625 628.997070312 528.499023438 628.997070312 c 0xe6
 526.83203125 628.997070312 523.165039062 629.1640625 517.498046875 629.497070312 c 0
 511.831054688 629.830078125 506.498046875 630.163085938 501.498046875 630.49609375 c 0
 496.498046875 630.829101562 481.998046875 631.99609375 457.998046875 633.99609375 c 0
 435.998046875 635.99609375 416.331054688 637.49609375 398.998046875 638.49609375 c 0
 381.665039062 639.49609375 357.83203125 639.99609375 327.499023438 639.99609375 c 0
 297.166015625 639.99609375 261.666015625 638.663085938 220.999023438 635.99609375 c 1
 220.33203125 623.329101562 219.33203125 600.99609375 217.999023438 568.99609375 c 0xd6
 216.666015625 536.99609375 215.999023438 516.663085938 215.999023438 507.99609375 c 0xda
 215.999023438 499.329101562 216.166015625 490.829101562 216.499023438 482.49609375 c 0
 216.83203125 474.163085938 217.33203125 451.330078125 217.999023438 413.997070312 c 1
 233.999023438 431.997070312 l 2
 251.33203125 451.330078125 273.83203125 467.497070312 301.499023438 480.497070312 c 0
 329.166015625 493.497070312 360.999023438 499.997070312 396.999023438 499.997070312 c 0
 422.999023438 499.997070312 446.666015625 494.6640625 467.999023438 483.997070312 c 0
 490.666015625 473.330078125 509.166015625 458.997070312 523.499023438 440.997070312 c 0
 537.83203125 422.997070312 548.999023438 401.497070312 556.999023438 376.497070312 c 0
 564.999023438 351.497070312 568.999023438 324.6640625 568.999023438 295.997070312 c 0
 568.999023438 247.997070312 563 204.666992188 551 166 c 0xd6
EndSplineSet
Validated: 524289
EndChar

StartChar: six
Encoding: 54 54 23
Width: 700
GlyphClass: 2
Flags: HMW
HStem: -13 64.998 401.999 69.999
VStem: 130.001 69.999 493 78.002
LayerCount: 2
Fore
SplineSet
553 144 m 0
 541 112 524.833007812 84.5 504.5 61.5 c 0
 484.166992188 38.5 460.333984375 20.3330078125 433.000976562 7 c 0
 407.000976562 -6.3330078125 379.66796875 -13 351.000976562 -13 c 0
 315.000976562 -13 283.66796875 -5.3330078125 257.000976562 10 c 0
 227.66796875 25.3330078125 203.66796875 47.166015625 185.000976562 75.4990234375 c 0
 166.333984375 103.83203125 152.500976562 137.499023438 143.500976562 176.499023438 c 0
 134.500976562 215.499023438 130.000976562 258.666015625 130.000976562 305.999023438 c 0
 130.000976562 365.999023438 135.66796875 419.999023438 147.000976562 467.999023438 c 0
 157.66796875 512.666015625 172.16796875 550.333007812 190.500976562 581 c 0
 208.833984375 611.666992188 231.333984375 637.333984375 258.000976562 658.000976562 c 0
 282.66796875 679.333984375 309.334960938 695.333984375 338.001953125 706.000976562 c 0
 366.668945312 716.66796875 398.668945312 723.66796875 434.001953125 727.000976562 c 2
 440.001953125 727.000976562 l 2
 450.001953125 727.000976562 459.001953125 725.000976562 467.001953125 721.000976562 c 0
 475.001953125 717.000976562 479.668945312 710.333984375 481.001953125 701.000976562 c 2
 481.001953125 700.000976562 l 2
 481.001953125 695.333984375 478.001953125 689.666992188 472.001953125 683 c 0
 464.668945312 674.333007812 456.668945312 668.666015625 448.001953125 665.999023438 c 0
 441.334960938 663.999023438 431.001953125 661.499023438 417.001953125 658.499023438 c 0
 403.001953125 655.499023438 391.001953125 652.33203125 381.001953125 648.999023438 c 0
 371.001953125 645.666015625 359.334960938 640.999023438 346.001953125 634.999023438 c 0
 319.334960938 622.33203125 292.334960938 598.999023438 265.001953125 564.999023438 c 0
 250.334960938 546.33203125 236.66796875 521.665039062 224.000976562 490.998046875 c 0
 211.333984375 460.331054688 203.333984375 432.998046875 200.000976562 408.998046875 c 2
 196.000976562 375.998046875 l 1
 217.000976562 400.998046875 l 2
 237.000976562 424.331054688 261.66796875 441.998046875 291.000976562 453.998046875 c 0
 319.66796875 465.998046875 352.000976562 471.998046875 388.000976562 471.998046875 c 0
 414.66796875 471.331054688 438.66796875 466.998046875 460.000976562 458.998046875 c 0
 482.66796875 450.998046875 502.334960938 438.165039062 519.001953125 420.498046875 c 0
 535.668945312 402.831054688 548.501953125 379.498046875 557.501953125 350.498046875 c 0
 566.501953125 321.498046875 571.001953125 286.665039062 571.001953125 245.998046875 c 0
 571.001953125 209.998046875 565 176 553 144 c 0
202.001953125 228.998046875 m 0
 204.668945312 196.331054688 214.668945312 164.998046875 232.001953125 134.998046875 c 0
 240.668945312 118.998046875 250.668945312 104.998046875 262.001953125 92.998046875 c 0
 272.668945312 80.3310546875 285.668945312 70.3310546875 301.001953125 62.998046875 c 0
 316.334960938 55.6650390625 332.66796875 51.998046875 350.000976562 51.998046875 c 2
 352.000976562 51.998046875 l 2
 376.66796875 51.998046875 399.66796875 61.3310546875 421.000976562 79.998046875 c 0
 442.333984375 97.998046875 459.666992188 120.998046875 473 148.998046875 c 0
 486.333007812 176.998046875 493 205.331054688 493 233.998046875 c 0
 493 266.665039062 490 294.165039062 484 316.498046875 c 0
 478 338.831054688 468.666992188 356.331054688 456 368.998046875 c 0
 444 381.665039062 430.666992188 390.33203125 416 394.999023438 c 0
 401.333007812 399.666015625 384 401.999023438 364 401.999023438 c 0
 332 401.999023438 302 392.999023438 274 374.999023438 c 0
 245.333007812 356.999023438 221.333007812 333.999023438 202 305.999023438 c 1
 200 303.999023438 l 1
 200 300.999023438 l 2
 200 269.666015625 200.668945312 245.665039062 202.001953125 228.998046875 c 0
EndSplineSet
Validated: 524289
EndChar

StartChar: seven
Encoding: 55 55 24
Width: 700
GlyphClass: 2
Flags: HMW
HStem: -14 21G<197.669 203.003> 632.8 71.2011
LayerCount: 2
Fore
SplineSet
547.5 693.5 m 0
 553.166992188 691.166992188 558.333984375 687.333984375 563.000976562 682.000976562 c 0
 567.66796875 676.66796875 570.000976562 669.66796875 570.000976562 661.000976562 c 0
 570.000976562 652.333984375 567.333984375 641.666992188 562.000976562 629 c 0
 552.66796875 609 535.834960938 579 511.501953125 539 c 0
 487.168945312 499 462.3359375 457.666992188 437.002929688 415 c 0
 413.002929688 373 383.669921875 316.833007812 349.002929688 246.5 c 0
 314.3359375 176.166992188 281.668945312 104 251.001953125 30 c 0
 243.668945312 14 234.3359375 2.3330078125 223.002929688 -5 c 0
 215.002929688 -11 207.002929688 -14 199.002929688 -14 c 0
 196.3359375 -14 194.002929688 -13.6669921875 192.002929688 -13 c 0
 181.3359375 -10.3330078125 173.668945312 -3.8330078125 169.001953125 6.5 c 0
 166.959960938 11.0205078125 165.939453125 15.701171875 165.939453125 20.541015625 c 0
 165.939453125 26.763671875 167.626953125 33.25 171.001953125 40 c 0
 205.668945312 108 241.3359375 176 278.002929688 244 c 0
 313.3359375 312 342.502929688 366.166992188 365.502929688 406.5 c 0
 388.502929688 446.833007812 410.002929688 486.333007812 430.002929688 525 c 0
 450.669921875 563 465.002929688 594 473.002929688 618 c 2
 477.002929688 631 l 1
 439.803710938 632.200195312 402.96484375 632.799804688 366.485351562 632.799804688 c 0
 342.165039062 632.799804688 318.00390625 632.533203125 294.002929688 632 c 0
 230.002929688 630 187.669921875 626.333007812 167.002929688 621 c 0
 165.002929688 620.333007812 162.669921875 620 160.002929688 620 c 0
 157.3359375 620 154.668945312 620.666992188 152.001953125 622 c 0
 147.334960938 623.333007812 143.66796875 626 141.000976562 630 c 0
 135.000976562 638.666992188 131.66796875 648.666992188 131.000976562 660 c 0
 131.000976562 669.333007812 133.16796875 676.833007812 137.500976562 682.5 c 0
 141.833984375 688.166992188 151.000976562 692.333984375 165.000976562 695.000976562 c 0
 200.333984375 701.000976562 256.333984375 704.000976562 333.000976562 704.000976562 c 0
 357.000976562 704.000976562 404.000976562 702.333984375 474.000976562 699.000976562 c 0
 509.333984375 697.66796875 528.333984375 697.000976562 531.000976562 697.000976562 c 0
 536.333984375 697.000976562 541.833007812 695.833007812 547.5 693.5 c 0
EndSplineSet
Validated: 524289
EndChar

StartChar: eight
Encoding: 56 56 25
Width: 700
GlyphClass: 2
Flags: HMW
HStem: -17.999 66.001 656.002 52.001
VStem: 124.002 66.9971 151.003 73.9971 463.002 70 503 74.002
LayerCount: 2
Fore
SplineSet
569 142.5 m 0xc4
 563.666992188 122.166992188 554.5 102.333984375 541.5 83.0009765625 c 0
 528.5 63.66796875 512.833007812 46.66796875 494.5 32.0009765625 c 0
 476.166992188 17.333984375 453.333984375 5.333984375 426.000976562 -3.9990234375 c 0
 400.000976562 -13.33203125 371.333984375 -17.9990234375 340.000976562 -17.9990234375 c 0
 308.66796875 -17.9990234375 281.000976562 -13.666015625 257.000976562 -4.9990234375 c 0
 231.66796875 3.66796875 211.000976562 15.0009765625 195.000976562 29.0009765625 c 0
 179.000976562 43.0009765625 165.333984375 59.5009765625 154.000976562 78.5009765625 c 0
 142.66796875 97.5009765625 134.834960938 116.66796875 130.501953125 136.000976562 c 0
 126.168945312 155.333984375 124.001953125 175.500976562 124.001953125 196.500976562 c 0xe4
 124.001953125 217.500976562 129.501953125 240.333984375 140.501953125 265.000976562 c 0
 151.501953125 289.66796875 167.334960938 312.66796875 188.001953125 334.000976562 c 0
 208.668945312 355.333984375 231.001953125 370.000976562 255.001953125 378.000976562 c 2
 277.001953125 386.000976562 l 1
 256.001953125 396.000976562 l 2
 222.668945312 412.000976562 196.8359375 432.66796875 178.502929688 458.000976562 c 0
 160.169921875 483.333984375 151.002929688 509.000976562 151.002929688 535.000976562 c 0
 151.002929688 542.333984375 151.502929688 550.333984375 152.502929688 559.000976562 c 0
 153.502929688 567.66796875 156.002929688 577.834960938 160.002929688 589.501953125 c 0
 164.002929688 601.168945312 168.8359375 612.3359375 174.502929688 623.002929688 c 0
 180.169921875 633.669921875 188.169921875 644.169921875 198.502929688 654.502929688 c 0
 208.8359375 664.8359375 220.668945312 674.002929688 234.001953125 682.002929688 c 0
 246.668945312 689.3359375 262.168945312 695.502929688 280.501953125 700.502929688 c 0
 298.834960938 705.502929688 319.334960938 708.002929688 342.001953125 708.002929688 c 0
 364.668945312 708.002929688 385.168945312 705.669921875 403.501953125 701.002929688 c 0
 421.834960938 696.3359375 437.334960938 690.002929688 450.001953125 682.002929688 c 0
 463.334960938 674.002929688 475.16796875 664.8359375 485.500976562 654.502929688 c 0
 495.833984375 644.169921875 503.833984375 633.669921875 509.500976562 623.002929688 c 0
 515.16796875 612.3359375 519.834960938 601.002929688 523.501953125 589.002929688 c 0
 527.168945312 577.002929688 529.668945312 566.502929688 531.001953125 557.502929688 c 0
 532.334960938 548.502929688 533.001953125 540.002929688 533.001953125 532.002929688 c 0xd8
 533.001953125 524.002929688 532.001953125 516.502929688 530.001953125 509.502929688 c 0
 528.001953125 502.502929688 525.668945312 496.169921875 523.001953125 490.502929688 c 0
 520.334960938 484.8359375 516.501953125 479.002929688 511.501953125 473.002929688 c 0
 506.501953125 467.002929688 501.668945312 461.669921875 497.001953125 457.002929688 c 0
 489.001953125 448.3359375 475.334960938 437.3359375 456.001953125 424.002929688 c 0
 448.001953125 418.002929688 435.001953125 408.3359375 417.001953125 395.002929688 c 1
 432.001953125 388.002929688 l 2
 454.668945312 378.002929688 475.001953125 366.502929688 493.001953125 353.502929688 c 0
 511.001953125 340.502929688 525.168945312 327.669921875 535.501953125 315.002929688 c 0
 545.834960938 302.3359375 554.334960938 289.168945312 561.001953125 275.501953125 c 0
 567.668945312 261.834960938 572.001953125 249.501953125 574.001953125 238.501953125 c 0
 576.001953125 227.501953125 577.001953125 216.001953125 577.001953125 204.001953125 c 0
 577.001953125 183.334960938 574.333007812 162.833007812 569 142.5 c 0xc4
258.001953125 472.001953125 m 0
 277.334960938 454.001953125 309.001953125 436.334960938 353.001953125 419.001953125 c 1
 356.001953125 417.001953125 l 1
 360.001953125 419.001953125 l 2
 386.001953125 430.334960938 409.334960938 446.334960938 430.001953125 467.001953125 c 0
 452.001953125 488.334960938 463.001953125 509.001953125 463.001953125 529.001953125 c 0
 463.001953125 549.001953125 457.668945312 568.668945312 447.001953125 588.001953125 c 0
 436.334960938 607.334960938 421.66796875 623.501953125 403.000976562 636.501953125 c 0
 384.333984375 649.501953125 364.333984375 656.001953125 343.000976562 656.001953125 c 2
 341.000976562 656.001953125 l 2
 310.333984375 655.334960938 283.666992188 643.001953125 261 619.001953125 c 0
 237 595.001953125 225 568.001953125 225 538.001953125 c 0xd8
 225 513.334960938 236.001953125 491.334960938 258.001953125 472.001953125 c 0
215 113.501953125 m 0
 231 91.8349609375 250.333007812 75.3349609375 273 64.001953125 c 0
 295 53.3349609375 318.666992188 48.001953125 344 48.001953125 c 0
 362 48.001953125 380 51.001953125 398 57.001953125 c 0
 416 63.001953125 432.666992188 71.6689453125 448 83.001953125 c 0
 464 95.001953125 477.166992188 110.168945312 487.5 128.501953125 c 0
 497.833007812 146.834960938 503 166.66796875 503 188.000976562 c 0
 503 200.000976562 502.166992188 211.16796875 500.5 221.500976562 c 0
 498.833007812 231.833984375 494.666015625 243.666992188 487.999023438 257 c 0
 481.33203125 270.333007812 472.33203125 282.666015625 460.999023438 293.999023438 c 0
 450.33203125 305.33203125 436.165039062 316.83203125 418.498046875 328.499023438 c 0
 400.831054688 340.166015625 378.998046875 351.333007812 352.998046875 362 c 1
 349.998046875 361 l 2
 304.665039062 347.666992188 267.33203125 324.666992188 237.999023438 292 c 0
 206.666015625 259.333007812 190.999023438 224 190.999023438 186 c 0xe4
 190.999023438 159.333007812 199 135.168945312 215 113.501953125 c 0
EndSplineSet
Validated: 524289
EndChar

StartChar: nine
Encoding: 57 57 26
Width: 700
GlyphClass: 2
Flags: HMW
HStem: -13 21G<233.001 238.001 238.001 246.001> 244.999 69 664.999 64.002
VStem: 130 78<464 497> 501.999 69.001
LayerCount: 2
Fore
SplineSet
552 238 m 0
 540 196 523.666992188 160.333007812 503 131 c 0
 482.333007812 101.666992188 458 76.6669921875 430 56 c 0
 403.333007812 35.3330078125 374.833007812 19.5 344.5 8.5 c 0
 314.166992188 -2.5 281.333984375 -9.6669921875 246.000976562 -13 c 2
 238.000976562 -13 l 2
 228.000976562 -13 218.833984375 -10.8330078125 210.500976562 -6.5 c 0
 202.16796875 -2.1669921875 197.334960938 4.3330078125 196.001953125 13 c 2
 196.001953125 14 l 2
 196.001953125 19.3330078125 199.001953125 25.3330078125 205.001953125 32 c 0
 212.334960938 40 220.66796875 45.3330078125 230.000976562 48 c 0
 237.333984375 50.6669921875 248.666992188 53.6669921875 264 57 c 0
 279.333007812 60.3330078125 293 63.666015625 305 66.9990234375 c 0
 317 70.33203125 330.666992188 75.1650390625 346 81.498046875 c 0
 361.333007812 87.8310546875 376.166015625 96.498046875 390.499023438 107.498046875 c 0
 404.83203125 118.498046875 418.33203125 131.665039062 430.999023438 146.998046875 c 0
 446.999023438 167.665039062 461.666015625 190.998046875 474.999023438 216.998046875 c 0
 488.33203125 242.998046875 497.33203125 266.998046875 501.999023438 288.998046875 c 2
 508.999023438 324.998046875 l 1
 484.999023438 296.998046875 l 2
 467.666015625 277.665039062 446.333007812 264.33203125 421 256.999023438 c 0
 396.333007812 248.999023438 364.666015625 244.999023438 325.999023438 244.999023438 c 0
 300.666015625 244.999023438 276.333007812 251.666015625 253 264.999023438 c 0
 228.333007812 277.666015625 207 294.833007812 189 316.5 c 0
 171 338.166992188 156.666992188 363.166992188 146 391.5 c 0
 135.333007812 419.833007812 130 449 130 479 c 0
 130 515 136 548.666992188 148 580 c 0
 160 611.333007812 176 637.833007812 196 659.5 c 0
 216 681.166992188 239.666992188 698.333984375 267 711.000976562 c 0
 293 723.000976562 320.666992188 729.000976562 350 729.000976562 c 0
 421.333007812 729.000976562 476 699.66796875 514 641.000976562 c 0
 552 582.333984375 571 498.666992188 571 390 c 0
 571 333.333007812 564.666992188 282.666992188 552 238 c 0
246 359.999023438 m 0
 269.333007812 329.33203125 303.666015625 313.999023438 348.999023438 313.999023438 c 0
 376.999023438 313.999023438 404.33203125 320.999023438 430.999023438 334.999023438 c 0
 459.666015625 348.999023438 482.666015625 368.33203125 499.999023438 392.999023438 c 2
 501.999023438 395.999023438 l 1
 501.999023438 411.999023438 l 2
 501.999023438 430.666015625 500.999023438 455.666015625 498.999023438 486.999023438 c 2
 498.999023438 487.999023438 l 2
 495.666015625 520.666015625 485.666015625 551.999023438 468.999023438 581.999023438 c 0
 460.33203125 597.999023438 450.33203125 611.999023438 438.999023438 623.999023438 c 0
 428.33203125 635.999023438 415.33203125 645.83203125 399.999023438 653.499023438 c 0
 384.666015625 661.166015625 368.333007812 664.999023438 351 664.999023438 c 2
 349 664.999023438 l 2
 325 664.33203125 302.333007812 655.665039062 281 638.998046875 c 0
 259.666992188 622.331054688 242.166992188 600.6640625 228.5 573.997070312 c 0
 214.833007812 547.330078125 208 519.663085938 208 490.99609375 c 0
 208 434.329101562 220.666992188 390.666015625 246 359.999023438 c 0
EndSplineSet
Validated: 524289
EndChar

StartChar: colon
Encoding: 58 58 27
Width: 700
GlyphClass: 2
Flags: HMW
HStem: 49.001 136.124 317 135.143
VStem: 295.997 110.001
LayerCount: 2
Fore
SplineSet
354 317 m 2
 351 317 l 2
 335 317.666992188 322.333007812 320.666992188 313 326 c 0
 303 332 297.333007812 341.333007812 296 354 c 0
 295.333007812 365.333007812 295 377 295 389 c 0
 294.666015625 394.666015625 294.499023438 400.249023438 294.499023438 405.749023438 c 0
 294.499023438 411.249023438 294.666015625 416.666015625 295 422 c 0
 295.666992188 428.666992188 297.666992188 434 301 438 c 0
 304.333007812 442 308.666015625 445 313.999023438 447 c 0
 324.284179688 450.428710938 335.059570312 452.143554688 346.32421875 452.143554688 c 0
 348.202148438 452.143554688 350.09375 452.095703125 351.999023438 452 c 0
 357.33203125 452 362.665039062 451.333007812 367.998046875 450 c 0
 381.998046875 447.333007812 391.665039062 442 396.998046875 434 c 0
 400.331054688 429.333007812 402.331054688 423.333007812 402.998046875 416 c 0
 403.665039062 412 403.998046875 408 403.998046875 404 c 0
 403.998046875 386.666992188 401.331054688 368.333984375 395.998046875 349.000976562 c 0
 393.331054688 338.333984375 387.6640625 330.333984375 378.997070312 325.000976562 c 0
 370.330078125 319.66796875 362 317 354 317 c 2
350.997070312 49.0009765625 m 0
 338.330078125 49.0009765625 325.997070312 53.0009765625 313.997070312 61.0009765625 c 0
 303.997070312 67.0009765625 298.330078125 75.333984375 296.997070312 86.0009765625 c 0
 296.330078125 104.000976562 295.997070312 114.000976562 295.997070312 116.000976562 c 0
 295.997070312 118.000976562 296.330078125 123.66796875 296.997070312 133.000976562 c 0
 297.6640625 142.333984375 298.331054688 149.666992188 298.998046875 155 c 0
 298.998046875 161 300.665039062 166 303.998046875 170 c 0
 306.665039062 174 310.665039062 177 315.998046875 179 c 0
 327.6640625 183.083007812 338.564453125 185.125 348.69921875 185.125 c 0
 350.147460938 185.125 351.580078125 185.083007812 352.997070312 185 c 0
 359.6640625 185 366.331054688 184 372.998046875 182 c 0
 380.331054688 180 386.998046875 176 392.998046875 170 c 0
 398.998046875 164 402.665039062 157 403.998046875 149 c 0
 405.331054688 140.333007812 405.998046875 132 405.998046875 124 c 0
 405.998046875 110 403.998046875 95.6669921875 399.998046875 81 c 0
 397.331054688 70.3330078125 390.6640625 62.3330078125 379.997070312 57 c 0
 369.997070312 51.6669921875 360.330078125 49.0009765625 350.997070312 49.0009765625 c 0
EndSplineSet
Validated: 524289
EndChar

StartChar: semicolon
Encoding: 59 59 28
Width: 700
GlyphClass: 2
Flags: HMW
HStem: 275.002 136.001
VStem: 324.336 109.666
LayerCount: 2
Fore
SplineSet
414.000976562 79.001953125 m 0
 414.000976562 62.3349609375 392.333984375 -25.33203125 349.000976562 -183.999023438 c 0
 345.66796875 -195.999023438 340.334960938 -204.33203125 333.001953125 -208.999023438 c 0
 325.668945312 -213.666015625 318.001953125 -215.999023438 310.001953125 -215.999023438 c 2
 308.001953125 -215.999023438 l 2
 296.668945312 -215.33203125 286.3359375 -211.665039062 277.002929688 -204.998046875 c 0
 270.3359375 -200.331054688 267.002929688 -193.6640625 267.002929688 -184.997070312 c 0
 267.002929688 -173.6640625 274.002929688 -133.331054688 288.002929688 -63.998046875 c 0
 300.669921875 -2.6650390625 311.002929688 44.3349609375 319.002929688 77.001953125 c 0
 321.002929688 85.6689453125 323.502929688 92.3359375 326.502929688 97.0029296875 c 0
 329.502929688 101.669921875 332.3359375 104.669921875 335.002929688 106.002929688 c 0
 341.669921875 108.669921875 348.002929688 110.002929688 354.002929688 110.002929688 c 0
 356.002929688 110.002929688 358.3359375 109.669921875 361.002929688 109.002929688 c 2
 362.002929688 109.002929688 l 2
 373.3359375 109.002929688 385.002929688 106.3359375 397.002929688 101.002929688 c 0
 403.002929688 98.3359375 407.669921875 94.6689453125 411.002929688 90.001953125 c 0
 413.002929688 87.3349609375 414.000976562 83.6689453125 414.000976562 79.001953125 c 0
382.002929688 275.001953125 m 2
 374.669921875 275.668945312 366.833984375 277.333984375 358.500976562 280.000976562 c 0
 350.16796875 282.66796875 342.834960938 286.834960938 336.501953125 292.501953125 c 0
 330.168945312 298.168945312 326.668945312 304.668945312 326.001953125 312.001953125 c 0
 325.334960938 323.334960938 324.834960938 334.834960938 324.501953125 346.501953125 c 0
 324.390625 350.38671875 324.334960938 354.216796875 324.334960938 357.991210938 c 0
 324.334960938 365.55078125 324.557617188 372.887695312 325.002929688 380.002929688 c 0
 325.669921875 386.002929688 327.669921875 391.169921875 331.002929688 395.502929688 c 0
 334.3359375 399.8359375 339.002929688 403.002929688 345.002929688 405.002929688 c 0
 351.002929688 407.002929688 356.8359375 408.502929688 362.502929688 409.502929688 c 0
 368.169921875 410.502929688 372.502929688 411.002929688 375.502929688 411.002929688 c 2
 382.002929688 411.002929688 l 2
 393.3359375 410.3359375 404.000976562 407.668945312 414.000976562 403.001953125 c 0
 419.333984375 401.001953125 423.668945312 397.501953125 427.001953125 392.501953125 c 0
 430.334960938 387.501953125 432.334960938 381.668945312 433.001953125 375.001953125 c 0
 433.668945312 371.001953125 434.001953125 367.001953125 434.001953125 363.001953125 c 0
 434.001953125 345.001953125 431.334960938 326.334960938 426.001953125 307.001953125 c 0
 423.334960938 296.334960938 417.66796875 288.334960938 409.000976562 283.001953125 c 0
 400.333984375 277.668945312 392.000976562 275.001953125 384.000976562 275.001953125 c 2
 382.500976562 275.001953125 l 1
 382.002929688 275.001953125 l 2
EndSplineSet
Validated: 524289
EndChar

StartChar: less
Encoding: 60 60 29
Width: 700
GlyphClass: 2
Flags: HMW
HStem: 683 20G<537.667 545.001>
LayerCount: 2
Fore
SplineSet
579 648 m 0
 572.333007812 637.333007812 558.333007812 624.333007812 537 609 c 0
 499.666992188 583 443 540.333007812 367 481 c 0
 290.333007812 421 238.333007812 380.666992188 211 360 c 1
 222 353 l 2
 247.333007812 333 276 308.666992188 308 280 c 0
 340 251.333007812 368 225.666015625 392 202.999023438 c 0
 416 179.666015625 442 155.999023438 470 131.999023438 c 0
 498.666992188 107.999023438 523.333984375 89.33203125 544.000976562 75.9990234375 c 0
 565.333984375 61.9990234375 579.000976562 50.33203125 585.000976562 40.9990234375 c 0
 587.66796875 36.9990234375 589.000976562 32.666015625 589.000976562 27.9990234375 c 0
 589.000976562 25.9990234375 588.333984375 22.666015625 587.000976562 17.9990234375 c 0
 585.000976562 12.666015625 581.333984375 8.3330078125 576.000976562 5 c 0
 570.66796875 1.6669921875 563.000976562 -0.666015625 553.000976562 -1.9990234375 c 0
 550.333984375 -2.666015625 548.000976562 -2.9990234375 546.000976562 -2.9990234375 c 0
 537.333984375 -2.9990234375 527.666992188 -0.9990234375 517 3.0009765625 c 0
 500.333007812 8.333984375 480.333007812 19.6669921875 457 37 c 0
 433 54.3330078125 407 75.666015625 379 100.999023438 c 0
 351 126.33203125 323 151.999023438 295 177.999023438 c 0
 267 203.999023438 237.333007812 230.666015625 206 257.999023438 c 0
 174.666992188 285.33203125 148 306.999023438 126 322.999023438 c 0
 119.333007812 328.33203125 115 335.665039062 113 344.998046875 c 0
 112.333007812 349.665039062 112 354.33203125 112 358.999023438 c 0
 112 363.666015625 112.666992188 368.333007812 114 373 c 0
 116.666992188 381.666992188 121 388 127 392 c 0
 165 420 209.666992188 455.333007812 261 498 c 0
 312.333007812 540.666992188 359 579 401 613 c 0
 443.666992188 647 481.333984375 673.666992188 514.000976562 693 c 0
 524.000976562 699.666992188 533.333984375 703 542.000976562 703 c 0
 548.000976562 703 553.000976562 701.666992188 557.000976562 699 c 0
 568.333984375 693 576.333984375 684.666992188 581.000976562 674 c 0
 583.000976562 669.333007812 584.000976562 665 584.000976562 661 c 0
 583.333984375 657 581.666992188 652.666992188 579 648 c 0
EndSplineSet
Validated: 524289
EndChar

StartChar: equal
Encoding: 61 61 30
Width: 700
GlyphClass: 2
Flags: HMW
HStem: 256.909 63.091 452.907 66.0929
LayerCount: 2
Fore
SplineSet
204 519 m 2
 207 519 l 2
 245 517.666992188 284 517 324 517 c 0
 364.666992188 517 402.333984375 517.333007812 437.000976562 518 c 0
 471.66796875 518.666992188 492.66796875 519 500.000976562 519 c 0
 512.66796875 518.333007812 521.000976562 515.666015625 525.000976562 510.999023438 c 0
 529.66796875 506.33203125 532.334960938 499.665039062 533.001953125 490.998046875 c 0
 532.334960938 473.665039062 527.334960938 462.998046875 518.001953125 458.998046875 c 0
 515.334960938 457.665039062 512.334960938 456.998046875 509.001953125 456.998046875 c 2
 501.001953125 456.998046875 l 2
 485.668945312 457.665039062 471.668945312 457.998046875 459.001953125 457.998046875 c 2
 424.001953125 457.998046875 l 1
 314.001953125 454.998046875 l 2
 268.001953125 453.665039062 234.001953125 452.998046875 212.001953125 452.998046875 c 0
 210.66796875 452.9375 209.364257812 452.907226562 208.090820312 452.907226562 c 0
 195.364257812 452.907226562 185.66796875 455.9375 179.001953125 461.998046875 c 0
 171.668945312 467.998046875 168.001953125 475.331054688 168.001953125 483.998046875 c 2
 168.001953125 486.998046875 l 2
 168.668945312 495.665039062 171.668945312 502.998046875 177.001953125 508.998046875 c 0
 183.001953125 515.665039062 192 519 204 519 c 2
210.001953125 319.998046875 m 2
 231.334960938 319.331054688 256.66796875 318.998046875 286.000976562 318.998046875 c 0
 316.000976562 319.665039062 352.000976562 320.33203125 394.000976562 320.999023438 c 2
 500.000976562 322.999023438 l 2
 512.66796875 322.999023438 521.000976562 320.666015625 525.000976562 315.999023438 c 0
 529.66796875 310.666015625 532.334960938 303.666015625 533.001953125 294.999023438 c 0
 533.001953125 284.33203125 531.001953125 275.999023438 527.001953125 269.999023438 c 0
 524.334960938 266.666015625 521.334960938 264.333007812 518.001953125 263 c 0
 515.334960938 261.666992188 512.334960938 261 509.001953125 261 c 2
 501.001953125 261 l 2
 484.334960938 261.666992188 465.66796875 262 445.000976562 262 c 0
 424.333984375 262 379.666992188 261 311 259 c 0
 263.666992188 257.666992188 229.333984375 257 208.000976562 257 c 0
 206.727539062 256.939453125 205.487304688 256.909179688 204.280273438 256.909179688 c 0
 192.21484375 256.909179688 183.455078125 259.939453125 178.000976562 266 c 0
 171.333984375 272.666992188 168.000976562 280.666992188 168.000976562 290 c 2
 168.000976562 292 l 2
 168.66796875 300 172.000976562 306.666992188 178.000976562 312 c 0
 184.000976562 317.333007812 194.000976562 320 208.000976562 320 c 2
 210.001953125 319.998046875 l 2
EndSplineSet
Validated: 524289
EndChar

StartChar: greater
Encoding: 62 62 31
Width: 700
GlyphClass: 2
Flags: HMW
HStem: 690 20G<153.998 159.332>
LayerCount: 2
Fore
SplineSet
587 334 m 0
 584.333007812 325.333007812 580 319 574 315 c 0
 536 287 491.333007812 251.666992188 440 209 c 0
 388.666992188 166.333007812 342 128 300 94 c 0
 257.333007812 60.6669921875 219.666015625 34 186.999023438 14 c 0
 176.999023438 7.3330078125 167.33203125 4 157.999023438 4 c 0
 152.666015625 4 147.999023438 5.3330078125 143.999023438 8 c 0
 132.666015625 14 124.666015625 22.3330078125 119.999023438 33 c 0
 117.999023438 37.6669921875 116.999023438 42 116.999023438 46 c 0
 116.999023438 50 118.33203125 54.3330078125 120.999023438 59 c 0
 127.666015625 69.6669921875 141.999023438 82.6669921875 163.999023438 98 c 0
 201.33203125 124 257.999023438 166.666992188 333.999023438 226 c 0
 409.999023438 286 458.666015625 323.666992188 479.999023438 339 c 2
 489.999023438 347 l 1
 479.999023438 354 l 2
 453.999023438 374 424.999023438 398.333007812 392.999023438 427 c 0
 360.999023438 455.666992188 332.999023438 481.333984375 308.999023438 504.000976562 c 0
 284.999023438 527.333984375 258.999023438 551.000976562 230.999023438 575.000976562 c 0
 202.33203125 599.000976562 177.665039062 617.66796875 156.998046875 631.000976562 c 0
 135.665039062 645.000976562 121.998046875 656.66796875 115.998046875 666.000976562 c 0
 113.331054688 670.66796875 111.998046875 675.334960938 111.998046875 680.001953125 c 0
 111.998046875 681.334960938 112.665039062 684.334960938 113.998046875 689.001953125 c 0
 115.998046875 694.334960938 119.665039062 698.66796875 124.998046875 702.000976562 c 0
 130.331054688 705.333984375 137.998046875 707.666992188 147.998046875 709 c 0
 150.665039062 709.666992188 152.998046875 710 154.998046875 710 c 0
 163.665039062 710 173.33203125 708 183.999023438 704 c 0
 199.999023438 698.666992188 219.999023438 687.333984375 243.999023438 670.000976562 c 0
 267.999023438 652.66796875 293.999023438 631.334960938 321.999023438 606.001953125 c 0
 349.999023438 580.668945312 377.999023438 555.001953125 405.999023438 529.001953125 c 0
 433.999023438 503.001953125 463.666015625 476.334960938 494.999023438 449.001953125 c 0
 525.666015625 421.668945312 552.333007812 400.001953125 575 384.001953125 c 0
 581.666992188 378.668945312 586 371.3359375 588 362.002929688 c 0
 588.666992188 357.3359375 589 352.668945312 589 348.001953125 c 0
 589 343.334960938 588.333007812 338.666992188 587 334 c 0
EndSplineSet
Validated: 524289
EndChar

StartChar: question
Encoding: 63 63 32
Width: 700
GlyphClass: 2
Flags: HMW
HStem: -4.00195 134.053 646.999 64.999
VStem: 256.999 143 467.999 80.001
LayerCount: 2
Fore
SplineSet
548 522 m 0
 548 505.333007812 545.333007812 490 540 476 c 0
 534.666992188 462.666992188 527.666992188 451 519 441 c 0
 510.333007812 431 500.333007812 421.333007812 489 412 c 0
 477 403.333007812 465 394.333007812 453 385 c 0
 441 375.666992188 429.333007812 365.666992188 418 355 c 0
 407.333007812 343.666992188 397.666015625 330.333984375 388.999023438 315.000976562 c 0
 380.33203125 299.66796875 374.665039062 282.66796875 371.998046875 264.000976562 c 0
 369.331054688 248.66796875 363.998046875 237.000976562 355.998046875 229.000976562 c 0
 351.331054688 225.000976562 344.998046875 223.000976562 336.998046875 223.000976562 c 0
 332.998046875 222.333984375 328.665039062 222.666992188 323.998046875 224 c 0
 308.665039062 228 298.665039062 235 293.998046875 245 c 0
 291.331054688 250.333007812 289.998046875 256.666015625 289.998046875 263.999023438 c 0
 289.998046875 271.999023438 290.998046875 280.666015625 292.998046875 289.999023438 c 0
 297.665039062 306.666015625 304.33203125 322.666015625 312.999023438 337.999023438 c 0
 321.666015625 353.33203125 330.999023438 366.33203125 340.999023438 376.999023438 c 0
 351.666015625 388.33203125 362.666015625 398.999023438 373.999023438 408.999023438 c 0
 385.33203125 418.999023438 396.33203125 428.666015625 406.999023438 437.999023438 c 0
 417.666015625 447.33203125 427.666015625 456.999023438 436.999023438 466.999023438 c 0
 445.666015625 476.999023438 452.999023438 487.999023438 458.999023438 499.999023438 c 0
 464.999023438 511.999023438 467.999023438 524.999023438 467.999023438 538.999023438 c 0
 467.999023438 576.999023438 456.666015625 604.666015625 433.999023438 621.999023438 c 0
 412.666015625 638.666015625 381.999023438 646.999023438 341.999023438 646.999023438 c 0
 331.33203125 646.999023438 320.665039062 644.666015625 309.998046875 639.999023438 c 0
 299.331054688 635.999023438 290.331054688 630.999023438 282.998046875 624.999023438 c 0
 275.665039062 618.999023438 267.998046875 611.33203125 259.998046875 601.999023438 c 0
 251.331054688 591.999023438 244.998046875 583.999023438 240.998046875 577.999023438 c 0
 236.998046875 571.999023438 231.998046875 564.666015625 225.998046875 555.999023438 c 0
 219.998046875 547.33203125 214.998046875 540.999023438 210.998046875 536.999023438 c 0
 206.998046875 533.666015625 202.998046875 531.666015625 198.998046875 530.999023438 c 2
 192.998046875 530.999023438 l 2
 190.998046875 530.999023438 188.331054688 531.33203125 184.998046875 531.999023438 c 0
 181.665039062 532.666015625 176.33203125 534.666015625 168.999023438 537.999023438 c 0
 160.999023438 542.666015625 155.999023438 548.999023438 153.999023438 556.999023438 c 0
 153.318359375 559.040039062 152.899414062 562.078125 152.899414062 566.469726562 c 0
 152.899414062 574.08984375 155.599609375 583.599609375 160.999023438 594.999023438 c 0
 175.666015625 622.33203125 196.666015625 647.665039062 223.999023438 670.998046875 c 0
 238.666015625 683.665039062 255.999023438 693.665039062 275.999023438 700.998046875 c 0
 295.999023438 708.331054688 316.666015625 711.998046875 337.999023438 711.998046875 c 0
 407.33203125 711.998046875 459.665039062 696.331054688 494.998046875 664.998046875 c 0
 530.331054688 633.665039062 548 586 548 522 c 0
328.998046875 -4.001953125 m 2
 319.999023438 -4.001953125 l 2
 319.0859375 -4.037109375 318.181640625 -4.0546875 317.286132812 -4.0546875 c 0
 301.165039062 -4.0546875 287.736328125 1.6298828125 277 12.998046875 c 0
 263.666992188 27.6650390625 257 44.6650390625 257 63.998046875 c 0
 257 81.3310546875 264.333007812 96.3310546875 279 108.998046875 c 0
 295 122.998046875 313.666992188 129.998046875 335 129.998046875 c 0
 335.947265625 130.033203125 336.88671875 130.05078125 337.817382812 130.05078125 c 0
 354.5703125 130.05078125 368.630859375 124.366210938 379.999023438 112.998046875 c 0
 393.33203125 100.331054688 399.999023438 84.6640625 399.999023438 65.9970703125 c 0
 399.999023438 47.330078125 393.666015625 31.6630859375 380.999023438 18.99609375 c 0
 367.666015625 6.3291015625 350.331054688 -1.3349609375 328.998046875 -4.001953125 c 2
EndSplineSet
Validated: 524289
EndChar

StartChar: at
Encoding: 64 64 33
Width: 700
GlyphClass: 2
Flags: HMW
HStem: -120 66.0049 111.004 59 127.005 61.002 391.008 56.998 623.005 69.9971
VStem: 101.999 67.0049 225.001 58.0029 407.004 61.001 545.005 53.9971
LayerCount: 2
Fore
SplineSet
549 9 m 0xdf80
 545.666992188 -0.3330078125 542 -8.3330078125 538 -15 c 0
 534.666992188 -22.3330078125 530 -30.666015625 524 -39.9990234375 c 0
 518 -49.9990234375 511.666992188 -58.33203125 505 -64.9990234375 c 0
 498.333007812 -71.666015625 489.666015625 -78.666015625 478.999023438 -85.9990234375 c 0
 468.999023438 -93.33203125 457.666015625 -99.33203125 444.999023438 -103.999023438 c 0
 432.33203125 -108.666015625 417.665039062 -112.333007812 400.998046875 -115 c 0
 384.331054688 -118.333007812 366.998046875 -120 348.998046875 -120 c 2
 342.998046875 -120 l 2
 309.665039062 -120 278.33203125 -111.666992188 248.999023438 -95 c 0
 218.999023438 -78.3330078125 193.33203125 -55 171.999023438 -25 c 0
 150.666015625 5 133.666015625 41.6669921875 120.999023438 85 c 0
 108.33203125 129 101.999023438 176.666992188 101.999023438 228 c 0
 102.666015625 286 107.333007812 340 116 390 c 0
 125.333007812 440.666992188 138 484.333984375 154 521.000976562 c 0
 170 557.66796875 189 589.000976562 211 615.000976562 c 0
 232.333007812 641.66796875 256 661.334960938 282 674.001953125 c 0
 308 686.668945312 335.333007812 693.001953125 364 693.001953125 c 0
 386 693.001953125 405.666992188 691.334960938 423 688.001953125 c 0
 441 684.668945312 458 679.001953125 474 671.001953125 c 0
 490 663.001953125 504 652.334960938 516 639.001953125 c 0
 528.666992188 625.668945312 540.333984375 609.001953125 551.000976562 589.001953125 c 0
 561.66796875 569.001953125 570.334960938 545.334960938 577.001953125 518.001953125 c 0
 591.668945312 458.668945312 599.001953125 383.3359375 599.001953125 292.002929688 c 0
 598.334960938 244.669921875 591.334960938 203.336914062 578.001953125 168.00390625 c 0
 571.334960938 150.00390625 562.001953125 136.00390625 550.001953125 126.00390625 c 0
 538.668945312 116.00390625 525.001953125 111.00390625 509.001953125 111.00390625 c 0xdf80
 485.668945312 111.670898438 468.001953125 119.337890625 456.001953125 134.004882812 c 0
 446.001953125 146.004882812 439.668945312 163.671875 437.001953125 187.004882812 c 2
 433.001953125 232.004882812 l 1
 418.001953125 189.00390625 l 2
 411.334960938 170.336914062 402.66796875 156.004882812 392.000976562 146.004882812 c 0
 379.333984375 133.337890625 362.333984375 127.004882812 341.000976562 127.004882812 c 0
 304.333984375 127.671875 276.000976562 139.338867188 256.000976562 162.005859375 c 0
 235.333984375 184.672851562 225.000976562 220.005859375 225.000976562 268.005859375 c 0
 225.000976562 292.005859375 227.66796875 314.338867188 233.000976562 335.005859375 c 0
 238.333984375 355.672851562 245.666992188 373.005859375 255 387.005859375 c 0
 264.333007812 400.338867188 275 412.005859375 287 422.005859375 c 0
 299.666992188 432.005859375 312.333984375 439.005859375 325.000976562 443.005859375 c 0
 337.66796875 446.338867188 350.334960938 448.005859375 363.001953125 448.005859375 c 0
 381.001953125 448.005859375 398.334960938 444.672851562 415.001953125 438.005859375 c 0
 429.001953125 432.672851562 440.001953125 425.672851562 448.001953125 417.005859375 c 0
 452.668945312 411.672851562 455.001953125 407.33984375 455.001953125 404.006835938 c 0
 455.001953125 402.673828125 454.668945312 401.340820312 454.001953125 400.0078125 c 0
 450.001953125 392.0078125 445.001953125 387.0078125 439.001953125 385.0078125 c 0
 432.334960938 383.0078125 427.334960938 382.0078125 424.001953125 382.0078125 c 0
 418.668945312 382.674804688 411.3359375 384.0078125 402.002929688 386.0078125 c 2
 387.002929688 389.0078125 l 2
 381.002929688 390.340820312 375.3359375 391.0078125 370.002929688 391.0078125 c 2
 358.002929688 391.0078125 l 2
 348.669921875 390.340820312 339.336914062 387.0078125 330.00390625 381.0078125 c 0
 320.670898438 375.0078125 312.670898438 367.674804688 306.00390625 359.0078125 c 0
 298.670898438 351.0078125 293.00390625 340.005859375 289.00390625 326.005859375 c 0
 285.00390625 312.005859375 283.00390625 296.674804688 283.00390625 280.0078125 c 0
 283.00390625 271.340820312 283.670898438 262.673828125 285.00390625 254.006835938 c 0
 285.670898438 246.006835938 287.670898438 236.670898438 291.00390625 226.00390625 c 0
 294.336914062 215.336914062 300.00390625 206.33984375 308.00390625 199.006835938 c 0
 316.00390625 191.673828125 326.00390625 188.006835938 338.00390625 188.006835938 c 0xbf80
 362.670898438 188.006835938 380.337890625 198.006835938 391.004882812 218.006835938 c 0
 400.337890625 235.33984375 405.670898438 263.672851562 407.00390625 303.005859375 c 0
 407.670898438 309.672851562 414.337890625 315.672851562 427.004882812 321.005859375 c 0
 437.004882812 324.338867188 445.671875 326.005859375 453.004882812 326.005859375 c 0
 457.671875 326.005859375 462.002929688 325.338867188 466.002929688 324.005859375 c 0
 470.002929688 322.005859375 472.004882812 319.672851562 472.004882812 317.005859375 c 2
 472.004882812 315.005859375 l 2
 469.337890625 290.338867188 468.004882812 269.671875 468.004882812 253.004882812 c 0
 468.004882812 244.337890625 468.337890625 236.670898438 469.004882812 230.00390625 c 0
 471.671875 208.670898438 475.671875 193.670898438 481.004882812 185.00390625 c 0
 487.671875 175.00390625 497.001953125 170.00390625 509.001953125 170.00390625 c 0
 519.001953125 170.00390625 526.671875 176.336914062 532.004882812 189.00390625 c 0
 536.004882812 199.00390625 539.004882812 211.336914062 541.004882812 226.00390625 c 0
 543.671875 250.670898438 545.004882812 273.670898438 545.004882812 295.00390625 c 0
 545.004882812 329.670898438 543.671875 361.333007812 541.004882812 390 c 0
 537.671875 419.333007812 533.670898438 444.337890625 529.00390625 465.004882812 c 0
 524.336914062 486.337890625 518.336914062 505.337890625 511.00390625 522.004882812 c 0
 503.670898438 539.337890625 496.338867188 553.337890625 489.005859375 564.004882812 c 0
 481.672851562 574.671875 473.005859375 584.004882812 463.005859375 592.004882812 c 0
 453.005859375 599.337890625 444.334960938 605.004882812 437.001953125 609.004882812 c 0
 429.668945312 613.671875 421.005859375 617.004882812 411.005859375 619.004882812 c 0
 401.005859375 621.004882812 393.672851562 622.004882812 389.005859375 622.004882812 c 0
 384.338867188 622.671875 378.671875 623.004882812 372.004882812 623.004882812 c 0
 343.337890625 622.337890625 316.670898438 613.337890625 292.00390625 596.004882812 c 0
 267.336914062 578.671875 246.00390625 554.671875 228.00390625 524.004882812 c 0
 210.00390625 492.671875 195.670898438 454.671875 185.00390625 410.004882812 c 0
 174.336914062 365.337890625 169.00390625 316.670898438 169.00390625 264.00390625 c 0
 169.670898438 218.00390625 173.337890625 176.670898438 180.004882812 140.00390625 c 0
 187.337890625 102.670898438 196.670898438 72.337890625 208.00390625 49.0048828125 c 0
 219.336914062 25.671875 232.999023438 6.0048828125 248.999023438 -9.9951171875 c 0
 264.33203125 -25.9951171875 280.336914062 -37.328125 297.00390625 -43.9951171875 c 0
 313.670898438 -50.662109375 330.998046875 -53.9951171875 348.998046875 -53.9951171875 c 0
 366.331054688 -53.9951171875 382.669921875 -52.328125 398.002929688 -48.9951171875 c 0
 413.3359375 -45.662109375 426.002929688 -41.3291015625 436.002929688 -35.99609375 c 0
 446.669921875 -30.6630859375 456.669921875 -23.6669921875 466.002929688 -15 c 0
 474.669921875 -7 481.669921875 0.6708984375 487.002929688 8.00390625 c 0
 491.669921875 15.3369140625 497.336914062 24.3369140625 504.00390625 35.00390625 c 0
 506.670898438 39.6708984375 509.00390625 43.337890625 511.00390625 46.0048828125 c 0
 513.00390625 48.0048828125 515.00390625 50.671875 517.00390625 54.0048828125 c 0
 519.670898438 57.337890625 521.670898438 59.6708984375 523.00390625 61.00390625 c 2
 529.00390625 64.00390625 l 2
 531.670898438 66.00390625 535.337890625 66.00390625 540.004882812 64.00390625 c 0
 547.337890625 61.3369140625 552.337890625 57.00390625 555.004882812 51.00390625 c 0
 556.337890625 48.3369140625 557.004882812 45.669921875 557.004882812 43.0029296875 c 0
 557.004882812 34.3359375 554.333007812 23 549 9 c 0xdf80
EndSplineSet
Validated: 524289
EndChar

StartChar: A
Encoding: 65 65 34
Width: 700
GlyphClass: 2
Flags: HMW
HStem: 271 50.998
VStem: 102.999 72.001
LayerCount: 2
Fore
SplineSet
386.000976562 606.997070312 m 2
 358.66796875 561.6640625 319.66796875 466.331054688 269.000976562 320.998046875 c 2
 264.000976562 305.998046875 l 1
 278.000976562 307.998046875 l 2
 340.66796875 315.998046875 396.334960938 320.665039062 445.001953125 321.998046875 c 2
 456.001953125 321.998046875 l 1
 398.001953125 626.998046875 l 1
 386.000976562 606.997070312 l 2
518 53.9990234375 m 0
 510 74.666015625 493 147 467 271 c 0
 465 277.666992188 462.666992188 277.666992188 460 271 c 1
 380.666992188 267 307.666992188 259.33203125 241 247.999023438 c 1
 219 189.33203125 197 124.333007812 175 53 c 0
 169.666992188 35 162 23.330078125 152 17.9970703125 c 0
 146.666992188 15.330078125 141.666992188 13.9970703125 137 13.9970703125 c 0
 132.333007812 13.9970703125 127.666015625 14.9970703125 122.999023438 16.9970703125 c 0
 109.666015625 22.330078125 102.999023438 34.3330078125 102.999023438 53 c 0
 102.999023438 61 104.33203125 70.3330078125 106.999023438 81 c 0
 111.666015625 104.333007812 131.666015625 158.666015625 166.999023438 243.999023438 c 1
 164.33203125 251.999023438 161.999023438 253.33203125 159.999023438 247.999023438 c 1
 151.33203125 253.999023438 146.999023438 260.999023438 146.999023438 268.999023438 c 2
 146.999023438 269.999023438 l 2
 146.33203125 275.999023438 149.33203125 281.999023438 155.999023438 287.999023438 c 0
 164.666015625 295.33203125 175.333007812 300.999023438 188 304.999023438 c 1
 189.333007812 311.666015625 190.666015625 311.998046875 191.999023438 305.998046875 c 1
 270.666015625 499.331054688 330.333007812 627.665039062 371 690.998046875 c 0
 379.666992188 703.665039062 386.833984375 712.498046875 392.500976562 717.498046875 c 0
 398.16796875 722.498046875 404.334960938 724.998046875 411.001953125 724.998046875 c 2
 412.001953125 724.998046875 l 1
 418.001953125 724.998046875 l 2
 425.334960938 724.998046875 432.334960938 722.998046875 439.001953125 718.998046875 c 0
 445.668945312 714.998046875 450.001953125 706.998046875 452.001953125 694.998046875 c 0
 465.334960938 612.331054688 488.334960938 494.998046875 521.001953125 342.998046875 c 0
 553.668945312 190.331054688 576.668945312 102.331054688 590.001953125 78.998046875 c 0
 595.334960938 69.6650390625 598.001953125 61.33203125 598.001953125 53.9990234375 c 0
 597.334960938 53.33203125 597.001953125 52.33203125 597.001953125 50.9990234375 c 0
 596.334960938 42.33203125 593.834960938 35.1650390625 589.501953125 29.498046875 c 0
 585.168945312 23.8310546875 580.001953125 19.6640625 574.001953125 16.9970703125 c 0
 569.334960938 14.9970703125 564.66796875 13.9970703125 560.000976562 13.9970703125 c 0
 554.66796875 13.9970703125 549.334960938 15.330078125 544.001953125 17.9970703125 c 0
 533.334960938 23.330078125 524.666992188 35.33203125 518 53.9990234375 c 0
EndSplineSet
Validated: 524289
EndChar

StartChar: B
Encoding: 66 66 35
Width: 700
GlyphClass: 2
Flags: HMW
HStem: -20.3672 79.3672 307 51.999 640.002 49.998
VStem: 126.998 77.7998 130.998 82.999 461.998 72.001 496 79.998
LayerCount: 2
Fore
SplineSet
447.995117188 260.001953125 m 0xea
 433.995117188 269.334960938 414.828125 278.16796875 390.495117188 286.500976562 c 0
 366.162109375 294.833984375 338.329101562 301.666992188 306.99609375 307 c 1
 305.99609375 307 l 2
 260.663085938 307 227.330078125 306.666992188 205.997070312 306 c 1
 209.330078125 192 211.997070312 109 213.997070312 57 c 1
 227.330078125 58.3330078125 241.997070312 59 257.997070312 59 c 0
 273.997070312 59.6669921875 285.997070312 60 293.997070312 60 c 0
 322.6640625 61.3330078125 349.831054688 66.666015625 375.498046875 75.9990234375 c 0
 401.165039062 85.33203125 422.33203125 96.9990234375 438.999023438 110.999023438 c 0
 455.666015625 124.33203125 469.333007812 138.83203125 480 154.499023438 c 0
 490.666992188 170.166015625 496 184.999023438 496 198.999023438 c 0
 496 219.666015625 479.995117188 240.001953125 447.995117188 260.001953125 c 0xea
216.998046875 626.999023438 m 2
 209.998046875 624.999023438 l 1
 209.998046875 607.666015625 209.331054688 584.999023438 207.998046875 556.999023438 c 0
 205.864257812 503.668945312 204.797851562 451.40625 204.797851562 400.209960938 c 0
 204.797851562 387.40625 204.864257812 374.668945312 204.998046875 361.999023438 c 1
 240.998046875 359.999023438 271.998046875 358.999023438 297.998046875 358.999023438 c 0
 317.331054688 358.999023438 334.831054688 360.83203125 350.498046875 364.499023438 c 0
 366.165039062 368.166015625 379.665039062 372.833007812 390.998046875 378.5 c 0
 402.331054688 384.166992188 412.331054688 391.166992188 420.998046875 399.5 c 0
 429.665039062 407.833007812 436.331054688 416.333007812 440.998046875 425 c 0
 445.665039062 433.666992188 449.666015625 443 452.999023438 453 c 0
 456.33203125 463 458.665039062 472.333007812 459.998046875 481 c 0
 461.331054688 489.666992188 461.998046875 498.333984375 461.998046875 507.000976562 c 0xf4
 461.331054688 525.66796875 457.6640625 543.000976562 450.997070312 559.000976562 c 0
 444.330078125 575.000976562 435.663085938 587.833984375 424.99609375 597.500976562 c 0
 414.329101562 607.16796875 402.662109375 615.334960938 389.995117188 622.001953125 c 0
 367.328125 634.001953125 343.328125 640.001953125 317.995117188 640.001953125 c 0
 283.995117188 640.001953125 250.331054688 635.666015625 216.998046875 626.999023438 c 2
557.5 130 m 0
 545.166992188 106.666992188 527.1640625 84.833984375 503.497070312 64.5009765625 c 0
 479.830078125 44.16796875 450.665039062 27.0009765625 415.998046875 13.0009765625 c 0
 381.998046875 -0.9990234375 344.331054688 -9.9990234375 302.998046875 -13.9990234375 c 1
 283.314453125 -20.3671875 l 2
 278.54296875 -20.3671875 273.771484375 -19.244140625 269 -16.9990234375 c 2
 250.47265625 -23.3671875 l 2
 245.981445312 -23.3671875 241.490234375 -22.244140625 236.999023438 -19.9990234375 c 0
 216.999023438 -21.9990234375 201.33203125 -22.9990234375 189.999023438 -22.9990234375 c 0
 182.666015625 -22.9990234375 175.666015625 -22.33203125 168.999023438 -20.9990234375 c 2
 164.999023438 -20.9990234375 l 2
 154.33203125 -21.666015625 145.665039062 -18.3330078125 138.998046875 -11 c 0
 133.665039062 -5 130.998046875 3.3330078125 130.998046875 14 c 2
 130.998046875 19 l 2xea
 132.331054688 39.6669921875 132.998046875 74.333984375 132.998046875 123.000976562 c 0
 132.998046875 213.66796875 130.998046875 314.000976562 126.998046875 424.000976562 c 0
 125.665039062 468.66796875 124.998046875 498.500976562 124.998046875 513.500976562 c 0
 124.998046875 528.500976562 125.665039062 549.000976562 126.998046875 575.000976562 c 0
 128.331054688 601.000976562 128.998046875 619.000976562 128.998046875 629.000976562 c 0
 129.665039062 644.333984375 133.83203125 655.666992188 141.499023438 663 c 0
 149.166015625 670.333007812 158.33203125 674 168.999023438 674 c 2
 173 674 l 1
 174 674 l 2
 185.333007812 677.333007812 196.665039062 680 207.998046875 682 c 0
 229.998046875 686 249.999023438 688.333007812 267.999023438 689 c 0
 277.999023438 689.666992188 285.666015625 690 290.999023438 690 c 2
 309.999023438 690 l 1
 319.999023438 690 l 2
 359.999023438 690 395.33203125 682 425.999023438 666 c 0
 457.999023438 650 483.999023438 626.833007812 503.999023438 596.5 c 0
 523.999023438 566.166992188 533.999023438 530 533.999023438 488 c 0xf4
 533.999023438 452.666992188 525.666015625 422.333984375 508.999023438 397.000976562 c 0
 492.33203125 371.66796875 469.665039062 353.000976562 440.998046875 341.000976562 c 1
 432.998046875 331.000976562 425.331054688 327.66796875 417.998046875 331.000976562 c 1
 425.998046875 321.000976562 433.665039062 318.000976562 440.998046875 322.000976562 c 1
 461.665039062 314.66796875 482.498046875 304.16796875 503.498046875 290.500976562 c 0
 524.498046875 276.833984375 541.831054688 261.666992188 555.498046875 245 c 0
 569.165039062 228.333007812 575.998046875 213.666015625 575.998046875 200.999023438 c 2
 575.998046875 198.999023438 l 2xe2
 575.998046875 176.33203125 569.833007812 153.333007812 557.5 130 c 0
EndSplineSet
Validated: 524289
EndChar

StartChar: C
Encoding: 67 67 36
Width: 700
GlyphClass: 2
Flags: HMW
HStem: -30.999 72.001 650.002 62.999
VStem: 111.999 80.999 505 83.001
LayerCount: 2
Fore
SplineSet
575 553.5 m 0
 566.333007812 541.166992188 558 534.333984375 550 533.000976562 c 2
 544 533.000976562 l 2
 536 533.000976562 527.666992188 535.66796875 519 541.000976562 c 0
 509.666992188 547.66796875 505 556.334960938 505 567.001953125 c 0
 505 572.334960938 505.666992188 588.334960938 507 615.001953125 c 1
 491.666992188 625.668945312 482.666992188 632.001953125 480 634.001953125 c 0
 477.333007812 636.001953125 473.333007812 638.334960938 468 641.001953125 c 0
 458 647.001953125 447.666992188 650.001953125 437 650.001953125 c 0
 416.333007812 650.001953125 394.5 642.668945312 371.5 628.001953125 c 0
 348.5 613.334960938 326.666992188 593.001953125 306 567.001953125 c 0
 285.333007812 541.001953125 266.666015625 511.334960938 249.999023438 478.001953125 c 0
 233.33203125 444.001953125 219.665039062 406.001953125 208.998046875 364.001953125 c 0
 198.331054688 322.001953125 192.998046875 279.668945312 192.998046875 237.001953125 c 0
 192.998046875 205.001953125 198.998046875 174.168945312 210.998046875 144.501953125 c 0
 222.998046875 114.834960938 239.665039062 90.001953125 260.998046875 70.001953125 c 0
 281.665039062 50.6689453125 304.665039062 41.001953125 329.998046875 41.001953125 c 0
 350.665039062 41.001953125 370.665039062 43.3349609375 389.998046875 48.001953125 c 0
 409.331054688 52.6689453125 426.831054688 58.8359375 442.498046875 66.5029296875 c 0
 458.165039062 74.169921875 471.998046875 81.669921875 483.998046875 89.0029296875 c 0
 495.331054688 96.3359375 506.331054688 104.3359375 516.998046875 113.002929688 c 0
 524.998046875 118.3359375 531.831054688 122.3359375 537.498046875 125.002929688 c 0
 543.165039062 127.669921875 548.998046875 129.002929688 554.998046875 129.002929688 c 0
 560.331054688 129.002929688 565.331054688 127.3359375 569.998046875 124.002929688 c 0
 578.665039062 117.3359375 582.998046875 109.668945312 582.998046875 101.001953125 c 0
 582.998046875 90.3349609375 576.665039062 77.66796875 563.998046875 63.0009765625 c 0
 509.998046875 0.333984375 430.998046875 -30.9990234375 326.998046875 -30.9990234375 c 2
 318.998046875 -30.9990234375 l 2
 294.998046875 -30.9990234375 272.331054688 -26.666015625 250.998046875 -17.9990234375 c 0
 228.998046875 -8.666015625 209.665039062 3.6669921875 192.998046875 19 c 0
 176.331054688 34.3330078125 161.831054688 52 149.498046875 72 c 0
 137.165039062 92 127.83203125 113.333007812 121.499023438 136 c 0
 115.166015625 158.666992188 111.999023438 181.333984375 111.999023438 204.000976562 c 0
 111.999023438 252.66796875 116.999023438 300.16796875 126.999023438 346.500976562 c 0
 136.999023438 392.833984375 150.33203125 434.333984375 166.999023438 471.000976562 c 0
 183.666015625 507.66796875 203.333007812 541.334960938 226 572.001953125 c 0
 246.666992188 603.334960938 268.5 629.16796875 291.5 649.500976562 c 0
 314.5 669.833984375 337.833007812 685.500976562 361.5 696.500976562 c 0
 385.166992188 707.500976562 408 713.000976562 430 713.000976562 c 0
 452 713.000976562 472.666992188 710.333984375 492 705.000976562 c 1
 494.666992188 710.333984375 497.666992188 709.333984375 501 702.000976562 c 1
 502.333007812 712.000976562 503.333007812 715.333984375 504 712.000976562 c 1
 506 720.000976562 510 726.66796875 516 732.000976562 c 0
 522 736.66796875 528.666992188 739.334960938 536 740.001953125 c 0
 539.333007812 740.668945312 541.333007812 741.001953125 542 741.001953125 c 0
 548.666992188 741.001953125 555.666992188 738.668945312 563 734.001953125 c 0
 571.666992188 728.668945312 577.333984375 720.3359375 580.000976562 709.002929688 c 0
 585.333984375 683.669921875 588.000976562 656.668945312 588.000976562 628.001953125 c 2
 588.000976562 591.002929688 l 2
 588.000976562 578.3359375 583.666992188 565.833007812 575 553.5 c 0
EndSplineSet
Validated: 524289
EndChar

StartChar: D
Encoding: 68 68 37
Width: 700
GlyphClass: 2
Flags: HMW
HStem: -31 75.999 675 20G<147.332 163.665>
VStem: 109.999 77.7113 514.001 76.9953
LayerCount: 2
Fore
SplineSet
364.99609375 551 m 0
 330.99609375 574.333007812 281.99609375 598.666015625 217.99609375 623.999023438 c 1
 216.99609375 624.999023438 l 1
 215.99609375 624.999023438 l 1
 214.99609375 625.999023438 l 1
 213.99609375 625.999023438 l 1
 212.99609375 625.999023438 l 1
 212.99609375 626.999023438 l 1
 211.99609375 626.999023438 l 1
 210.99609375 626.999023438 l 1
 209.99609375 626.999023438 l 1
 209.99609375 627.999023438 l 1
 208.99609375 627.999023438 l 1
 207.99609375 627.999023438 l 1
 206.99609375 627.999023438 l 1
 206.99609375 628.999023438 l 1
 205.99609375 628.999023438 l 1
 204.99609375 628.999023438 l 1
 203.994140625 629.999023438 l 1
 202.99609375 629.999023438 l 1
 189.99609375 643.999023438 l 1
 188.99609375 620.999023438 l 2
 188.138671875 583.283203125 187.709960938 546.118164062 187.709960938 509.50390625 c 0
 187.709960938 460.689453125 188.471679688 412.854492188 189.99609375 365.999023438 c 0
 191.329101562 324.666015625 192.662109375 275.166015625 193.995117188 217.499023438 c 0
 195.328125 159.83203125 196.661132812 114.33203125 197.994140625 80.9990234375 c 1
 203.994140625 78.9990234375 l 2
 231.327148438 66.33203125 258.994140625 57.4990234375 286.994140625 52.4990234375 c 0
 314.994140625 47.4990234375 346.994140625 44.9990234375 382.994140625 44.9990234375 c 0
 402.327148438 44.9990234375 420.327148438 51.83203125 436.994140625 65.4990234375 c 0
 453.661132812 79.166015625 467.328125 96.3330078125 477.995117188 117 c 0
 489.328125 137.666992188 498.161132812 160.166992188 504.494140625 184.5 c 0
 513.956054688 220.85546875 514.000976562 247.245117188 514.000976562 258.552734375 c 0
 514.000976562 385.967773438 464.333984375 483.450195312 364.99609375 551 c 0
582 152.5 m 0
 576 128.833007812 566.666992188 106 554 84 c 0
 541.333007812 62 526.666015625 42.5 509.999023438 25.5 c 0
 493.33203125 8.5 473.999023438 -5.3330078125 451.999023438 -16 c 0
 430.666015625 -26 407.999023438 -31 383.999023438 -31 c 2
 374.999023438 -31 l 2
 347.666015625 -31 320.166015625 -29.6669921875 292.499023438 -27 c 0
 264.83203125 -24.3330078125 242.33203125 -21 224.999023438 -17 c 0
 206.999023438 -12.3330078125 190.83203125 -8.3330078125 176.499023438 -5 c 0
 162.166015625 -1.6669921875 153.333007812 0 150 0 c 0
 139.333007812 0 130.666015625 3.3330078125 123.999023438 10 c 0
 117.999023438 16 114.999023438 24.3330078125 114.999023438 35 c 2
 114.999023438 41 l 2
 116.999023438 65 117.999023438 102.333007812 117.999023438 153 c 0
 117.33203125 243.666992188 114.999023438 351.666992188 110.999023438 477 c 0
 110.33203125 514.333007812 109.999023438 538.833007812 109.999023438 550.5 c 0
 109.999023438 562.166992188 110.499023438 580.333984375 111.499023438 605.000976562 c 0
 112.499023438 629.66796875 112.999023438 644.66796875 112.999023438 650.000976562 c 0
 113.666015625 665.333984375 117.666015625 676.666992188 124.999023438 684 c 0
 132.33203125 691.333007812 141.665039062 695 152.998046875 695 c 0
 174.331054688 695 201.6640625 691.666992188 234.997070312 685 c 0
 254.330078125 681 273.997070312 675.5 293.997070312 668.5 c 0
 313.997070312 661.5 335.6640625 651.833007812 358.997070312 639.5 c 0
 382.330078125 627.166992188 404.330078125 612.666992188 424.997070312 596 c 0
 445.6640625 579.333007812 465.997070312 559 485.997070312 535 c 0
 507.330078125 511 525.663085938 484.5 540.99609375 455.5 c 0
 556.329101562 426.5 568.49609375 391.833007812 577.49609375 351.5 c 0
 586.49609375 311.166992188 590.99609375 267.666992188 590.99609375 221 c 0
 590.99609375 199 588 176.166992188 582 152.5 c 0
EndSplineSet
Validated: 524289
EndChar

StartChar: E
Encoding: 69 69 38
Width: 700
GlyphClass: 2
Flags: HMW
HStem: -20 68.0039<231.666 292.338> -6 71.0039<518.333 550.338 526 550.338> 312.004 65.998 332.004 61.999 615.002 63.999
VStem: 123.999 76.0039
LayerCount: 2
Fore
SplineSet
539 -6 m 2x4c
 526 -6 l 2x4c
 510.666992188 -6 485.666992188 -7 451 -9 c 0
 350.333007812 -16.3330078125 280.666015625 -20 241.999023438 -20 c 0
 221.33203125 -20 203.999023438 -19.3330078125 189.999023438 -18 c 0
 176.666015625 -17.3330078125 163.166015625 -10.666015625 149.499023438 2.0009765625 c 0
 135.83203125 14.66796875 127.999023438 30.00390625 125.999023438 48.00390625 c 0
 123.999023438 64.00390625 122.999023438 91.333984375 122.999023438 130.000976562 c 0
 122.999023438 168.66796875 123.33203125 210.66796875 123.999023438 256.000976562 c 2
 123.999023438 343.500976562 l 2
 123.999023438 370.500976562 123.33203125 408.000976562 121.999023438 456.000976562 c 0
 121.33203125 496.000976562 120.999023438 522.333984375 120.999023438 535.000976562 c 0
 120.999023438 547.66796875 121.499023438 566.500976562 122.499023438 591.500976562 c 0
 123.499023438 616.500976562 123.999023438 632.333984375 123.999023438 639.000976562 c 0
 124.666015625 654.333984375 128.833007812 665.833984375 136.5 673.500976562 c 0
 144.166992188 681.16796875 153.333984375 685.000976562 164.000976562 685.000976562 c 1
 164.66796875 678.333984375 165.66796875 678.333984375 167.000976562 685.000976562 c 1
 179.66796875 684.333984375 189.334960938 679.666992188 196.001953125 671 c 0
 197.334960938 663.666992188 198.669921875 662.333984375 200.002929688 667.000976562 c 1
 202.002929688 661.000976562 204.000976562 661.333984375 206.000976562 668.000976562 c 1
 256.66796875 675.333984375 320.334960938 679.000976562 397.001953125 679.000976562 c 0
 418.334960938 679.000976562 437.334960938 678.66796875 454.001953125 678.000976562 c 0
 492.668945312 676.000976562 523.3359375 673.666992188 546.002929688 671 c 0
 560.002929688 669.666992188 569.169921875 666.834960938 573.502929688 662.501953125 c 0
 577.8359375 658.168945312 580.002929688 652.001953125 580.002929688 644.001953125 c 0
 580.002929688 626.668945312 575.3359375 616.001953125 566.002929688 612.001953125 c 0
 562.002929688 610.001953125 558.502929688 609.168945312 555.502929688 609.501953125 c 0
 552.502929688 609.834960938 550.002929688 610.001953125 548.002929688 610.001953125 c 0
 501.3359375 613.334960938 456.002929688 615.001953125 412.002929688 615.001953125 c 0
 396.669921875 615.001953125 381.336914062 614.668945312 366.00390625 614.001953125 c 0
 308.00390625 612.668945312 257.00390625 608.668945312 213.00390625 602.001953125 c 1
 210.336914062 595.334960938 207.669921875 595.001953125 205.002929688 601.001953125 c 1
 201.669921875 525.668945312 200.002929688 454.668945312 200.002929688 388.001953125 c 2
 200.002929688 378.001953125 l 1xac
 253.3359375 378.668945312 318.668945312 381.3359375 396.001953125 386.002929688 c 0
 476.001953125 391.3359375 521.001953125 394.002929688 531.001953125 394.002929688 c 0
 543.668945312 394.002929688 552.3359375 391.502929688 557.002929688 386.502929688 c 0
 561.669921875 381.502929688 564.002929688 374.669921875 564.002929688 366.002929688 c 0
 564.002929688 354.669921875 562.002929688 346.336914062 558.002929688 341.00390625 c 0
 552.669921875 335.00390625 543.836914062 332.00390625 531.50390625 332.00390625 c 0x1c
 519.170898438 332.00390625 470.00390625 328.670898438 384.00390625 322.00390625 c 0
 300.00390625 315.336914062 242.00390625 312.00390625 210.00390625 312.00390625 c 1
 207.336914062 304.670898438 204.336914062 304.337890625 201.00390625 311.004882812 c 1
 201.00390625 284.337890625 201.336914062 247.670898438 202.00390625 201.00390625 c 0
 202.00390625 172.336914062 202.336914062 149.00390625 203.00390625 131.00390625 c 0
 204.336914062 93.00390625 207.00390625 68.6708984375 211.00390625 58.00390625 c 0
 211.670898438 50.00390625 212.336914062 48.6708984375 213.00390625 54.00390625 c 1
 215.00390625 47.3369140625 216.671875 47.00390625 218.004882812 53.00390625 c 1
 228.671875 49.6708984375 249.671875 48.00390625 281.004882812 48.00390625 c 0xac
 303.671875 48.00390625 332.00390625 48.6708984375 366.00390625 50.00390625 c 0
 447.336914062 54.00390625 500.666992188 58.3369140625 526 63.00390625 c 0
 534.666992188 64.3369140625 541.837890625 65.00390625 547.504882812 65.00390625 c 0x4c
 553.171875 65.00390625 558.004882812 64.00390625 562.004882812 62.00390625 c 0
 566.004882812 60.00390625 569.004882812 58.00390625 571.004882812 56.00390625 c 0
 573.004882812 54.00390625 574.671875 51.3369140625 576.004882812 48.00390625 c 0x8c
 577.337890625 44.6708984375 578.337890625 41.837890625 579.004882812 39.5048828125 c 0
 579.671875 37.171875 580.002929688 34.3388671875 580.002929688 31.005859375 c 0
 580.669921875 20.3388671875 577.338867188 11.005859375 570.005859375 3.005859375 c 0
 564.672851562 -3.6611328125 556.33984375 -6.994140625 545.006835938 -6.994140625 c 0
 543.006835938 -6.3271484375 541 -6 539 -6 c 2x4c
EndSplineSet
Validated: 524289
EndChar

StartChar: F
Encoding: 70 70 39
Width: 700
GlyphClass: 2
Flags: HMW
HStem: 310.003 62 323.003 64.999 619.002 67.998 675.001 20G
VStem: 121.995 77.8028 125.995 84.001
LayerCount: 2
Fore
SplineSet
547 682 m 0x28
 560.333007812 680.666992188 569 677.833007812 573 673.5 c 0
 577 669.166992188 579.333007812 662.666992188 580 654 c 0
 580 644.666992188 577 636.333984375 571 629.000976562 c 0
 566.333007812 622.333984375 557.666015625 619.000976562 544.999023438 619.000976562 c 2
 543.999023438 619.000976562 l 2
 507.33203125 621.000976562 470.33203125 622.000976562 432.999023438 622.000976562 c 0
 364.33203125 622.000976562 288.33203125 618.333984375 204.999023438 611.000976562 c 1
 204.33203125 594.333984375 203.665039062 573.333984375 202.998046875 548.000976562 c 0
 200.864257812 502.670898438 199.797851562 458.194335938 199.797851562 414.571289062 c 0
 199.797851562 403.661132812 199.864257812 392.8046875 199.998046875 382.001953125 c 0
 203.998046875 376.001953125 207.665039062 376.334960938 210.998046875 383.001953125 c 1
 238.331054688 386.334960938 267.6640625 388.001953125 298.997070312 388.001953125 c 2
 320.997070312 388.001953125 l 2x68
 360.997070312 386.668945312 396.997070312 384.668945312 428.997070312 382.001953125 c 0
 461.6640625 378.668945312 488.331054688 375.3359375 508.998046875 372.002929688 c 0
 523.665039062 369.3359375 532.998046875 366.002929688 536.998046875 362.002929688 c 0
 540.998046875 358.002929688 543.331054688 352.002929688 543.998046875 344.002929688 c 0
 543.998046875 334.002929688 541.665039062 325.3359375 536.998046875 318.002929688 c 0
 534.331054688 312.669921875 527.6640625 310.002929688 516.997070312 310.002929688 c 2
 511.997070312 310.002929688 l 2x88
 491.330078125 313.3359375 462.997070312 316.3359375 426.997070312 319.002929688 c 0
 392.997070312 321.669921875 354.6640625 323.002929688 311.997070312 323.002929688 c 0
 271.330078125 322.3359375 236.997070312 320.002929688 208.997070312 316.002929688 c 1
 206.330078125 309.3359375 203.663085938 309.002929688 200.99609375 315.002929688 c 1
 203.663085938 208.3359375 206.663085938 108.3359375 209.99609375 15.0029296875 c 0
 208.663085938 3.669921875 203.49609375 -5.330078125 194.49609375 -11.9970703125 c 0
 185.49609375 -18.6640625 175.329101562 -21.9970703125 163.99609375 -21.9970703125 c 1
 163.329101562 -27.9970703125 162.329101562 -27.6640625 160.99609375 -20.9970703125 c 1
 150.329101562 -21.6640625 141.662109375 -18.3310546875 134.995117188 -10.998046875 c 0
 128.995117188 -4.998046875 125.995117188 3.3349609375 125.995117188 14.001953125 c 2
 125.995117188 19.001953125 l 2x44
 127.995117188 41.001953125 128.995117188 77.6689453125 128.995117188 129.001953125 c 0
 128.328125 223.668945312 125.995117188 329.001953125 121.995117188 445.001953125 c 0
 120.662109375 489.668945312 119.995117188 519.668945312 119.995117188 535.001953125 c 0
 119.995117188 550.334960938 120.662109375 570.834960938 121.995117188 596.501953125 c 0
 123.328125 622.168945312 123.995117188 640.001953125 123.995117188 650.001953125 c 0
 124.662109375 665.334960938 128.662109375 676.66796875 135.995117188 684.000976562 c 0
 143.328125 691.333984375 152.661132812 695.000976562 163.994140625 695.000976562 c 1
 165.994140625 688.333984375 167.661132812 688.333984375 168.994140625 695.000976562 c 1x58
 181.661132812 695.000976562 191.328125 690.66796875 197.995117188 682.000976562 c 1
 198.662109375 673.333984375 199.662109375 671.666992188 200.995117188 677 c 1
 280.995117188 683.666992188 355.995117188 687 425.995117188 687 c 0
 472.662109375 687 513 685.333007812 547 682 c 0x28
EndSplineSet
Validated: 524289
EndChar

StartChar: G
Encoding: 71 71 40
Width: 700
GlyphClass: 2
Flags: HMW
HStem: -31.002 72.002 248.5 74.501 285.998 64.5022 661 62.998
VStem: 111.003 79.998
LayerCount: 2
Fore
SplineSet
515 705 m 0xb8
 548.333007812 692.333007812 569.333007812 681.333007812 578 672 c 0
 586 664 590 654.666992188 590 644 c 0
 590.666992188 638 589.666992188 631.333007812 587 624 c 0
 585.666992188 618 581.333984375 613.666992188 574.000976562 611 c 0
 569.333984375 609.666992188 565.500976562 609 562.500976562 609 c 0
 559.500976562 609 555.333984375 609.666992188 550.000976562 611 c 0
 546.000976562 612.333007812 536.833984375 617.333007812 522.500976562 626 c 0
 508.16796875 634.666992188 493.000976562 642.666992188 477.000976562 650 c 0
 461.66796875 657.333007812 447.66796875 661 435.000976562 661 c 0
 414.333984375 661 392.500976562 653.5 369.500976562 638.5 c 0
 346.500976562 623.5 324.833984375 602.5 304.500976562 575.5 c 0
 284.16796875 548.5 265.66796875 518 249.000976562 484 c 0
 231.66796875 449.333007812 217.66796875 410.5 207.000976562 367.5 c 0
 196.333984375 324.5 191.000976562 281 191.000976562 237 c 0
 191.000976562 205 197.000976562 174.166992188 209.000976562 144.5 c 0
 221.000976562 114.833007812 237.66796875 90 259.000976562 70 c 0
 279.66796875 50.6669921875 302.66796875 41 328.000976562 41 c 0
 344.66796875 41 361.334960938 46.6669921875 378.001953125 58 c 0
 394.668945312 69.3330078125 409.501953125 83.666015625 422.501953125 100.999023438 c 0
 435.501953125 118.33203125 447.668945312 137.33203125 459.001953125 157.999023438 c 0
 470.334960938 178.666015625 480.001953125 198.999023438 488.001953125 218.999023438 c 0
 496.001953125 238.999023438 502.334960938 257.33203125 507.001953125 273.999023438 c 0
 508.334960938 276.666015625 509.66796875 280.999023438 511.000976562 286.999023438 c 1
 506.333984375 285.666015625 501.666992188 285.333007812 497 286 c 0
 457 284 418 280.166992188 380 274.5 c 0
 342 268.833007812 315.333007812 261.333007812 300 252 c 0
 296.666992188 250 293.333984375 248.833007812 290.000976562 248.5 c 0
 286.66796875 248.166992188 283.334960938 249.333984375 280.001953125 252.000976562 c 0
 272.668945312 257.333984375 268.3359375 264.333984375 267.002929688 273.000976562 c 2
 267.002929688 281.000976562 l 2
 267.002929688 298.333984375 277.3359375 312.333984375 298.002929688 323.000976562 c 0xd8
 314.002929688 332.333984375 350.3359375 339.666992188 407.002929688 345 c 0
 449.002929688 348.333007812 485.669921875 350 517.002929688 350 c 0
 523.002929688 350.333984375 528.669921875 350.500976562 534.002929688 350.500976562 c 0
 539.3359375 350.500976562 544.3359375 350.333984375 549.002929688 350 c 0
 563.669921875 348.666992188 573.336914062 346 578.00390625 342 c 0
 584.00390625 337.333007812 587.00390625 328.666015625 587.00390625 315.999023438 c 0
 587.00390625 309.33203125 585.836914062 303.665039062 583.50390625 298.998046875 c 0
 581.170898438 294.331054688 577.00390625 290.998046875 571.00390625 288.998046875 c 0
 569.00390625 286.331054688 567.00390625 285.331054688 565.00390625 285.998046875 c 1
 565.00390625 278.998046875 l 2
 565.00390625 276.998046875 564.50390625 271.665039062 563.50390625 262.998046875 c 0
 562.50390625 254.331054688 561.670898438 247.331054688 561.00390625 241.998046875 c 0
 559.670898438 227.998046875 555.670898438 211.831054688 549.00390625 193.498046875 c 0
 542.336914062 175.165039062 533.50390625 155.498046875 522.50390625 134.498046875 c 0
 511.50390625 113.498046875 498.336914062 92.998046875 483.00390625 72.998046875 c 0
 468.336914062 53.6650390625 452.669921875 35.998046875 436.002929688 19.998046875 c 0
 419.3359375 3.998046875 401.002929688 -8.6689453125 381.002929688 -18.001953125 c 0
 361.002929688 -26.6689453125 340.669921875 -31.001953125 320.002929688 -31.001953125 c 2
 318.002929688 -31.001953125 l 1
 317.002929688 -31.001953125 l 2
 293.002929688 -31.001953125 270.3359375 -26.6689453125 249.002929688 -18.001953125 c 0
 227.002929688 -8.6689453125 207.669921875 3.6640625 191.002929688 18.9970703125 c 0
 174.3359375 34.330078125 159.8359375 51.9970703125 147.502929688 71.9970703125 c 0
 135.169921875 91.9970703125 126.002929688 113.330078125 120.002929688 135.997070312 c 0
 114.002929688 158.6640625 111.002929688 181.331054688 111.002929688 203.998046875 c 0
 111.002929688 253.998046875 115.8359375 302.665039062 125.502929688 349.998046875 c 0
 135.169921875 397.331054688 148.336914062 439.831054688 165.00390625 477.498046875 c 0
 181.670898438 515.165039062 201.337890625 549.665039062 224.004882812 580.998046875 c 0
 244.671875 612.331054688 266.504882812 638.331054688 289.504882812 658.998046875 c 0
 312.504882812 679.665039062 336.004882812 695.665039062 360.004882812 706.998046875 c 0
 384.004882812 718.331054688 407.004882812 723.998046875 429.004882812 723.998046875 c 0
 453.004882812 723.998046875 481.666992188 717.666992188 515 705 c 0xb8
EndSplineSet
Validated: 524289
EndChar

StartChar: H
Encoding: 72 72 41
Width: 700
GlyphClass: 2
Flags: HMW
HStem: 311.994 66.002 674.994 20G
VStem: 138.502 79.499 480 83.001 489 80.001
LayerCount: 2
Fore
SplineSet
215.5 292 m 0xe8
 215.166992188 287.333007812 215 284 215 282 c 0
 213 248.666992188 212 209.833984375 212 165.500976562 c 0
 212 121.16796875 213 70.9951171875 215 14.9951171875 c 0
 213.666992188 3.662109375 208.333984375 -5.337890625 199.000976562 -12.0048828125 c 0
 189.66796875 -18.671875 179.334960938 -22.0048828125 168.001953125 -22.0048828125 c 1
 167.334960938 -28.0048828125 166.334960938 -27.671875 165.001953125 -21.0048828125 c 1
 155.001953125 -21.671875 146.668945312 -18.3388671875 140.001953125 -11.005859375 c 0
 134.001953125 -5.005859375 131.001953125 3 131.001953125 13 c 0
 131.668945312 15 132.001953125 16.994140625 132.001953125 18.994140625 c 0
 133.334960938 38.3271484375 134.001953125 81.3330078125 134.001953125 148 c 0
 134.001953125 182.666992188 134.334960938 214 135.001953125 242 c 2
 135.001953125 243 l 2
 135.001953125 265 135.501953125 297.166992188 136.501953125 339.5 c 0
 137.501953125 381.833007812 138.168945312 409.166015625 138.501953125 421.499023438 c 0
 138.834960938 433.83203125 139.001953125 446.165039062 139.001953125 458.498046875 c 0
 139.001953125 470.831054688 138.668945312 490.998046875 138.001953125 518.998046875 c 0
 137.334960938 546.998046875 137.001953125 565.498046875 137.001953125 574.498046875 c 0
 137.001953125 583.498046875 138.001953125 608.662109375 140.001953125 649.995117188 c 0
 140.668945312 665.328125 144.668945312 676.661132812 152.001953125 683.994140625 c 0
 159.334960938 691.327148438 168.66796875 694.994140625 180.000976562 694.994140625 c 2
 183.000976562 694.994140625 l 2
 193.66796875 694.994140625 202.66796875 691.827148438 210.000976562 685.494140625 c 0
 217.333984375 679.161132812 221.000976562 668.328125 221.000976562 652.995117188 c 0
 221.000976562 646.328125 220.16796875 632.1640625 218.500976562 610.497070312 c 0
 216.833984375 588.830078125 216 568.830078125 216 550.497070312 c 0
 216 532.1640625 216.333984375 505.1640625 217.000976562 469.497070312 c 0
 217.66796875 433.830078125 218.000976562 406.663085938 218.000976562 387.99609375 c 2
 218.000976562 377.99609375 l 2
 220.66796875 371.329101562 223.66796875 371.329101562 227.000976562 377.99609375 c 1
 280.333984375 379.329101562 344.333984375 385.662109375 419.000976562 396.995117188 c 0
 447.66796875 400.995117188 470.66796875 403.662109375 488.000976562 404.995117188 c 1
 488.000976562 413.995117188 l 2
 488.000976562 418.662109375 487.66796875 425.662109375 487.000976562 434.995117188 c 0
 486.333984375 444.328125 486.000976562 451.328125 486.000976562 455.995117188 c 0
 485.333984375 497.328125 485.000976562 524.495117188 485.000976562 537.495117188 c 0
 485.000976562 550.495117188 485.66796875 570.995117188 487.000976562 598.995117188 c 0
 488.333984375 626.995117188 489 643.995117188 489 649.995117188 c 0
 489 665.328125 492.833984375 676.661132812 500.500976562 683.994140625 c 0
 508.16796875 691.327148438 517.334960938 694.994140625 528.001953125 694.994140625 c 2
 531.001953125 694.994140625 l 2
 542.334960938 694.994140625 551.66796875 691.827148438 559.000976562 685.494140625 c 0
 566.333984375 679.161132812 570.000976562 668.328125 570.000976562 652.995117188 c 0
 570.000976562 640.328125 569.500976562 614.495117188 568.500976562 575.495117188 c 0
 567.500976562 536.495117188 567.000976562 501.995117188 567.000976562 471.995117188 c 0
 567.000976562 441.995117188 567.333984375 398.995117188 568.000976562 342.995117188 c 0
 568.66796875 327.662109375 569.000976562 305.995117188 569.000976562 277.995117188 c 0xe8
 569.000976562 249.995117188 568.000976562 206.495117188 566.000976562 147.495117188 c 0
 564.000976562 88.4951171875 563.000976562 46.9951171875 563.000976562 22.9951171875 c 2
 563.000976562 16.9951171875 l 1
 563.000976562 14.9951171875 l 2
 563.000976562 4.328125 557.66796875 -4.671875 547.000976562 -12.0048828125 c 0
 538.333984375 -18.671875 528.333984375 -22.0048828125 517.000976562 -22.0048828125 c 1
 516.333984375 -28.0048828125 515.333984375 -27.671875 514.000976562 -21.0048828125 c 1
 503.333984375 -21.671875 494.66796875 -18.3388671875 488.000976562 -11.005859375 c 0
 482.66796875 -5.005859375 480 3.3271484375 480 13.994140625 c 2
 480 18.994140625 l 1xf0
 486 103.661132812 489 197.661132812 489 300.994140625 c 2
 489 342.995117188 l 1
 485 336.328125 481.333007812 335.994140625 478 341.994140625 c 1
 466.666992188 341.327148438 428.666992188 335.994140625 364 325.994140625 c 0
 300 316.661132812 253.666992188 311.994140625 225 311.994140625 c 2
 216 311.994140625 l 1
 216 301.994140625 l 2
 216 299.994140625 215.833007812 296.666992188 215.5 292 c 0xe8
EndSplineSet
Validated: 524289
EndChar

StartChar: I
Encoding: 73 73 42
Width: 700
GlyphClass: 2
Flags: HMW
HStem: -6.40211 58.3992 612 69.001 624 64.001
VStem: 308.998 76.001 315.998 75.001
LayerCount: 2
Fore
SplineSet
312.999023438 540 m 2xc8
 312.999023438 546.666992188 313.665039062 560.001953125 314.998046875 580.001953125 c 0
 316.331054688 600.001953125 316.999023438 611.668945312 316.999023438 615.001953125 c 2
 316.999023438 624.001953125 l 1
 282.999023438 624.668945312 254.666015625 625.001953125 231.999023438 625.001953125 c 0
 207.33203125 625.001953125 190.33203125 624.834960938 180.999023438 624.501953125 c 0
 171.666015625 624.168945312 166.666015625 624.001953125 165.999023438 624.001953125 c 0
 152.666015625 624.001953125 142.833007812 626.834960938 136.5 632.501953125 c 0
 130.166992188 638.168945312 127 645.3359375 127 654.002929688 c 2
 127 657.002929688 l 2
 127 665.002929688 130 672.169921875 136 678.502929688 c 0
 142 684.8359375 152.333007812 688.002929688 167 688.002929688 c 0xa8
 222.333007812 690.002929688 271.997070312 691.002929688 315.997070312 691.002929688 c 0
 403.997070312 691.002929688 479.666015625 687.669921875 542.999023438 681.002929688 c 0
 554.33203125 679.669921875 563 677.002929688 569 673.002929688 c 0
 575.666992188 668.3359375 579.333984375 660.668945312 580.000976562 650.001953125 c 0
 580.000976562 640.001953125 577.000976562 630.668945312 571.000976562 622.001953125 c 0
 568.333984375 618.001953125 564.666992188 615.001953125 560 613.001953125 c 0
 556.666992188 611.668945312 553.666992188 611.001953125 551 611.001953125 c 0
 548.333007812 611.001953125 545.666015625 611.334960938 542.999023438 612.001953125 c 0
 522.33203125 615.334960938 471.665039062 619.001953125 390.998046875 623.001953125 c 1
 390.998046875 613.001953125 l 2
 390.998046875 607.668945312 390.665039062 590.168945312 389.998046875 560.501953125 c 0
 389.331054688 530.834960938 388.998046875 504.66796875 388.998046875 482.000976562 c 2
 388.998046875 436.000976562 l 2
 388.998046875 415.333984375 389.331054688 394.166992188 389.998046875 372.5 c 0
 390.665039062 350.833007812 390.998046875 326.166015625 390.998046875 298.499023438 c 0xc8
 390.998046875 270.83203125 389.998046875 227.999023438 387.998046875 169.999023438 c 0
 385.998046875 111.999023438 384.998046875 75.9990234375 384.998046875 61.9990234375 c 2
 384.998046875 51.9990234375 l 1
 393.998046875 51.9990234375 l 2
 417.998046875 51.9990234375 469.331054688 51.666015625 547.998046875 50.9990234375 c 0
 561.331054688 50.9990234375 570.1640625 48.4990234375 574.497070312 43.4990234375 c 0
 578.830078125 38.4990234375 581.330078125 31.666015625 581.997070312 22.9990234375 c 0
 581.997070312 17.666015625 581.497070312 12.9990234375 580.497070312 8.9990234375 c 0
 579.497070312 4.9990234375 577.6640625 0.9990234375 574.997070312 -3.0009765625 c 0
 573.6640625 -6.333984375 571.331054688 -8.5009765625 567.998046875 -9.5009765625 c 0
 564.665039062 -10.5009765625 561.498046875 -11.16796875 558.498046875 -11.5009765625 c 0
 555.498046875 -11.833984375 552.665039062 -11.6669921875 549.998046875 -11 c 0
 531.998046875 -8.3330078125 503.331054688 -7 463.998046875 -7 c 0
 459.331054688 -7 447.998046875 -6.8330078125 429.998046875 -6.5 c 0
 426.400390625 -6.43359375 422.549804688 -6.400390625 418.446289062 -6.400390625 c 0
 402.018554688 -6.400390625 381.536132812 -6.93359375 356.999023438 -8 c 2
 290.999023438 -15.2001953125 l 2
 276.33203125 -15.2001953125 261.665039062 -14.1337890625 246.998046875 -12.0009765625 c 0
 205.665039062 -13.333984375 177.165039062 -14.0009765625 161.498046875 -14.0009765625 c 0
 145.831054688 -14.0009765625 134.831054688 -11.5009765625 128.498046875 -6.5009765625 c 0
 122.165039062 -1.5009765625 118.998046875 4.9990234375 118.998046875 12.9990234375 c 2
 118.998046875 14.9990234375 l 2
 118.998046875 22.9990234375 121.998046875 30.166015625 127.998046875 36.4990234375 c 0
 133.998046875 42.83203125 144.331054688 46.33203125 158.998046875 46.9990234375 c 0
 186.998046875 47.666015625 236.998046875 48.998046875 308.998046875 50.998046875 c 1xd0
 313.665039062 133.665039062 315.998046875 215.999023438 315.998046875 297.999023438 c 0
 316.220703125 311.783203125 316.33203125 325.641601562 316.33203125 339.57421875 c 0
 316.33203125 367.418945312 315.887695312 395.560546875 314.999023438 423.998046875 c 0
 313.666015625 453.331054688 312.999023438 484.998046875 312.999023438 518.998046875 c 2
 312.999023438 540 l 2xc8
EndSplineSet
Validated: 524289
EndChar

StartChar: J
Encoding: 74 74 43
Width: 700
GlyphClass: 2
Flags: HMW
HStem: -34.999 82.001 626 65.001
VStem: 116.999 70 370.999 64.001
LayerCount: 2
Fore
SplineSet
255 626 m 0
 223.666992188 626 201.999023438 625.666015625 189.999023438 624.999023438 c 0
 177.999023438 624.33203125 171.666015625 623.999023438 170.999023438 623.999023438 c 0
 157.666015625 623.999023438 147.666015625 626.83203125 140.999023438 632.499023438 c 0
 134.33203125 638.166015625 130.999023438 645.333007812 130.999023438 654 c 2
 130.999023438 657 l 2
 130.999023438 665 134.166015625 672.166992188 140.499023438 678.5 c 0
 146.83203125 684.833007812 157.33203125 688 171.999023438 688 c 0
 226.666015625 690 275.999023438 691 319.999023438 691 c 0
 407.999023438 691 483.666015625 687.666992188 546.999023438 681 c 0
 558.33203125 680.333007812 566.999023438 677.666015625 572.999023438 672.999023438 c 0
 579.666015625 668.33203125 583.333007812 660.665039062 584 649.998046875 c 0
 584 639.998046875 581 630.665039062 575 621.998046875 c 0
 572.333007812 617.998046875 568.666015625 614.998046875 563.999023438 612.998046875 c 0
 561.33203125 611.665039062 558.499023438 610.998046875 555.499023438 610.998046875 c 0
 552.499023438 610.998046875 549.666015625 611.331054688 546.999023438 611.998046875 c 0
 526.999023438 615.331054688 488.33203125 618.331054688 430.999023438 620.998046875 c 1
 430.999023438 610.998046875 l 2
 430.999023438 591.665039062 431.666015625 562.33203125 432.999023438 522.999023438 c 0
 433.666015625 480.999023438 434.666015625 445.33203125 435.999023438 415.999023438 c 0
 437.33203125 387.999023438 437.999023438 353.83203125 437.999023438 313.499023438 c 0
 437.999023438 273.166015625 436.999023438 237.333007812 434.999023438 206 c 0
 430.33203125 146 423.165039062 98 413.498046875 62 c 0
 403.831054688 26 392.6640625 0.8330078125 379.997070312 -13.5 c 0
 367.330078125 -27.8330078125 352.330078125 -35 334.997070312 -35 c 0
 315.6640625 -35 296.331054688 -31.1669921875 276.998046875 -23.5 c 0
 257.665039062 -15.8330078125 240.665039062 -5.666015625 225.998046875 7.0009765625 c 0
 210.665039062 19.66796875 196.165039062 33.66796875 182.498046875 49.0009765625 c 0
 168.831054688 64.333984375 157.498046875 79.5009765625 148.498046875 94.5009765625 c 0
 139.498046875 109.500976562 132.331054688 123.000976562 126.998046875 135.000976562 c 0
 121.665039062 147.000976562 118.665039062 156.66796875 117.998046875 164.000976562 c 0
 117.331054688 167.333984375 116.998046875 171.000976562 116.998046875 175.000976562 c 0
 116.998046875 183.000976562 118.331054688 192.000976562 120.998046875 202.000976562 c 0
 122.331054688 208.66796875 125.498046875 214.16796875 130.498046875 218.500976562 c 0
 135.498046875 222.833984375 141.998046875 225.666992188 149.998046875 227 c 2
 157.998046875 227 l 2
 165.998046875 227.666992188 172.331054688 225.666992188 176.998046875 221 c 0
 183.665039062 214.333007812 186.998046875 206 186.998046875 196 c 0
 186.998046875 176.666992188 192.998046875 154.333984375 204.998046875 129.000976562 c 0
 211.665039062 115.000976562 220.33203125 102.000976562 230.999023438 90.0009765625 c 0
 240.33203125 78.0009765625 253.165039062 67.833984375 269.498046875 59.5009765625 c 0
 285.831054688 51.16796875 303.998046875 47.0009765625 323.998046875 47.0009765625 c 0
 338.665039062 47.0009765625 349.665039062 60.66796875 356.998046875 88.0009765625 c 0
 364.331054688 117.333984375 368.998046875 164.666992188 370.998046875 230 c 2
 370.998046875 254 l 2
 370.998046875 267.333007812 370.498046875 310 369.498046875 382 c 0
 368.8984375 425.202148438 368.598632812 471.404296875 368.598632812 520.606445312 c 0
 368.598632812 553.404296875 368.732421875 587.536132812 368.999023438 623.000976562 c 1
 322.999023438 625.000976562 285 626 255 626 c 0
EndSplineSet
Validated: 524289
EndChar

StartChar: K
Encoding: 75 75 44
Width: 700
GlyphClass: 2
Flags: HMW
HStem: -21.0341 21G 694.001 21G
VStem: 124 79.002 128.002 83
LayerCount: 2
Fore
SplineSet
122 541.5 m 0xe0
 122 556.5 122.66796875 578.333007812 124.000976562 607 c 0
 125.333984375 635 126.000976562 652.666992188 126.000976562 660 c 0
 126.66796875 678.666992188 130.66796875 692.333984375 138.000976562 701.000976562 c 0
 145.333984375 709.66796875 154.666992188 714.000976562 166 714.000976562 c 2
 169 714.000976562 l 2
 179.666992188 714.66796875 188.666992188 711.000976562 196 703.000976562 c 0
 203.333007812 695.66796875 207 682.334960938 207 663.001953125 c 0
 207 647.668945312 206.333007812 613.001953125 205 559.001953125 c 0
 203.666992188 505.001953125 202.666992188 452.334960938 202 401.001953125 c 1
 236 437.001953125 275.333007812 480.001953125 320 530.001953125 c 0
 409.333007812 625.334960938 462 680.001953125 478 694.001953125 c 0
 486 703.334960938 493.666992188 709.334960938 501 712.001953125 c 0
 505.666992188 714.001953125 509.666992188 715.001953125 513 715.001953125 c 0
 519.666992188 715.001953125 526 711.000976562 532 703.000976562 c 0
 537.333007812 694.333984375 540 685.334960938 540 676.001953125 c 0
 540 667.334960938 534 657.334960938 522 646.001953125 c 0
 512 634.001953125 478 597.668945312 420 537.001953125 c 0
 364.666992188 473.668945312 313.333984375 416.001953125 266.000976562 364.001953125 c 1
 272.000976562 357.001953125 l 2
 293.333984375 333.668945312 329.000976562 296.3359375 379.000976562 245.002929688 c 0
 479.66796875 142.3359375 540.000976562 79.3359375 560.000976562 56.0029296875 c 0
 568.66796875 46.0029296875 574.000976562 39.3359375 576.000976562 36.0029296875 c 0
 578.000976562 32.669921875 579.000976562 29.3369140625 579.000976562 26.00390625 c 0
 579.000976562 20.00390625 578.333984375 14.6708984375 577.000976562 10.00390625 c 0
 573.66796875 0.00390625 568.66796875 -7.6630859375 562.000976562 -12.99609375 c 0
 555.333984375 -18.3291015625 549.000976562 -20.9970703125 543.000976562 -20.9970703125 c 0
 542.60546875 -21.021484375 542.208984375 -21.0341796875 541.811523438 -21.0341796875 c 0
 531.4921875 -21.0341796875 520.555664062 -12.6875 509 4.0029296875 c 0
 501.666992188 13.3359375 478 36.3359375 438 73.0029296875 c 0
 400.666992188 110.3359375 360.333984375 151.3359375 317.000976562 196.002929688 c 0
 273.66796875 244.002929688 241.334960938 282.002929688 220.001953125 310.002929688 c 2
 203.001953125 331.002929688 l 1
 203.001953125 284.002929688 l 1xe0
 211.001953125 24.001953125 l 2
 210.334960938 9.3349609375 205.33203125 -1.9970703125 195.999023438 -9.9970703125 c 0
 186.666015625 -17.9970703125 176.3359375 -21.9970703125 165.002929688 -21.9970703125 c 1
 164.3359375 -27.9970703125 163.3359375 -27.6640625 162.002929688 -20.9970703125 c 1
 151.3359375 -21.6640625 142.668945312 -17.3310546875 136.001953125 -7.998046875 c 0
 130.668945312 0.001953125 128.001953125 10.6689453125 128.001953125 24.001953125 c 2
 128.001953125 28.001953125 l 2xd0
 130.001953125 50.001953125 131.001953125 86.6689453125 131.001953125 138.001953125 c 0
 130.334960938 233.334960938 128 339.001953125 124 455.001953125 c 0
 122.666992188 497.668945312 122 526.5 122 541.5 c 0xe0
EndSplineSet
Validated: 524289
EndChar

StartChar: L
Encoding: 76 76 45
Width: 700
GlyphClass: 2
Flags: HMW
HStem: -15 67.001
VStem: 151.998 72.0039
LayerCount: 2
Fore
SplineSet
568.5 72.5 m 0
 571.5 68.1669921875 574 63.5 576 58.5 c 0
 578 53.5 579 48.6669921875 579 44 c 0
 579 34 576.833007812 26.5 572.5 21.5 c 0
 568.166992188 16.5 558.666992188 12.6669921875 544 10 c 0
 499.333007812 1.3330078125 434.333007812 -5 349 -9 c 0
 263 -13 198.666992188 -15 156 -15 c 0
 146 -15.6669921875 137.666992188 -12.333984375 131 -5.0009765625 c 0
 125 0.9990234375 122 9.33203125 122 19.9990234375 c 0
 122 21.9990234375 122.166992188 24.9990234375 122.5 28.9990234375 c 0
 122.833007812 32.9990234375 126.666015625 69.9990234375 133.999023438 139.999023438 c 0
 141.33203125 211.33203125 146.665039062 279.999023438 149.998046875 345.999023438 c 0
 151.331054688 363.999023438 151.998046875 388.166015625 151.998046875 418.499023438 c 0
 151.998046875 448.83203125 151.831054688 471.83203125 151.498046875 487.499023438 c 0
 151.165039062 503.166015625 150.33203125 554.333007812 148.999023438 641 c 0
 149.666015625 657 153.833007812 668.666992188 161.5 676 c 0
 169.166992188 683.333007812 178.333984375 687 189.000976562 687 c 2
 192.000976562 687 l 2
 202.66796875 687 211.66796875 683.666992188 219.000976562 677 c 0
 226.333984375 670.333007812 230.000976562 659.666015625 230.000976562 644.999023438 c 0
 230.223632812 638.7734375 230.334960938 631.732421875 230.334960938 623.875976562 c 0
 230.334960938 608.174804688 229.890625 589.215820312 229.001953125 566.999023438 c 0
 227.001953125 517.666015625 225.334960938 475.333007812 224.001953125 440 c 0
 222.001953125 389.333007812 220.333984375 345.333007812 219.000976562 308 c 0
 218.333984375 280.666992188 216.001953125 240.333984375 212.001953125 187.000976562 c 0
 208.001953125 133.66796875 206.001953125 92.0009765625 206.001953125 62.0009765625 c 2
 206.001953125 52.0009765625 l 1
 230.000976562 52.0009765625 l 2
 279.333984375 52.66796875 336.66796875 56.3349609375 402.000976562 63.001953125 c 0
 470.000976562 69.6689453125 516.66796875 76.001953125 542.000976562 82.001953125 c 0
 544.66796875 82.6689453125 547.16796875 83.001953125 549.500976562 83.001953125 c 0
 551.833984375 83.001953125 554.333984375 82.6689453125 557.000976562 82.001953125 c 0
 561.66796875 80.001953125 565.5 76.8330078125 568.5 72.5 c 0
EndSplineSet
Validated: 524289
EndChar

StartChar: M
Encoding: 77 77 46
Width: 700
GlyphClass: 2
Flags: HMW
HStem: -10 21G<129 134.334> 684.001 20G
VStem: 100 68.001 306.001 85.999
LayerCount: 2
Fore
SplineSet
157 5 m 0
 149 -5 139.666992188 -10 129 -10 c 0
 109.666992188 -9.3330078125 100 13.333984375 100 58.0009765625 c 0
 100 66.0009765625 100.833007812 79.833984375 102.5 99.5009765625 c 0
 104.166992188 119.16796875 106.666992188 145.000976562 110 177.000976562 c 0
 113.333007812 209.000976562 116 237.000976562 118 261.000976562 c 0
 124 342.333984375 128 394.000976562 130 416.000976562 c 0
 132.666992188 444.66796875 136 480.000976562 140 522.000976562 c 0
 148 603.333984375 156.333007812 652.333984375 165 669.000976562 c 0
 171.666992188 681.000976562 181 690.000976562 193 696.000976562 c 0
 204.333007812 701.333984375 215 704.000976562 225 704.000976562 c 2
 229 704.000976562 l 2
 240.333007812 704.000976562 249.666015625 702.000976562 256.999023438 698.000976562 c 0
 265.666015625 692.66796875 271.333007812 684.334960938 274 673.001953125 c 0
 281.333007812 643.668945312 289.5 595.3359375 298.5 528.002929688 c 0
 307.5 460.669921875 316.666992188 383.502929688 326 296.502929688 c 0
 335.333007812 209.502929688 342.000976562 152.002929688 346.000976562 124.002929688 c 0
 348.66796875 106.669921875 351.666992188 84 355 56 c 1
 357 83.3330078125 358.666992188 106.002929688 360 124.002929688 c 0
 366 218.669921875 373 303.669921875 381 379.002929688 c 0
 387 434.3359375 394.833007812 489.668945312 404.5 545.001953125 c 0
 414.166992188 600.334960938 422.666992188 643.001953125 430 673.001953125 c 0
 432 681.001953125 436.5 687.668945312 443.5 693.001953125 c 0
 450.5 698.334960938 457.666992188 701.66796875 465 703.000976562 c 0
 470.333007812 703.66796875 475 704.000976562 479 704.000976562 c 2
 489 704.000976562 l 1
 493 704.000976562 l 1
 506 704.000976562 l 2
 509.333007812 704.000976562 513.833007812 703.333984375 519.5 702.000976562 c 0
 525.166992188 700.66796875 529.333984375 698.834960938 532.000976562 696.501953125 c 0
 534.66796875 694.168945312 537.500976562 690.668945312 540.500976562 686.001953125 c 0
 543.500976562 681.334960938 545.66796875 675.334960938 547.000976562 668.001953125 c 0
 549.66796875 647.334960938 557.500976562 547.501953125 570.500976562 368.501953125 c 0
 583.500976562 189.501953125 592.66796875 88.001953125 598.000976562 64.001953125 c 0
 600.000976562 53.3349609375 601.000976562 43.66796875 601.000976562 35.0009765625 c 0
 601.000976562 15.0009765625 594.000976562 1.66796875 580.000976562 -4.9990234375 c 0
 575.333984375 -6.9990234375 570.500976562 -7.9990234375 565.500976562 -7.9990234375 c 0
 560.500976562 -7.9990234375 555.000976562 -6.33203125 549.000976562 -2.9990234375 c 0
 539.000976562 2.333984375 531.000976562 14.333984375 525.000976562 33.0009765625 c 0
 511.000976562 77.0009765625 498.66796875 271.000976562 488.000976562 615.000976562 c 0
 487.333984375 631.66796875 486.666992188 653.000976562 486 679.000976562 c 1
 482 653.66796875 478 633.000976562 474 617.000976562 c 0
 455.333007812 520.333984375 443.333007812 432.333984375 438 353.000976562 c 0
 432.666992188 277.000976562 425.166992188 205.000976562 415.5 137.000976562 c 0
 405.833007812 69.0009765625 398 27.66796875 392 13.0009765625 c 0
 386.666992188 -0.33203125 371.333984375 -6.9990234375 346.000976562 -6.9990234375 c 2
 342.000976562 -6.9990234375 l 2
 332.66796875 -6.9990234375 324.66796875 -5.166015625 318.000976562 -1.4990234375 c 0
 311.333984375 2.16796875 307.333984375 7.3349609375 306.000976562 14.001953125 c 0
 298.66796875 46.001953125 286.334960938 119.168945312 269.001953125 233.501953125 c 0
 251.668945312 347.834960938 235.668945312 458.001953125 221.001953125 564.001953125 c 0
 217.668945312 579.334960938 214.668945312 599.66796875 212.001953125 625.000976562 c 1
 210.001953125 599.66796875 208.001953125 579.334960938 206.001953125 564.001953125 c 0
 201.334960938 505.334960938 197.66796875 457.66796875 195.000976562 421.000976562 c 0
 193.000976562 387.000976562 191.000976562 358.000976562 189.000976562 334.000976562 c 0
 187.000976562 300.66796875 185.000976562 271.66796875 183.000976562 247.000976562 c 0
 181.000976562 219.000976562 178.66796875 190.000976562 176.000976562 160.000976562 c 0
 174.000976562 131.333984375 172.000976562 107.666992188 170.000976562 89 c 0
 168.66796875 75 168.000976562 64 168.000976562 56 c 0
 168.66796875 48 169.000976562 46 169.000976562 46 c 2
 169.000976562 28.6669921875 165 15 157 5 c 0
EndSplineSet
Validated: 524289
EndChar

StartChar: N
Encoding: 78 78 47
Width: 700
GlyphClass: 2
Flags: HMW
HStem: -11.998 21G 685 20G<171.999 179.999 532 540.333>
VStem: 124 63 131.25 58.7499 504.001 72.999 514.501 62.4988
LayerCount: 2
Fore
SplineSet
537 705 m 0xc8
 543.666992188 705 548.999023438 704.333007812 552.999023438 703 c 0
 556.999023438 701 559.999023438 699 561.999023438 697 c 0
 563.999023438 695 565.666015625 690.666992188 566.999023438 684 c 0
 568.999023438 680 570.33203125 675.666992188 570.999023438 671 c 0
 571.666015625 666.333007812 572.666015625 659 573.999023438 649 c 0
 575.33203125 639.666992188 576.33203125 586.666992188 576.999023438 490 c 2
 576.999023438 448 l 2
 576.999023438 364 575.999023438 285.666992188 573.999023438 213 c 0
 571.999023438 139.666992188 569.666015625 89.6669921875 566.999023438 63 c 0
 564.33203125 35 561.665039062 17.6669921875 558.998046875 11 c 0
 553.665039062 -5.6669921875 538.33203125 -14 512.999023438 -14 c 1
 510.999023438 -20.6669921875 509.33203125 -20.6669921875 507.999023438 -14 c 1
 499.33203125 -14 491.999023438 -11.6669921875 485.999023438 -7 c 0
 479.999023438 -2.3330078125 475.666015625 4 472.999023438 12 c 0
 468.33203125 22.6669921875 452.999023438 52.333984375 426.999023438 101.000976562 c 2
 352.999023438 247.000976562 l 2
 327.666015625 295.66796875 301.333007812 350.334960938 274 411.001953125 c 0
 246 473.001953125 224.333007812 525.668945312 209 569.001953125 c 0
 201 592.334960938 193.333007812 613.334960938 186 632.001953125 c 1
 187.333007812 610.001953125 188.666015625 586.668945312 189.999023438 562.001953125 c 0
 193.33203125 504.668945312 194.999023438 450.001953125 194.999023438 398.001953125 c 0
 194.999023438 384.668945312 194.666015625 359.3359375 193.999023438 322.002929688 c 0
 193.33203125 284.002929688 191.999023438 237.669921875 189.999023438 183.002929688 c 0xd8
 187.999023438 128.3359375 186.999023438 90.6689453125 186.999023438 70.001953125 c 2
 186.999023438 62.001953125 l 2
 187.666015625 57.3349609375 187.999023438 53.3349609375 187.999023438 50.001953125 c 2
 187.999023438 44.001953125 l 2
 187.999023438 24.6689453125 184.666015625 10.6689453125 177.999023438 2.001953125 c 0
 171.33203125 -7.3310546875 162.999023438 -11.998046875 152.999023438 -11.998046875 c 2
 150.999023438 -11.998046875 l 2
 146.33203125 -11.998046875 142.33203125 -10.6650390625 138.999023438 -7.998046875 c 0
 135.666015625 -5.3310546875 132.999023438 -0.6640625 130.999023438 6.0029296875 c 0
 126.33203125 16.669921875 123.999023438 33.0029296875 123.999023438 55.0029296875 c 0xe0
 123.999023438 67.669921875 124.999023438 119.002929688 126.999023438 209.002929688 c 0
 128.999023438 299.669921875 130.33203125 378.669921875 130.999023438 446.002929688 c 0
 131.166015625 462.837890625 131.249023438 479.505859375 131.249023438 496.006835938 c 0
 131.249023438 545.504882812 130.499023438 593.50390625 128.999023438 640.002929688 c 2
 128.999023438 647.002929688 l 2
 129.666015625 657.002929688 131.333007812 666.002929688 134 674.002929688 c 0
 136.666992188 682.669921875 140.666992188 689.336914062 146 694.00390625 c 0
 155.333007812 701.336914062 165.999023438 705 177.999023438 705 c 0
 181.999023438 705 185.666992188 704.670898438 189 704.00390625 c 2
 189.999023438 704.00390625 l 2
 200.666015625 704.00390625 209.666992188 701.666992188 217 697 c 0
 225.666992188 691.666992188 231.666992188 682.00390625 235 668.00390625 c 0
 248.333007812 624.00390625 284.333007812 541.336914062 343 420.00390625 c 0
 401 299.336914062 451.333007812 202.00390625 494 128.00390625 c 0
 499.333007812 115.336914062 504.666015625 106.00390625 509.999023438 100.00390625 c 1
 510.666015625 110.00390625 511.333007812 122.336914062 512 137.00390625 c 0
 513.333007812 179.670898438 514 234.670898438 514 302.00390625 c 0
 514.333984375 318.670898438 514.500976562 336.170898438 514.500976562 354.50390625 c 0xd4
 514.500976562 372.836914062 514.333984375 392.00390625 514.000976562 412.00390625 c 0
 512.000976562 532.670898438 508.66796875 612.337890625 504.000976562 651.004882812 c 1
 504.000976562 657.004882812 l 2
 504.000976562 669.671875 506.66796875 680.338867188 512.000976562 689.005859375 c 0
 518.66796875 699.672851562 527 705 537 705 c 0xc8
EndSplineSet
Validated: 524289
EndChar

StartChar: O
Encoding: 79 79 48
Width: 700
GlyphClass: 2
Flags: HMW
HStem: -23.998 73.999 646.508 71.4923
VStem: 124.999 77.002 499 76.999
LayerCount: 2
Fore
SplineSet
454.999023438 120.001953125 m 0
 467.666015625 137.334960938 477.333007812 157.001953125 484 179.001953125 c 0
 486.666992188 187.668945312 489.5 208.001953125 492.5 240.001953125 c 0
 495.5 272.001953125 497.666992188 309.668945312 499 353.001953125 c 0
 499.666992188 365.668945312 500 378.3359375 500 391.002929688 c 0
 500 422.3359375 498.666992188 453.002929688 496 483.002929688 c 0
 492 529.002929688 477 567.669921875 451 599.002929688 c 0
 427 630.3359375 397.333007812 646.168945312 362 646.501953125 c 0
 361.594726562 646.505859375 361.189453125 646.5078125 360.78515625 646.5078125 c 0
 325.986328125 646.5078125 296.724609375 632.338867188 273 604.000976562 c 0
 249.666992188 576.000976562 232.333984375 537.66796875 221.000976562 489.000976562 c 0
 208.333984375 437.000976562 202.000976562 377.66796875 202.000976562 311.000976562 c 0
 202.66796875 269.66796875 205.000976562 233.334960938 209.000976562 202.001953125 c 0
 211.000976562 183.334960938 215.000976562 164.66796875 221.000976562 146.000976562 c 0
 227.000976562 127.333984375 234.333984375 111.000976562 243.000976562 97.0009765625 c 0
 251.000976562 83.0009765625 261.66796875 71.66796875 275.000976562 63.0009765625 c 0
 288.333984375 54.333984375 303.33203125 50.0009765625 319.999023438 50.0009765625 c 0
 355.33203125 50.0009765625 387.000976562 59.66796875 415.000976562 79.0009765625 c 0
 429.66796875 89.0009765625 442.999023438 102.668945312 454.999023438 120.001953125 c 0
124.999023438 261 m 2
 124.999023438 291.666992188 125.333007812 316.166992188 126 334.5 c 0
 126.666992188 352.833007812 128 377.333007812 130 408 c 0
 134 467.333007812 145 522 163 572 c 0
 179.666992188 614.666992188 208 649.666992188 248 677 c 0
 284.666992188 704.333007812 326.333984375 718 373.000976562 718 c 0
 396.333984375 718 418.666992188 713 440 703 c 0
 462 693 482.333007812 678.5 501 659.5 c 0
 519.666992188 640.5 535.166992188 616.166992188 547.5 586.5 c 0
 559.833007812 556.833007812 567.666015625 523.333007812 570.999023438 486 c 0
 574.33203125 444.666992188 575.999023438 402.333984375 575.999023438 359.000976562 c 0
 575.999023438 325.66796875 574.83203125 290.834960938 572.499023438 254.501953125 c 0
 570.166015625 218.168945312 565.999023438 188.668945312 559.999023438 166.001953125 c 0
 551.33203125 134.668945312 540.83203125 107.668945312 528.499023438 85.001953125 c 0
 516.166015625 62.3349609375 502.833007812 44.001953125 488.5 30.001953125 c 0
 474.166992188 16.001953125 457.666992188 5.001953125 439 -2.998046875 c 0
 421.666992188 -10.998046875 403.666992188 -16.6650390625 385 -19.998046875 c 0
 366.333007812 -22.6650390625 344.666015625 -23.998046875 319.999023438 -23.998046875 c 0
 284.666015625 -23.998046875 251.999023438 -11.998046875 221.999023438 12.001953125 c 0
 190.666015625 36.001953125 166.666015625 68.001953125 149.999023438 108.001953125 c 0
 133.33203125 148.001953125 124.999023438 191.334960938 124.999023438 238.001953125 c 2
 124.999023438 243.001953125 l 1
 124.999023438 261 l 2
EndSplineSet
Validated: 524289
EndChar

StartChar: P
Encoding: 80 80 49
Width: 700
GlyphClass: 2
Flags: HMW
HStem: -19 21G<181.001 187.001 187.001 190.001> 230 71.998 639.996 52.0029
VStem: 144.001 75 151.201 81.7989 494 73<470.999 514.997>
LayerCount: 2
Fore
SplineSet
222.000976562 630.998046875 m 1xf4
 219.000976562 547.998046875 l 2
 216.8671875 480.26953125 215.80078125 417.874023438 215.80078125 360.810546875 c 0
 215.80078125 346.5390625 215.8671875 332.6015625 216.000976562 318.998046875 c 1
 223.000976562 316.998046875 l 2
 250.333984375 306.998046875 281.000976562 301.998046875 315.000976562 301.998046875 c 0
 333.000976562 301.998046875 349.500976562 303.498046875 364.500976562 306.498046875 c 0
 379.500976562 309.498046875 392.66796875 313.498046875 404.000976562 318.498046875 c 0
 415.333984375 323.498046875 425.333984375 329.998046875 434.000976562 337.998046875 c 0
 443.333984375 345.998046875 451.333984375 354.165039062 458.000976562 362.498046875 c 0
 464.66796875 370.831054688 470.334960938 380.331054688 475.001953125 390.998046875 c 0
 479.668945312 401.665039062 483.168945312 411.498046875 485.501953125 420.498046875 c 0
 487.834960938 429.498046875 489.66796875 439.665039062 491.000976562 450.998046875 c 0
 492.333984375 462.331054688 493.166992188 471.6640625 493.5 478.997070312 c 0
 493.833007812 486.330078125 494 494.997070312 494 504.997070312 c 0
 494 524.997070312 490.333007812 543.1640625 483 559.497070312 c 0
 475.666992188 575.830078125 466.333007812 588.997070312 455 598.997070312 c 0
 444.333007812 608.330078125 432.500976562 616.163085938 419.500976562 622.49609375 c 0
 406.500976562 628.829101562 394.16796875 633.329101562 382.500976562 635.99609375 c 0
 370.833984375 638.663085938 359.333007812 639.99609375 348 639.99609375 c 0
 327.333007812 639.99609375 285.333984375 636.998046875 222.000976562 630.998046875 c 1xf4
143 626 m 1
 141.666992188 621.333007812 140 622.998046875 138 630.998046875 c 0
 135.333007812 635.665039062 134 640 134 644 c 0
 134.666992188 644.666992188 135 645.666992188 135 647 c 0
 135.666992188 653.666992188 138.166992188 659.5 142.5 664.5 c 0
 146.833007812 669.5 151.333007812 672.666992188 156 674 c 0
 179.333007812 679.333007812 214 683.666015625 260 686.999023438 c 0
 302 690.33203125 331.333007812 691.999023438 348 691.999023438 c 0
 388 691.999023438 423.666992188 684.33203125 455 668.999023438 c 0
 489 653.666015625 516 630.666015625 536 599.999023438 c 0
 556 569.33203125 566.333007812 532.33203125 567 488.999023438 c 0
 567 452.999023438 561.166992188 419.166015625 549.5 387.499023438 c 0
 537.833007812 355.83203125 521.833007812 328.33203125 501.5 304.999023438 c 0
 481.166992188 281.666015625 457 263.333007812 429 250 c 0
 402.333007812 236.666992188 373.333007812 230 342 230 c 0
 295.333007812 230 258 233.333007812 230 240 c 1
 225.333007812 234.666992188 221 235.666992188 217 243 c 1
 219.666992188 189.666992188 223.666992188 130.666992188 229 66 c 0
 231.666992188 35.3330078125 233 17.666015625 233 12.9990234375 c 2
 233 11.9990234375 l 2
 233 2.666015625 229 -4.6669921875 221 -10 c 0
 211.666992188 -16 201.333984375 -19 190.000976562 -19 c 2
 187.000976562 -19 l 2
 175.000976562 -19 165.333984375 -15.6669921875 158.000976562 -9 c 0
 152.66796875 -3.6669921875 150.000976562 3.666015625 150.000976562 12.9990234375 c 0
 150.000976562 14.9990234375 150.16796875 20.166015625 150.500976562 28.4990234375 c 0
 150.833984375 36.83203125 151.000976562 55.6650390625 151.000976562 84.998046875 c 0
 151.134765625 91.7998046875 151.201171875 100.109375 151.201171875 109.926757812 c 0xec
 151.201171875 149.180664062 150.134765625 212.538085938 148.000976562 299.998046875 c 0
 146.000976562 371.998046875 145.000976562 420.998046875 145.000976562 446.998046875 c 0
 144.333984375 462.998046875 144.000976562 484.498046875 144.000976562 511.498046875 c 0
 144.000976562 538.498046875 144.66796875 575.665039062 146.000976562 622.998046875 c 1
 144.66796875 617.665039062 143.666992188 618.666992188 143 626 c 1
EndSplineSet
Validated: 524289
EndChar

StartChar: Q
Encoding: 81 81 50
Width: 700
GlyphClass: 2
Flags: HMW
HStem: -24.0667 74.0667 646.001 71.999
VStem: 120.999 75.998 317.994 51.0039 498.997 74.002
LayerCount: 2
Fore
SplineSet
268 -11 m 0
 246 -1.6669921875 225.999023438 11.166015625 207.999023438 27.4990234375 c 0
 189.999023438 43.83203125 174.666015625 63.33203125 161.999023438 85.9990234375 c 0
 137.33203125 129.999023438 123.665039062 182.666015625 120.998046875 243.999023438 c 2
 120.998046875 295.999023438 l 2
 120.981445312 298.634765625 120.973632812 301.259765625 120.973632812 303.874023438 c 0
 120.973632812 408.397460938 133.981445312 496.10546875 159.998046875 566.999023438 c 0
 175.331054688 609.666015625 203.331054688 645.333007812 243.998046875 674 c 0
 281.998046875 703.333007812 323.998046875 718 369.998046875 718 c 0
 417.998046875 717.333007812 459.998046875 699.333007812 495.998046875 664 c 0
 513.998046875 646.666992188 529.331054688 622.833984375 541.998046875 592.500976562 c 0
 554.665039062 562.16796875 562.998046875 527.66796875 566.998046875 489.000976562 c 0
 570.998046875 450.333984375 572.998046875 406.000976562 572.998046875 356.000976562 c 0
 572.998046875 269.333984375 568.665039062 204.000976562 559.998046875 160.000976562 c 0
 545.998046875 89.333984375 514.665039062 39.0009765625 465.998046875 9.0009765625 c 0
 462.665039062 2.333984375 459.665039062 0.6669921875 456.998046875 4 c 1
 474.331054688 -21.3330078125 490.6640625 -44.3330078125 505.997070312 -65 c 0
 520.6640625 -85 531.497070312 -99.5 538.497070312 -108.5 c 0
 545.497070312 -117.5 557.997070312 -133.666992188 575.997070312 -157 c 0
 578.6640625 -160.333007812 579.997070312 -164.333007812 579.997070312 -169 c 2
 579.997070312 -173 l 2
 578.6640625 -180.333007812 576.1640625 -187.166015625 572.497070312 -193.499023438 c 0
 568.830078125 -199.83203125 564.997070312 -204.33203125 560.997070312 -206.999023438 c 0
 555.6640625 -210.33203125 549.997070312 -211.999023438 543.997070312 -211.999023438 c 0
 541.330078125 -211.999023438 538.330078125 -211.666015625 534.997070312 -210.999023438 c 0
 524.997070312 -207.666015625 515.997070312 -201.333007812 507.997070312 -192 c 0
 497.997070312 -180.666992188 481.997070312 -158.666992188 459.997070312 -126 c 0
 439.997070312 -93.3330078125 418.997070312 -58 396.997070312 -20 c 1
 394.997070312 -26.6669921875 392.997070312 -27 390.997070312 -21 c 1
 375.6640625 -23 358.6640625 -24 339.997070312 -24 c 0
 338.263671875 -24.044921875 336.5390625 -24.0673828125 334.823242188 -24.0673828125 c 0
 310.806640625 -24.0673828125 288.533203125 -19.7109375 268 -11 c 0
356.997070312 208.999023438 m 0
 361.6640625 205.666015625 365.6640625 199.333007812 368.997070312 190 c 0
 379.6640625 156.666992188 395.6640625 120.333984375 416.997070312 81.0009765625 c 2
 421.997070312 71.0009765625 l 1
 429.997070312 77.0009765625 l 2
 459.330078125 98.333984375 478.663085938 131.333984375 487.99609375 176.000976562 c 0
 489.99609375 185.333984375 492.329101562 205.666992188 494.99609375 237 c 0
 496.99609375 267.666992188 498.329101562 306 498.99609375 352 c 2
 498.99609375 368 l 2
 499.079101562 373.084960938 499.12109375 378.138671875 499.12109375 383.161132812 c 0
 499.12109375 418.305664062 497.079101562 451.918945312 492.99609375 484.000976562 c 0
 486.99609375 532.66796875 471.663085938 572.000976562 446.99609375 602.000976562 c 0
 424.329101562 631.333984375 394.99609375 646.000976562 358.99609375 646.000976562 c 0
 322.99609375 646.000976562 292.99609375 632.333984375 268.99609375 605.000976562 c 0
 244.99609375 577.66796875 227.329101562 539.66796875 215.99609375 491.000976562 c 0
 203.329101562 439.000976562 196.99609375 383.66796875 196.99609375 325.000976562 c 2
 196.99609375 321.000976562 l 2
 197.663085938 302.333984375 198.663085938 282.666992188 199.99609375 262 c 0
 202.663085938 221.333007812 210.163085938 185.5 222.49609375 154.5 c 0
 234.829101562 123.5 251.162109375 98.3330078125 271.495117188 79 c 0
 291.828125 59.6669921875 314.661132812 50 339.994140625 50 c 2
 348.994140625 50 l 1
 363.994140625 50 l 1
 356.994140625 65 l 2
 342.327148438 94.3330078125 332.16015625 116.833007812 326.493164062 132.5 c 0
 320.826171875 148.166992188 317.993164062 161.666992188 317.993164062 173 c 0
 317.993164062 187 322.66015625 198 331.993164062 206 c 0
 337.326171875 210.666992188 342.326171875 213 346.993164062 213 c 0
 350.326171875 213 353.6640625 211.666015625 356.997070312 208.999023438 c 0
EndSplineSet
Validated: 524289
EndChar

StartChar: R
Encoding: 82 82 51
Width: 700
GlyphClass: 2
Flags: HMW
HStem: -18.998 21G 280.633 68.3692 675.001 20G
VStem: 125.999 76.001 130 83.998 134.666 59.3317 135.499 70.5 491.997 72.0029
LayerCount: 2
Fore
SplineSet
470 504.000976562 m 0xe3
 455.333007812 522.66796875 437.999023438 538.834960938 417.999023438 552.501953125 c 0
 397.999023438 566.168945312 375.666015625 578.668945312 350.999023438 590.001953125 c 0
 304.33203125 610.668945312 258.33203125 625.001953125 212.999023438 633.001953125 c 2
 201.999023438 635.001953125 l 1xf1
 203.33203125 578.334960938 204.665039062 532.334960938 205.998046875 497.001953125 c 0
 205.998046875 485.001953125 204.997070312 465.334960938 202.997070312 438.001953125 c 0
 202.330078125 429.334960938 199.6640625 400.334960938 194.997070312 351.001953125 c 1
 202.997070312 350.001953125 l 2
 211.758789062 348.477539062 222.479492188 347.715820312 235.159179688 347.715820312 c 0
 244.669921875 347.715820312 255.282226562 348.14453125 266.997070312 349.001953125 c 0
 344.997070312 352.334960938 398.330078125 359.334960938 426.997070312 370.001953125 c 0
 438.330078125 374.001953125 448.997070312 379.334960938 458.997070312 386.001953125 c 0
 480.997070312 400.001953125 491.997070312 419.668945312 491.997070312 445.001953125 c 0
 491.997070312 465.668945312 484.666992188 485.333984375 470 504.000976562 c 0xe3
504.999023438 3 m 0
 494.33203125 17 478.994140625 34.66796875 458.994140625 56.0009765625 c 0
 440.994140625 76.66796875 419.1640625 99.5009765625 393.497070312 124.500976562 c 0
 367.830078125 149.500976562 338.663085938 174.333984375 305.99609375 199.000976562 c 0
 273.329101562 223.66796875 240.329101562 243.334960938 206.99609375 258.001953125 c 1
 202.329101562 253.334960938 197.662109375 255.334960938 192.995117188 264.001953125 c 1
 193.662109375 252.668945312 193.995117188 249.001953125 193.995117188 249.001953125 c 2xe5
 195.328125 210.334960938 198.995117188 163.001953125 204.995117188 107.001953125 c 0
 210.995117188 51.001953125 213.995117188 19.3349609375 213.995117188 12.001953125 c 0
 213.328125 2.6689453125 208.995117188 -4.6640625 200.995117188 -9.9970703125 c 0
 191.662109375 -15.9970703125 181.329101562 -18.9970703125 169.99609375 -18.9970703125 c 2
 166.99609375 -18.9970703125 l 2
 155.663085938 -18.9970703125 146.330078125 -15.6640625 138.997070312 -8.9970703125 c 0
 132.997070312 -3.6640625 129.997070312 3.6689453125 129.997070312 13.001953125 c 0xe9
 130.6640625 14.3349609375 130.997070312 16.3349609375 130.997070312 19.001953125 c 0
 132.997070312 53.6689453125 134.1640625 83.501953125 134.497070312 108.501953125 c 0
 134.608398438 116.827148438 134.6640625 129.051757812 134.6640625 145.176757812 c 0xe5
 134.6640625 177.473632812 134.44140625 225.415039062 133.99609375 289.000976562 c 2
 133.99609375 305.500976562 l 2
 133.99609375 314.500976562 134.49609375 333.000976562 135.49609375 361.000976562 c 0xe3
 136.49609375 389.000976562 136.99609375 412.833984375 136.99609375 432.500976562 c 0
 136.99609375 452.16796875 136.663085938 472.000976562 135.99609375 492.000976562 c 0
 135.329101562 512.000976562 133.49609375 541.500976562 130.49609375 580.500976562 c 0
 127.49609375 619.500976562 125.99609375 642.66796875 125.99609375 650.000976562 c 2
 125.99609375 656.000976562 l 1
 125.99609375 659.000976562 l 2xf1
 125.99609375 667.000976562 129.663085938 674.66796875 136.99609375 682.000976562 c 0
 143.663085938 690.66796875 153.330078125 695.000976562 165.997070312 695.000976562 c 0
 176.6640625 695.000976562 184.997070312 692.66796875 190.997070312 688.000976562 c 1
 192.330078125 681.333984375 193.328125 681.000976562 193.995117188 687.000976562 c 1xe5
 247.995117188 684.333984375 295.497070312 677.166992188 336.497070312 665.5 c 0
 377.497070312 653.833007812 411.330078125 639.666015625 437.997070312 622.999023438 c 0
 465.997070312 606.33203125 489.830078125 587.33203125 509.497070312 565.999023438 c 0
 529.1640625 544.666015625 543.1640625 523.499023438 551.497070312 502.499023438 c 0
 559.830078125 481.499023438 563.997070312 460.33203125 563.997070312 438.999023438 c 0
 563.997070312 408.33203125 556.330078125 382.999023438 540.997070312 362.999023438 c 0
 533.6640625 353.666015625 523.997070312 345.166015625 511.997070312 337.499023438 c 0
 499.997070312 329.83203125 486.997070312 323.33203125 472.997070312 317.999023438 c 0
 459.6640625 312.666015625 444.327148438 307.833007812 426.994140625 303.5 c 0
 409.661132812 299.166992188 392.165039062 295.833984375 374.498046875 293.500976562 c 0
 356.831054688 291.16796875 336.998046875 289.000976562 314.998046875 287.000976562 c 0
 309.208984375 282.755859375 303.307617188 280.6328125 297.294921875 280.6328125 c 0
 292.921875 280.6328125 288.490234375 281.755859375 283.999023438 284.000976562 c 1
 291.799804688 273.201171875 299.870117188 267.801757812 308.209960938 267.801757812 c 0
 309.13671875 267.801757812 310.06640625 267.868164062 311 268.000976562 c 0
 371.666992188 234.000976562 425.666015625 194.333984375 472.999023438 149.000976562 c 0
 523.666015625 103.000976562 557 64.333984375 573 33.0009765625 c 0
 574.333007812 28.333984375 575 23.833984375 575 19.5009765625 c 0
 575 15.16796875 574.333007812 11.0009765625 573 7.0009765625 c 0
 569.666992188 -0.33203125 564.666992188 -6.33203125 558 -10.9990234375 c 0
 552 -15.666015625 546 -17.9990234375 540 -17.9990234375 c 0
 527.333007812 -17.9990234375 515.666015625 -11 504.999023438 3 c 0
EndSplineSet
Validated: 524289
EndChar

StartChar: S
Encoding: 83 83 52
Width: 700
GlyphClass: 2
Flags: HMW
HStem: -29.0049 67.0049 664.997 59.1678
VStem: 149.002 81 501.999 80.0039
LayerCount: 2
Fore
SplineSet
120 102 m 0
 122 110.666992188 127.333007812 117 136 121 c 0
 143.333007812 124.333007812 148.5 126.333007812 151.5 127 c 0
 154.5 127.666992188 157 128 159 128 c 2
 165 128 l 2
 169 128 173.166992188 126 177.5 122 c 0
 181.833007812 118 186.666015625 112 191.999023438 104 c 0
 205.33203125 84 222.999023438 68 244.999023438 56 c 0
 265.666015625 44 288.999023438 38 314.999023438 38 c 0
 330.33203125 38 346.499023438 40.3330078125 363.499023438 45 c 0
 380.499023438 49.6669921875 396.999023438 56.6669921875 412.999023438 66 c 0
 428.999023438 75.3330078125 443.33203125 86.666015625 455.999023438 99.9990234375 c 0
 469.33203125 113.33203125 480.33203125 128.999023438 488.999023438 146.999023438 c 0
 497.666015625 164.999023438 501.999023438 183.999023438 501.999023438 203.999023438 c 0
 501.999023438 214.666015625 501.33203125 224.499023438 499.999023438 233.499023438 c 0
 498.666015625 242.499023438 495.833007812 252.166015625 491.5 262.499023438 c 0
 487.166992188 272.83203125 481.666992188 282.33203125 475 290.999023438 c 0
 468.333007812 299.666015625 459.333007812 308.333007812 448 317 c 0
 436.666992188 325.666992188 423.833984375 333 409.500976562 339 c 0
 395.16796875 345 377.500976562 350.666992188 356.500976562 356 c 0
 335.500976562 361.333007812 312.333984375 365.666015625 287.000976562 368.999023438 c 0
 266.333984375 371.666015625 247.333984375 377.666015625 230.000976562 386.999023438 c 0
 211.333984375 396.33203125 196.333984375 407.83203125 185.000976562 421.499023438 c 0
 173.66796875 435.166015625 164.834960938 449.666015625 158.501953125 464.999023438 c 0
 152.168945312 480.33203125 149.001953125 495.33203125 149.001953125 509.999023438 c 0
 149.001953125 531.999023438 152.668945312 553.33203125 160.001953125 573.999023438 c 0
 167.334960938 594.666015625 178.66796875 614.166015625 194.000976562 632.499023438 c 0
 209.333984375 650.83203125 227.666992188 666.665039062 249 679.998046875 c 0
 269 693.331054688 293.166992188 703.998046875 321.5 711.998046875 c 0
 349.833007812 719.998046875 380.333007812 723.998046875 413 723.998046875 c 0
 415.66796875 724.109375 418.521484375 724.165039062 421.560546875 724.165039062 c 0
 436.745117188 724.165039062 456.55859375 722.776367188 481 719.999023438 c 0
 511.666992188 716.666015625 532.333984375 712.999023438 543.000976562 708.999023438 c 0
 553.66796875 704.999023438 561.000976562 698.999023438 565.000976562 690.999023438 c 0
 569.000976562 684.33203125 571.000976562 677.665039062 571.000976562 670.998046875 c 0
 571.000976562 662.331054688 569.000976562 655.998046875 565.000976562 651.998046875 c 0
 562.333984375 648.665039062 559.000976562 646.83203125 555.000976562 646.499023438 c 0
 551.000976562 646.166015625 547.333984375 645.999023438 544.000976562 645.999023438 c 0
 534.66796875 645.999023438 525.66796875 647.666015625 517.000976562 650.999023438 c 0
 505.000976562 654.33203125 495.333984375 656.665039062 488.000976562 657.998046875 c 0
 480.66796875 659.331054688 469.334960938 660.6640625 454.001953125 661.997070312 c 0
 439.334960938 663.997070312 423.001953125 664.997070312 405.001953125 664.997070312 c 0
 376.334960938 664.997070312 349.001953125 660.330078125 323.001953125 650.997070312 c 0
 296.334960938 640.997070312 274.334960938 625.997070312 257.001953125 605.997070312 c 0
 239.001953125 585.997070312 230.001953125 562.997070312 230.001953125 536.997070312 c 0
 230.668945312 506.997070312 242.668945312 481.997070312 266.001953125 461.997070312 c 0
 288.001953125 441.997070312 318.668945312 430.997070312 358.001953125 428.997070312 c 0
 392.001953125 426.997070312 421.668945312 421.330078125 447.001953125 411.997070312 c 0
 473.668945312 402.6640625 495.3359375 391.331054688 512.002929688 377.998046875 c 0
 528.669921875 364.665039062 542.502929688 348.998046875 553.502929688 330.998046875 c 0
 564.502929688 312.998046875 572.002929688 295.331054688 576.002929688 277.998046875 c 0
 580.002929688 260.665039062 582.002929688 241.998046875 582.002929688 221.998046875 c 0
 582.002929688 191.331054688 577.002929688 162.6640625 567.002929688 135.997070312 c 0
 557.002929688 109.330078125 543.169921875 86.1630859375 525.502929688 66.49609375 c 0
 507.8359375 46.8291015625 487.002929688 29.662109375 463.002929688 14.9951171875 c 0
 441.669921875 0.328125 418.002929688 -10.671875 392.002929688 -18.0048828125 c 0
 366.002929688 -25.337890625 339.3359375 -29.0048828125 312.002929688 -29.0048828125 c 0
 270.002929688 -29.0048828125 232.002929688 -20.0048828125 198.002929688 -2.0048828125 c 0
 164.002929688 15.9951171875 140.669921875 37.662109375 128.002929688 62.9951171875 c 0
 122.002929688 75.662109375 119.002929688 86.3291015625 119.002929688 94.99609375 c 0
 119.002929688 97.6630859375 119.333007812 100 120 102 c 0
EndSplineSet
Validated: 524289
EndChar

StartChar: T
Encoding: 84 84 53
Width: 700
GlyphClass: 2
Flags: HMW
HStem: 612 69<546.001 548.001 544.001 552.334> 640.499 54.499
VStem: 314 75 324 76.001
LayerCount: 2
Fore
SplineSet
157 694 m 0x60
 194.333007812 688 324.000976562 683.666992188 546.000976562 681 c 0
 558.66796875 681 567.66796875 678 573.000976562 672 c 0
 578.333984375 666 581.333984375 658.666992188 582.000976562 650 c 0
 582.000976562 639.333007812 578.66796875 630 572.000976562 622 c 0
 566.66796875 615.333007812 558.66796875 612 548.000976562 612 c 2
 544.000976562 612 l 2
 525.333984375 610.366210938 506.87109375 609.549804688 488.612304688 609.549804688 c 0
 454.704101562 609.549804688 421.5 612.366210938 389 618 c 1xa0
 389.666992188 475.333007812 393.333984375 277.333007812 400.000976562 24 c 0
 399.333984375 12.6669921875 394.666992188 3.6669921875 386 -3 c 0
 377.333007812 -9.6669921875 368 -13 358 -13 c 1
 356.666992188 -19.6669921875 355.666992188 -19.6669921875 355 -13 c 1
 345 -13 337 -9.3330078125 331 -2 c 0
 326.333007812 3.3330078125 324 11 324 21 c 0x90
 324 23 324.166992188 26.6669921875 324.5 32 c 0
 324.833007812 37.3330078125 325 51.666015625 325 74.9990234375 c 0
 325 122.999023438 323.166992188 208.33203125 319.5 330.999023438 c 0
 315.833007812 453.666015625 314 540.999023438 314 592.999023438 c 2
 314 619.999023438 l 1
 225.333007812 624.666015625 174.333007812 627.999023438 161 629.999023438 c 0
 147.666992188 631.999023438 137.333984375 635.499023438 130.000976562 640.499023438 c 0
 122.66796875 645.499023438 119.000976562 651.999023438 119.000976562 659.999023438 c 1
 118.333984375 653.999023438 118.000976562 654.666015625 118.000976562 661.999023438 c 0
 118.000976562 671.33203125 121.333984375 679.665039062 128.000976562 686.998046875 c 0
 132.66796875 692.331054688 139.334960938 694.998046875 148.001953125 694.998046875 c 0
 150.668945312 694.998046875 153.666992188 694.666992188 157 694 c 0x60
EndSplineSet
Validated: 524289
EndChar

